SplineFontDB: 1.0
FontName: ArundinaSans-BoldOblique
FullName: Arundina Sans Bold Oblique
FamilyName: Arundina Sans
Weight: Bold
Copyright: Copyright (c) 2003 by Bitstream, Inc. All Rights Reserved.\nCopyright (c) 2007 by Software Industry Promotion Agency (Public Organization). All Rights Reserved.
Version: 1.20
ItalicAngle: -11
UnderlinePosition: -75
UnderlineWidth: 50
Ascent: 800
Descent: 200
Order2: 1
XUID: [1021 375 425136265 525174]
FSType: 0
OS2Version: 2
OS2_WeightWidthSlopeOnly: 0
OS2_UseTypoMetrics: 1
CreationTime: 1125072480
ModificationTime: 1171885101
PfmFamily: 33
TTFWeight: 700
TTFWidth: 5
LineGap: 38
VLineGap: 0
Panose: 2 11 3 0 2 2 2 2 2 4
OS2TypoAscent: 0
OS2TypoAOffset: 1
OS2TypoDescent: -200
OS2TypoDOffset: 1
OS2TypoLinegap: 0
OS2WinAscent: 28
OS2WinAOffset: 1
OS2WinDescent: 51
OS2WinDOffset: 1
HheadAscent: 28
HheadAOffset: 1
HheadDescent: -51
HheadDOffset: 1
OS2SubXSize: 700
OS2SubYSize: 650
OS2SubXOff: 0
OS2SubYOff: 140
OS2SupXSize: 700
OS2SupYSize: 650
OS2SupXOff: 0
OS2SupYOff: 477
OS2StrikeYSize: 50
OS2StrikeYPos: 250
OS2FamilyClass: 2063
OS2Vendor: 'BLWK'
ScriptLang: 2
 1 latn 1 dflt 
 0 
ChainSub: coverage 0 0 'liga' 0 0 0 1
 1 1 0
  Coverage: 7 uni0E47
  BCoverage: 12 uni0E2C.alt1
 1
  SeqLookup: 0 'L019'
EndFPST
ChainSub: coverage 0 0 'liga' 0 0 0 1
 1 0 1
  Coverage: 7 uni0E2C
  FCoverage: 39 uni0E34 uni0E35 uni0E36 uni0E37 uni0E47
 1
  SeqLookup: 0 'L019'
EndFPST
ChainSub: coverage 0 0 'liga' 0 0 0 1
 1 0 1
  Coverage: 15 uni0E0E uni0E0F
  FCoverage: 38 uni0E38.alt1 uni0E39.alt1 uni0E3A.alt1
 1
  SeqLookup: 0 'L019'
EndFPST
ChainSub: coverage 0 0 'liga' 0 0 0 1
 1 1 0
  Coverage: 5 a b c
  BCoverage: 23 uni0E1B uni0E1D uni0E1F
 1
  SeqLookup: 0 'L019'
EndFPST
ChainSub: coverage 0 0 'liga' 0 0 0 1
 1 0 1
  Coverage: 5 a b c
  FCoverage: 64 uni0E48.alt1 uni0E49.alt1 uni0E4A.alt1 uni0E4B.alt1 uni0E4C.alt1
 1
  SeqLookup: 0 'L019'
EndFPST
ChainSub: coverage 0 0 'liga' 0 0 0 1
 1 1 0

StartChar: .notdef
Encoding: 65536 -1 0
Width: 344
Flags: W
Fore
56 403 m 1,0,-1
 342 403 l 1,1,-1
 244 -101 l 1,2,-1
 -42 -101 l 1,3,-1
 56 403 l 1,0,-1
219 -68 m 1,4,-1
 305 371 l 1,5,-1
 82 371 l 1,6,-1
 -4 -68 l 1,7,-1
 219 -68 l 1,4,-1
EndSplineSet
EndChar
StartChar: exclam
Encoding: 33 33 4
Width: 261
Flags: W
Fore
212 417 m 1,0,-1
 180 256 l 1,1,-1
 143 141 l 1,2,-1
 72 141 l 1,3,-1
 79 256 l 1,4,-1
 111 417 l 1,5,-1
 212 417 l 1,0,-1
150 100 m 1,6,-1
 131 0 l 1,7,-1
 30 0 l 1,8,-1
 49 100 l 1,9,-1
 150 100 l 1,6,-1
EndSplineSet
EndChar
StartChar: quotedbl
Encoding: 34 34 5
Width: 298
Flags: W
Fore
244 262 m 1,0,-1
 177 262 l 1,1,-1
 208 417 l 1,2,-1
 275 417 l 1,3,-1
 244 262 l 1,0,-1
121 262 m 1,4,-1
 54 262 l 1,5,-1
 85 417 l 1,6,-1
 152 417 l 1,7,-1
 121 262 l 1,4,-1
EndSplineSet
EndChar
StartChar: numbersign
Encoding: 35 35 6
Width: 479
Flags: W
Fore
237 304 m 1,0,-1
 311 304 l 1,1,-1
 358 411 l 1,2,-1
 419 411 l 1,3,-1
 371 304 l 1,4,-1
 449 304 l 1,5,-1
 437 244 l 1,6,-1
 345 244 l 1,7,-1
 311 167 l 1,8,-1
 391 167 l 1,9,-1
 379 107 l 1,10,-1
 284 107 l 1,11,-1
 238 0 l 1,12,-1
 176 0 l 1,13,-1
 222 107 l 1,14,-1
 149 107 l 1,15,-1
 101 0 l 1,16,-1
 39 0 l 1,17,-1
 87 107 l 1,18,-1
 9 107 l 1,19,-1
 21 167 l 1,20,-1
 112 167 l 1,21,-1
 146 244 l 1,22,-1
 67 244 l 1,23,-1
 79 304 l 1,24,-1
 174 304 l 1,25,-1
 221 411 l 1,26,-1
 283 411 l 1,27,-1
 237 304 l 1,0,-1
209 244 m 1,28,-1
 175 167 l 1,29,-1
 248 167 l 1,30,-1
 283 244 l 1,31,-1
 209 244 l 1,28,-1
EndSplineSet
EndChar
StartChar: dollar
Encoding: 36 36 7
Width: 398
Flags: W
Fore
110 -84 m 1,0,-1
 127 0 l 1,1,2
 92 1 92 1 60.5 8 c 128,-1,3
 29 15 29 15 0 26 c 1,4,-1
 14 99 l 1,5,6
 43 82 43 82 74.5 73.5 c 128,-1,7
 106 65 106 65 139 63 c 1,8,-1
 156 150 l 1,9,-1
 146 151 l 2,10,11
 82 164 82 164 59 188.5 c 128,-1,12
 36 213 36 213 45 261 c 0,13,14
 55 312 55 312 94.5 340 c 128,-1,15
 134 368 134 368 198 370 c 1,16,-1
 211 435 l 1,17,-1
 256 435 l 1,18,-1
 244 371 l 1,19,20
 270 369 270 369 298 364 c 128,-1,21
 326 359 326 359 352 351 c 1,22,-1
 338 281 l 1,23,24
 312 292 312 292 285.5 299 c 128,-1,25
 259 306 259 306 231 307 c 1,26,-1
 216 227 l 1,27,-1
 224 226 l 2,28,29
 294 214 294 214 316.5 188 c 128,-1,30
 339 162 339 162 329 110 c 0,31,32
 309 7 309 7 172 0 c 1,33,-1
 155 -84 l 1,34,-1
 110 -84 l 1,0,-1
186 306 m 1,35,36
 166 305 166 305 152 295.5 c 128,-1,37
 138 286 138 286 135 271 c 0,38,39
 129 238 129 238 172 234 c 1,40,-1
 186 306 l 1,35,36
184 65 m 1,41,42
 232 65 232 65 239 102 c 0,43,44
 243 121 243 121 234 130.5 c 128,-1,45
 225 140 225 140 199 143 c 1,46,-1
 184 65 l 1,41,42
EndSplineSet
EndChar
StartChar: percent
Encoding: 37 37 8
Width: 573
Flags: W
Fore
426 172 m 0,0,1
 383 172 383 172 371 106 c 256,2,3
 359 40 359 40 400 40 c 0,4,5
 419 40 419 40 433.5 57 c 128,-1,6
 448 74 448 74 454 106 c 0,7,8
 466 172 466 172 426 172 c 0,0,1
435 219 m 256,9,10
 487 219 487 219 511.5 188.5 c 128,-1,11
 536 158 536 158 525 106 c 0,12,13
 514 52 514 52 478.5 22 c 128,-1,14
 443 -8 443 -8 391 -8 c 256,15,16
 339 -8 339 -8 314.5 22 c 128,-1,17
 290 52 290 52 301 106 c 0,18,19
 312 158 312 158 347.5 188.5 c 128,-1,20
 383 219 383 219 435 219 c 256,9,10
74 -8 m 1,21,-1
 418 424 l 1,22,-1
 480 424 l 1,23,-1
 135 -8 l 1,24,-1
 74 -8 l 1,21,-1
162 424 m 256,25,26
 214 424 214 424 238.5 394.5 c 128,-1,27
 263 365 263 365 252 311 c 256,28,29
 241 257 241 257 205.5 227.5 c 128,-1,30
 170 198 170 198 118 198 c 256,31,32
 66 198 66 198 42 227.5 c 128,-1,33
 18 257 18 257 29 311 c 256,34,35
 40 365 40 365 75 394.5 c 128,-1,36
 110 424 110 424 162 424 c 256,25,26
153 377 m 0,37,38
 111 377 111 377 97 311 c 0,39,40
 84 245 84 245 127 245 c 0,41,42
 146 245 146 245 160 261.5 c 128,-1,43
 174 278 174 278 181 311 c 256,44,45
 188 344 188 344 180 360.5 c 128,-1,46
 172 377 172 377 153 377 c 0,37,38
EndSplineSet
EndChar
StartChar: ampersand
Encoding: 38 38 9
Width: 498
Flags: W
Fore
316 151 m 1,0,1
 353 188 353 188 367 249 c 1,2,-1
 453 249 l 1,3,4
 427 151 427 151 360 89 c 1,5,-1
 425 0 l 1,6,-1
 306 0 l 1,7,-1
 284 30 l 1,8,9
 250 11 250 11 216.5 1.5 c 128,-1,10
 183 -8 183 -8 147 -8 c 0,11,12
 72 -8 72 -8 35 29.5 c 128,-1,13
 -2 67 -2 67 10 130 c 0,14,15
 18 172 18 172 43.5 203 c 128,-1,16
 69 234 69 234 121 263 c 1,17,18
 103 293 103 293 110 325 c 0,19,20
 118 370 118 370 158.5 397 c 128,-1,21
 199 424 199 424 259 424 c 0,22,23
 283 424 283 424 310 420 c 128,-1,24
 337 416 337 416 366 409 c 1,25,-1
 351 331 l 1,26,27
 328 345 328 345 305 350.5 c 128,-1,28
 282 356 282 356 261 356 c 0,29,30
 239 356 239 356 225 348 c 128,-1,31
 211 340 211 340 208 326 c 0,32,33
 206 316 206 316 211 303.5 c 128,-1,34
 216 291 216 291 226 276 c 2,35,-1
 316 151 l 1,0,1
157 208 m 1,36,37
 116 180 116 180 108 142 c 0,38,39
 102 109 102 109 121 86.5 c 128,-1,40
 140 64 140 64 174 64 c 0,41,42
 193 64 193 64 210.5 70 c 128,-1,43
 228 76 228 76 242 86 c 1,44,-1
 157 208 l 1,45,-1
 157 208 l 1,36,37
EndSplineSet
EndChar
StartChar: quotesingle
Encoding: 39 39 10
Width: 174
Flags: W
Fore
121 262 m 1,0,-1
 54 262 l 1,1,-1
 85 417 l 1,2,-1
 152 417 l 1,3,-1
 121 262 l 1,0,-1
EndSplineSet
EndChar
StartChar: parenleft
Encoding: 40 40 11
Width: 261
Flags: W
Fore
67 -76 m 1,0,1
 38 -6 38 -6 30 56 c 128,-1,2
 22 118 22 118 33 179 c 0,3,4
 45 242 45 242 77.5 303.5 c 128,-1,5
 110 365 110 365 166 434 c 1,6,-1
 250 434 l 1,7,8
 201 368 201 368 171.5 305.5 c 128,-1,9
 142 243 142 243 129 180 c 0,10,11
 105 56 105 56 151 -76 c 1,12,-1
 67 -76 l 1,0,1
EndSplineSet
EndChar
StartChar: parenright
Encoding: 41 41 12
Width: 261
Flags: W
Fore
-19 -76 m 1,0,1
 78 57 78 57 102 180 c 0,2,3
 115 243 115 243 109 305.5 c 128,-1,4
 103 368 103 368 80 434 c 1,5,-1
 163 434 l 1,6,7
 192 365 192 365 200 303.5 c 128,-1,8
 208 242 208 242 196 179 c 0,9,10
 185 118 185 118 152.5 56 c 128,-1,11
 120 -6 120 -6 64 -76 c 1,12,-1
 -19 -76 l 1,13,-1
 -19 -76 l 1,0,1
EndSplineSet
EndChar
StartChar: asterisk
Encoding: 42 42 13
Width: 299
Flags: W
Fore
201 291 m 1,0,-1
 285 244 l 1,1,-1
 255 204 l 1,2,-1
 172 254 l 1,3,-1
 153 159 l 1,4,-1
 106 159 l 1,5,-1
 125 254 l 1,6,-1
 22 204 l 1,7,-1
 9 244 l 1,8,-1
 111 291 l 1,9,-1
 28 340 l 1,10,-1
 56 379 l 1,11,-1
 139 329 l 1,12,-1
 158 424 l 1,13,-1
 205 424 l 1,14,-1
 186 329 l 1,15,-1
 289 379 l 1,16,-1
 304 340 l 1,17,-1
 201 291 l 1,0,-1
EndSplineSet
EndChar
StartChar: plus
Encoding: 43 43 14
Width: 479
Flags: W
Fore
263 212 m 1,0,-1
 409 212 l 1,1,-1
 396 147 l 1,2,-1
 250 147 l 1,3,-1
 222 0 l 1,4,-1
 156 0 l 1,5,-1
 184 147 l 1,6,-1
 38 147 l 1,7,-1
 51 212 l 1,8,-1
 197 212 l 1,9,-1
 225 358 l 1,10,-1
 291 358 l 1,11,-1
 263 212 l 1,0,-1
EndSplineSet
EndChar
StartChar: comma
Encoding: 44 44 15
Width: 217
Flags: W
Fore
129 108 m 1,0,-1
 113 23 l 1,1,-1
 23 -81 l 1,2,-1
 -36 -81 l 1,3,-1
 12 23 l 1,4,-1
 28 108 l 1,5,-1
 129 108 l 1,0,-1
EndSplineSet
EndChar
StartChar: hyphen
Encoding: 45 45 16
Width: 238
Flags: W
Fore
195 205 m 1,0,-1
 180 124 l 1,1,-1
 6 124 l 1,2,-1
 21 205 l 1,3,-1
 195 205 l 1,0,-1
EndSplineSet
EndChar
StartChar: period
Encoding: 46 46 17
Width: 217
Flags: W
Fore
129 108 m 1,0,-1
 109 0 l 1,1,-1
 8 0 l 1,2,-1
 28 108 l 1,3,-1
 129 108 l 1,0,-1
EndSplineSet
EndChar
StartChar: slash
Encoding: 47 47 18
Width: 209
Flags: W
Fore
240 417 m 1,0,-1
 1 -53 l 1,1,-1
 -60 -53 l 1,2,-1
 178 417 l 1,3,-1
 240 417 l 1,0,-1
EndSplineSet
EndChar
StartChar: zero
Encoding: 48 48 19
Width: 398
Flags: W
Fore
253 209 m 0,0,1
 268 287 268 287 260 318.5 c 128,-1,2
 252 350 252 350 217 350 c 256,3,4
 182 350 182 350 161.5 318.5 c 128,-1,5
 141 287 141 287 126 209 c 0,6,7
 111 130 111 130 118.5 97.5 c 128,-1,8
 126 65 126 65 161 65 c 256,9,10
 196 65 196 65 217 97.5 c 128,-1,11
 238 130 238 130 253 209 c 0,0,1
360 208 m 0,12,13
 340 105 340 105 285.5 48.5 c 128,-1,14
 231 -8 231 -8 147 -8 c 0,15,16
 65 -8 65 -8 31 48.5 c 128,-1,17
 -3 105 -3 105 17 208 c 0,18,19
 37 313 37 313 93 368.5 c 128,-1,20
 149 424 149 424 231 424 c 0,21,22
 315 424 315 424 347.5 368.5 c 128,-1,23
 380 313 380 313 360 208 c 0,12,13
EndSplineSet
EndChar
StartChar: one
Encoding: 49 49 20
Width: 398
Flags: W
Fore
126 74 m 1,0,-1
 179 345 l 1,1,-1
 76 324 l 1,2,-1
 91 397 l 1,3,-1
 192 417 l 1,4,-1
 294 417 l 1,5,-1
 227 74 l 1,6,-1
 322 74 l 1,7,-1
 308 0 l 1,8,-1
 16 0 l 1,9,-1
 30 74 l 1,10,-1
 126 74 l 1,0,-1
EndSplineSet
EndChar
StartChar: two
Encoding: 50 50 21
Width: 398
Flags: W
Fore
313 79 m 1,0,-1
 298 0 l 1,1,-1
 -5 0 l 1,2,-1
 10 79 l 1,3,-1
 189 213 l 2,4,5
 212 232 212 232 225.5 249.5 c 128,-1,6
 239 267 239 267 243 286 c 0,7,8
 249 315 249 315 232.5 332.5 c 128,-1,9
 216 350 216 350 183 350 c 0,10,11
 159 350 159 350 126 340 c 128,-1,12
 93 330 93 330 55 308 c 1,13,-1
 73 400 l 1,14,15
 151 424 151 424 220 424 c 0,16,17
 295 424 295 424 330 391.5 c 128,-1,18
 365 359 365 359 354 299 c 0,19,20
 346 264 346 264 323 236 c 0,21,22
 301 208 301 208 233 157 c 2,23,-1
 130 79 l 1,24,-1
 313 79 l 1,0,-1
EndSplineSet
EndChar
StartChar: three
Encoding: 51 51 22
Width: 398
Flags: W
Fore
259 225 m 1,0,1
 340 202 340 202 325 119 c 0,2,3
 312 56 312 56 258.5 24 c 128,-1,4
 205 -8 205 -8 114 -8 c 0,5,6
 82 -8 82 -8 50.5 -3 c 128,-1,7
 19 2 19 2 -9 13 c 1,8,-1
 7 96 l 1,9,10
 59 65 59 65 119 65 c 0,11,12
 207 65 207 65 218 123 c 0,13,14
 223 150 223 150 203.5 165 c 128,-1,15
 184 180 184 180 136 180 c 2,16,-1
 93 180 l 1,17,-1
 107 249 l 1,18,-1
 152 249 l 2,19,20
 233 249 233 249 243 300 c 0,21,22
 248 326 248 326 231 338 c 128,-1,23
 214 350 214 350 179 350 c 0,24,25
 154 350 154 350 126 344.5 c 128,-1,26
 98 339 98 339 69 328 c 1,27,-1
 85 407 l 1,28,29
 151 424 151 424 213 424 c 0,30,31
 376 424 376 424 355 317 c 0,32,33
 341 243 341 243 259 225 c 1,0,1
EndSplineSet
EndChar
StartChar: four
Encoding: 52 52 23
Width: 398
Flags: W
Fore
71 153 m 1,0,-1
 190 153 l 1,1,-1
 224 329 l 1,2,-1
 71 153 l 1,0,-1
343 417 m 1,3,-1
 291 153 l 1,4,-1
 350 153 l 1,5,-1
 335 76 l 1,6,-1
 276 76 l 1,7,-1
 262 0 l 1,8,-1
 161 0 l 1,9,-1
 175 76 l 1,10,-1
 -10 76 l 1,11,-1
 8 168 l 1,12,-1
 224 417 l 1,13,-1
 343 417 l 1,3,-1
EndSplineSet
EndChar
StartChar: five
Encoding: 53 53 24
Width: 398
Flags: W
Fore
359 417 m 1,0,-1
 343 338 l 1,1,-1
 162 338 l 1,2,-1
 150 273 l 1,3,4
 161 276 161 276 174 278.5 c 128,-1,5
 187 281 187 281 200 281 c 0,6,7
 278 281 278 281 312 242.5 c 128,-1,8
 346 204 346 204 333 137 c 0,9,10
 319 68 319 68 266 30 c 128,-1,11
 213 -8 213 -8 131 -8 c 0,12,13
 97 -8 97 -8 63.5 -1.5 c 128,-1,14
 30 5 30 5 -3 20 c 1,15,-1
 14 104 l 1,16,17
 76 65 76 65 128 65 c 0,18,19
 168 65 168 65 194 84.5 c 128,-1,20
 220 104 220 104 226 137 c 0,21,22
 232 169 232 169 214 188 c 128,-1,23
 196 207 196 207 156 207 c 0,24,25
 134 207 134 207 105.5 201 c 128,-1,26
 77 195 77 195 45 182 c 1,27,-1
 91 417 l 1,28,-1
 359 417 l 1,0,-1
EndSplineSet
EndChar
StartChar: six
Encoding: 54 54 25
Width: 398
Flags: W
Fore
197 206 m 0,0,1
 140 206 140 206 125 132 c 0,2,3
 111 59 111 59 168 59 c 0,4,5
 224 59 224 59 238 132 c 0,6,7
 253 206 253 206 197 206 c 0,0,1
353 329 m 1,8,9
 329 342 329 342 306.5 347.5 c 128,-1,10
 284 353 284 353 263 353 c 0,11,12
 164 353 164 353 137 248 c 1,13,14
 178 275 178 275 228 275 c 0,15,16
 292 275 292 275 323.5 237.5 c 128,-1,17
 355 200 355 200 344 140 c 0,18,19
 337 107 337 107 320 79.5 c 128,-1,20
 303 52 303 52 278.5 32.5 c 128,-1,21
 254 13 254 13 222 2.5 c 128,-1,22
 190 -8 190 -8 154 -8 c 0,23,24
 73 -8 73 -8 39 46.5 c 128,-1,25
 5 101 5 101 25 203 c 0,26,27
 35 254 35 254 56.5 295 c 128,-1,28
 78 336 78 336 109 364.5 c 128,-1,29
 140 393 140 393 179 408.5 c 128,-1,30
 218 424 218 424 263 424 c 0,31,32
 316 424 316 424 369 407 c 1,33,-1
 353 329 l 1,8,9
EndSplineSet
EndChar
StartChar: seven
Encoding: 55 55 26
Width: 398
Flags: W
Fore
383 417 m 1,0,-1
 371 356 l 1,1,-1
 140 0 l 1,2,-1
 35 0 l 1,3,-1
 255 338 l 1,4,-1
 54 338 l 1,5,-1
 70 417 l 1,6,-1
 383 417 l 1,0,-1
EndSplineSet
EndChar
StartChar: eight
Encoding: 56 56 27
Width: 398
Flags: W
Fore
185 186 m 256,0,1
 155 186 155 186 135.5 169.5 c 128,-1,2
 116 153 116 153 110 123 c 0,3,4
 98 59 98 59 160 59 c 256,5,6
 222 59 222 59 234 123 c 0,7,8
 240 153 240 153 227.5 169.5 c 128,-1,9
 215 186 215 186 185 186 c 256,0,1
114 222 m 1,10,11
 42 246 42 246 55 316 c 0,12,13
 66 370 66 370 110.5 397 c 128,-1,14
 155 424 155 424 231 424 c 0,15,16
 306 424 306 424 340.5 397 c 128,-1,17
 375 370 375 370 364 316 c 0,18,19
 351 246 351 246 269 222 c 1,20,21
 351 198 351 198 334 118 c 0,22,23
 310 -8 310 -8 147 -8 c 256,24,25
 -16 -8 -16 -8 8 118 c 0,26,27
 25 198 25 198 114 222 c 1,10,11
155 306 m 0,28,29
 150 281 150 281 161 267 c 128,-1,30
 172 253 172 253 198 253 c 256,31,32
 224 253 224 253 239.5 267 c 128,-1,33
 255 281 255 281 260 306 c 0,34,35
 269 356 269 356 218 356 c 0,36,37
 164 356 164 356 155 306 c 0,28,29
EndSplineSet
EndChar
StartChar: nine
Encoding: 57 57 28
Width: 398
Flags: W
Fore
23 86 m 1,0,1
 71 62 71 62 114 62 c 0,2,3
 212 62 212 62 240 168 c 1,4,5
 220 153 220 153 196.5 147 c 128,-1,6
 173 141 173 141 149 141 c 0,7,8
 85 141 85 141 52.5 178 c 128,-1,9
 20 215 20 215 32 275 c 0,10,11
 46 344 46 344 97.5 384 c 128,-1,12
 149 424 149 424 222 424 c 0,13,14
 304 424 304 424 338 369.5 c 128,-1,15
 372 315 372 315 352 213 c 0,16,17
 342 162 342 162 320.5 121 c 128,-1,18
 299 80 299 80 268 51.5 c 128,-1,19
 237 23 237 23 198 7.5 c 128,-1,20
 159 -8 159 -8 114 -8 c 0,21,22
 55 -8 55 -8 8 9 c 1,23,-1
 23 86 l 1,0,1
180 210 m 256,24,25
 237 210 237 210 252 283 c 0,26,27
 266 356 266 356 209 356 c 256,28,29
 152 356 152 356 138 283 c 0,30,31
 123 210 123 210 180 210 c 256,24,25
EndSplineSet
EndChar
StartChar: colon
Encoding: 58 58 29
Width: 229
Flags: W
Fore
175 313 m 1,0,-1
 154 205 l 1,1,-1
 53 205 l 1,2,-1
 74 313 l 1,3,-1
 175 313 l 1,0,-1
135 108 m 1,4,-1
 115 0 l 1,5,-1
 14 0 l 1,6,-1
 34 108 l 1,7,-1
 135 108 l 1,4,-1
EndSplineSet
EndChar
StartChar: semicolon
Encoding: 59 59 30
Width: 229
Flags: W
Fore
135 108 m 1,0,-1
 119 23 l 1,1,-1
 30 -81 l 1,2,-1
 -29 -81 l 1,3,-1
 18 23 l 1,4,-1
 34 108 l 1,5,-1
 135 108 l 1,0,-1
175 313 m 1,6,-1
 154 205 l 1,7,-1
 53 205 l 1,8,-1
 74 313 l 1,9,-1
 175 313 l 1,6,-1
EndSplineSet
EndChar
StartChar: less
Encoding: 60 60 31
Width: 479
Flags: W
Fore
133 179 m 1,0,-1
 384 86 l 1,1,-1
 371 18 l 1,2,-1
 38 147 l 1,3,-1
 51 212 l 1,4,-1
 434 342 l 1,5,-1
 420 271 l 1,6,-1
 133 179 l 1,0,-1
EndSplineSet
EndChar
StartChar: equal
Encoding: 61 61 32
Width: 479
Flags: W
Fore
421 275 m 1,0,-1
 408 210 l 1,1,-1
 50 210 l 1,2,-1
 63 275 l 1,3,-1
 421 275 l 1,0,-1
396 149 m 1,4,-1
 383 82 l 1,5,-1
 25 82 l 1,6,-1
 38 149 l 1,7,-1
 396 149 l 1,4,-1
EndSplineSet
EndChar
StartChar: greater
Encoding: 62 62 33
Width: 479
Flags: W
Fore
76 342 m 1,0,-1
 409 212 l 1,1,-1
 396 147 l 1,2,-1
 13 18 l 1,3,-1
 26 86 l 1,4,-1
 314 179 l 1,5,-1
 62 271 l 1,6,-1
 76 342 l 1,0,-1
EndSplineSet
EndChar
StartChar: question
Encoding: 63 63 34
Width: 332
Flags: W
Fore
74 141 m 1,0,-1
 76 153 l 2,1,2
 78 165 78 165 82 175 c 128,-1,3
 86 185 86 185 93.5 195 c 128,-1,4
 101 205 101 205 112.5 216 c 128,-1,5
 124 227 124 227 142 241 c 2,6,-1
 162 256 l 2,7,8
 198 285 198 285 204 309 c 0,9,10
 208 329 208 329 196.5 339.5 c 128,-1,11
 185 350 185 350 162 350 c 256,12,13
 139 350 139 350 110 341.5 c 128,-1,14
 81 333 81 333 51 314 c 1,15,-1
 67 401 l 1,16,17
 103 413 103 413 132 418.5 c 128,-1,18
 161 424 161 424 186 424 c 0,19,20
 326 424 326 424 305 316 c 0,21,22
 300 288 300 288 284.5 266.5 c 128,-1,23
 269 245 269 245 239 220 c 2,24,-1
 218 204 l 2,25,26
 196 187 196 187 188 176.5 c 128,-1,27
 180 166 180 166 177 152 c 2,28,-1
 175 141 l 1,29,-1
 74 141 l 1,0,-1
167 100 m 1,30,-1
 148 0 l 1,31,-1
 47 0 l 1,32,-1
 66 100 l 1,33,-1
 167 100 l 1,30,-1
EndSplineSet
EndChar
StartChar: at
Encoding: 64 64 35
Width: 572
Flags: W
Fore
211 150 m 0,0,1
 204 117 204 117 214.5 97 c 128,-1,2
 225 77 225 77 250 77 c 256,3,4
 275 77 275 77 294 97 c 128,-1,5
 313 117 313 117 320 150 c 0,6,7
 326 184 326 184 315 204 c 128,-1,8
 304 224 304 224 279 224 c 256,9,10
 254 224 254 224 235.5 204 c 128,-1,11
 217 184 217 184 211 150 c 0,0,1
309 66 m 1,12,13
 296 47 296 47 276 35.5 c 128,-1,14
 256 24 256 24 230 24 c 0,15,16
 182 24 182 24 158.5 59 c 128,-1,17
 135 94 135 94 146 149 c 0,18,19
 157 206 157 206 194.5 240.5 c 128,-1,20
 232 275 232 275 279 275 c 0,21,22
 305 275 305 275 321 264 c 128,-1,23
 337 253 337 253 342 234 c 1,24,-1
 349 270 l 1,25,-1
 408 270 l 1,26,-1
 370 77 l 1,27,28
 405 82 405 82 430.5 110.5 c 128,-1,29
 456 139 456 139 464 182 c 0,30,31
 469 210 469 210 465 234 c 128,-1,32
 461 258 461 258 450 278 c 0,33,34
 430 313 430 313 393.5 331 c 128,-1,35
 357 349 357 349 311 349 c 0,36,37
 278 349 278 349 247.5 341 c 128,-1,38
 217 333 217 333 188 316 c 0,39,40
 143 289 143 289 110.5 245.5 c 128,-1,41
 78 202 78 202 68 151 c 0,42,43
 60 109 60 109 68.5 73.5 c 128,-1,44
 77 38 77 38 100 9 c 0,45,46
 121 -19 121 -19 154 -33 c 128,-1,47
 187 -47 187 -47 229 -47 c 0,48,49
 265 -47 265 -47 303 -34 c 128,-1,50
 341 -21 341 -21 370 1 c 1,51,-1
 391 -44 l 1,52,53
 350 -70 350 -70 306.5 -85 c 128,-1,54
 263 -100 263 -100 220 -100 c 0,55,56
 115 -100 115 -100 54 -28 c 0,57,58
 25 7 25 7 15.5 53 c 128,-1,59
 6 99 6 99 17 151 c 0,60,61
 27 203 27 203 54.5 248.5 c 128,-1,62
 82 294 82 294 124 330 c 0,63,64
 167 364 167 364 217 383 c 128,-1,65
 267 402 267 402 318 402 c 0,66,67
 381 402 381 402 426.5 378 c 128,-1,68
 472 354 472 354 499 309 c 0,69,70
 531 255 531 255 517 183 c 0,71,72
 502 107 502 107 448.5 65 c 128,-1,73
 395 23 395 23 311 23 c 2,74,-1
 301 23 l 1,75,-1
 309 66 l 1,76,-1
 309 66 l 1,12,13
EndSplineSet
EndChar
StartChar: A
Encoding: 65 65 36
Width: 443
Flags: W
Fore
102 76 m 1,0,-1
 60 0 l 1,1,-1
 -47 0 l 1,2,-1
 188 417 l 1,3,-1
 316 417 l 1,4,-1
 390 0 l 1,5,-1
 282 0 l 1,6,-1
 270 76 l 1,7,-1
 102 76 l 1,0,-1
257 152 m 1,8,-1
 234 319 l 1,9,-1
 143 152 l 1,10,-1
 257 152 l 1,8,-1
EndSplineSet
KernsSLIFO: 57 -50 0 0
EndChar
StartChar: B
Encoding: 66 66 37
Width: 436
Flags: W
Fore
219 255 m 1,0,1
 270 255 270 255 279 299 c 0,2,3
 287 345 287 345 237 345 c 2,4,-1
 177 345 l 1,5,-1
 159 255 l 1,6,-1
 219 255 l 1,7,-1
 219 255 l 1,0,1
187 73 m 1,8,9
 251 73 251 73 262 128 c 0,10,11
 273 182 273 182 208 182 c 2,12,-1
 145 182 l 1,13,-1
 124 73 l 1,14,-1
 187 73 l 1,15,-1
 187 73 l 1,8,9
317 223 m 1,16,17
 348 213 348 213 362 186 c 128,-1,18
 376 159 376 159 368 120 c 0,19,20
 356 59 356 59 310.5 29.5 c 128,-1,21
 265 0 265 0 181 0 c 2,22,-1
 2 0 l 1,23,-1
 83 417 l 1,24,-1
 245 417 l 2,25,26
 332 417 332 417 365 391 c 128,-1,27
 398 365 398 365 387 307 c 0,28,29
 375 246 375 246 317 223 c 1,16,17
EndSplineSet
EndChar
StartChar: C
Encoding: 67 67 38
Width: 420
Flags: W
Fore
337 23 m 1,0,1
 272 -8 272 -8 202 -8 c 0,2,3
 150 -8 150 -8 111 7 c 128,-1,4
 72 22 72 22 48 50 c 128,-1,5
 24 78 24 78 16 118 c 128,-1,6
 8 158 8 158 18 208 c 0,7,8
 38 308 38 308 109.5 366 c 128,-1,9
 181 424 181 424 286 424 c 0,10,11
 356 424 356 424 409 393 c 1,12,-1
 392 307 l 1,13,14
 366 328 366 328 339 337.5 c 128,-1,15
 312 347 312 347 280 347 c 0,16,17
 223 347 223 347 182.5 309.5 c 128,-1,18
 142 272 142 272 130 208 c 0,19,20
 117 144 117 144 143 106.5 c 128,-1,21
 169 69 169 69 226 69 c 0,22,23
 258 69 258 69 288.5 78.5 c 128,-1,24
 319 88 319 88 354 109 c 1,25,-1
 337 23 l 1,26,-1
 337 23 l 1,0,1
EndSplineSet
EndChar
StartChar: D
Encoding: 68 68 39
Width: 475
Flags: W
Fore
125 81 m 1,0,-1
 164 81 l 2,1,2
 230 81 230 81 271 113.5 c 128,-1,3
 312 146 312 146 324 209 c 256,4,5
 336 272 336 272 308 304 c 128,-1,6
 280 336 280 336 214 336 c 2,7,-1
 175 336 l 1,8,-1
 125 81 l 1,0,-1
197 417 m 2,9,10
 290 417 290 417 335 403 c 0,11,12
 378 390 378 390 406 357 c 0,13,14
 453 302 453 302 435 209 c 0,15,16
 417 115 417 115 348 59 c 0,17,18
 306 26 306 26 258 13 c 256,19,20
 210 0 210 0 116 0 c 2,21,-1
 2 0 l 1,22,-1
 83 417 l 1,23,-1
 197 417 l 2,9,10
EndSplineSet
EndChar
StartChar: E
Encoding: 69 69 40
Width: 390
Flags: W
Fore
375 417 m 1,0,-1
 359 336 l 1,1,-1
 175 336 l 1,2,-1
 159 257 l 1,3,-1
 331 257 l 1,4,-1
 316 177 l 1,5,-1
 144 177 l 1,6,-1
 125 81 l 1,7,-1
 313 81 l 1,8,-1
 298 0 l 1,9,-1
 2 0 l 1,10,-1
 83 417 l 1,11,-1
 375 417 l 1,0,-1
EndSplineSet
EndChar
StartChar: F
Encoding: 70 70 41
Width: 390
Flags: W
Fore
375 417 m 1,0,-1
 359 336 l 1,1,-1
 175 336 l 1,2,-1
 159 257 l 1,3,-1
 331 257 l 1,4,-1
 316 177 l 1,5,-1
 144 177 l 1,6,-1
 110 0 l 1,7,-1
 2 0 l 1,8,-1
 83 417 l 1,9,-1
 375 417 l 1,0,-1
EndSplineSet
EndChar
StartChar: G
Encoding: 71 71 42
Width: 470
Flags: W
Fore
384 32 m 1,0,1
 294 -8 294 -8 202 -8 c 0,2,3
 150 -8 150 -8 111 7 c 128,-1,4
 72 22 72 22 48 50 c 128,-1,5
 24 78 24 78 16 118 c 128,-1,6
 8 158 8 158 18 208 c 0,7,8
 38 309 38 309 110.5 366.5 c 128,-1,9
 183 424 183 424 292 424 c 0,10,11
 377 424 377 424 438 393 c 1,12,-1
 421 307 l 1,13,14
 359 347 359 347 290 347 c 0,15,16
 226 347 226 347 184.5 310.5 c 128,-1,17
 143 274 143 274 130 208 c 256,18,19
 117 142 117 142 143.5 105.5 c 128,-1,20
 170 69 170 69 231 69 c 0,21,22
 265 69 265 69 291 79 c 1,23,-1
 306 159 l 1,24,-1
 240 159 l 1,25,-1
 255 232 l 1,26,-1
 423 232 l 1,27,-1
 384 32 l 1,28,-1
 384 32 l 1,0,1
EndSplineSet
EndChar
StartChar: H
Encoding: 72 72 43
Width: 478
Flags: W
Fore
191 417 m 1,0,-1
 159 257 l 1,1,-1
 318 257 l 1,2,-1
 350 417 l 1,3,-1
 458 417 l 1,4,-1
 377 0 l 1,5,-1
 269 0 l 1,6,-1
 303 177 l 1,7,-1
 144 177 l 1,8,-1
 110 0 l 1,9,-1
 2 0 l 1,10,-1
 83 417 l 1,11,-1
 191 417 l 1,0,-1
EndSplineSet
EndChar
StartChar: I
Encoding: 73 73 44
Width: 213
Flags: W
Fore
191 417 m 1,0,-1
 110 0 l 1,1,-1
 2 0 l 1,2,-1
 83 417 l 1,3,-1
 191 417 l 1,0,-1
EndSplineSet
EndChar
StartChar: J
Encoding: 74 74 45
Width: 213
Flags: W
Fore
191 417 m 1,0,-1
 117 41 l 2,1,2
 87 -115 87 -115 -83 -115 c 2,3,-1
 -105 -115 l 1,4,-1
 -89 -34 l 1,5,-1
 -72 -34 l 2,6,7
 -5 -34 -5 -34 9 41 c 2,8,-1
 83 417 l 1,9,-1
 191 417 l 1,0,-1
EndSplineSet
EndChar
StartChar: K
Encoding: 75 75 46
Width: 443
Flags: W
Fore
191 417 m 1,0,-1
 161 264 l 1,1,-1
 346 417 l 1,2,-1
 471 417 l 1,3,-1
 232 220 l 1,4,-1
 410 0 l 1,5,-1
 276 0 l 1,6,-1
 141 164 l 1,7,-1
 110 0 l 1,8,-1
 2 0 l 1,9,-1
 83 417 l 1,10,-1
 191 417 l 1,0,-1
EndSplineSet
EndChar
StartChar: L
Encoding: 76 76 47
Width: 365
Flags: W
Fore
191 417 m 1,0,-1
 125 81 l 1,1,-1
 313 81 l 1,2,-1
 298 0 l 1,3,-1
 2 0 l 1,4,-1
 83 417 l 1,5,-1
 191 417 l 1,0,-1
EndSplineSet
EndChar
StartChar: M
Encoding: 77 77 48
Width: 568
Flags: W
Fore
220 417 m 1,0,-1
 271 194 l 1,1,-1
 410 417 l 1,2,-1
 548 417 l 1,3,-1
 467 0 l 1,4,-1
 365 0 l 1,5,-1
 424 305 l 1,6,-1
 284 80 l 1,7,-1
 215 80 l 1,8,-1
 162 305 l 1,9,-1
 103 0 l 1,10,-1
 2 0 l 1,11,-1
 83 417 l 1,12,-1
 220 417 l 1,0,-1
EndSplineSet
EndChar
StartChar: N
Encoding: 78 78 49
Width: 478
Flags: W
Fore
203 417 m 1,0,-1
 300 131 l 1,1,-1
 356 417 l 1,2,-1
 458 417 l 1,3,-1
 377 0 l 1,4,-1
 256 0 l 1,5,-1
 158 286 l 1,6,-1
 103 0 l 1,7,-1
 2 0 l 1,8,-1
 83 417 l 1,9,-1
 203 417 l 1,0,-1
EndSplineSet
EndChar
StartChar: O
Encoding: 79 79 50
Width: 486
Flags: W
Fore
261 347 m 0,0,1
 210 347 210 347 176.5 310.5 c 128,-1,2
 143 274 143 274 130 208 c 256,3,4
 117 142 117 142 136.5 105.5 c 128,-1,5
 156 69 156 69 207 69 c 0,6,7
 255 69 255 69 289.5 105.5 c 128,-1,8
 324 142 324 142 337 208 c 256,9,10
 350 274 350 274 329.5 310.5 c 128,-1,11
 309 347 309 347 261 347 c 0,0,1
276 424 m 256,12,13
 378 424 378 424 422.5 367 c 128,-1,14
 467 310 467 310 447 208 c 256,15,16
 427 106 427 106 360.5 49 c 128,-1,17
 294 -8 294 -8 192 -8 c 256,18,19
 90 -8 90 -8 44 49 c 128,-1,20
 -2 106 -2 106 18 208 c 256,21,22
 38 310 38 310 106 367 c 128,-1,23
 174 424 174 424 276 424 c 256,12,13
EndSplineSet
EndChar
StartChar: P
Encoding: 80 80 51
Width: 419
Flags: W
Fore
262 417 m 2,0,1
 343 417 343 417 377.5 382 c 128,-1,2
 412 347 412 347 399 281 c 256,3,4
 386 215 386 215 338 180 c 128,-1,5
 290 145 290 145 209 145 c 2,6,-1
 138 145 l 1,7,-1
 110 0 l 1,8,-1
 2 0 l 1,9,-1
 83 417 l 1,10,-1
 262 417 l 2,0,1
153 223 m 1,11,-1
 213 223 l 2,12,13
 243 223 243 223 263.5 237.5 c 128,-1,14
 284 252 284 252 289 281 c 0,15,16
 294 309 294 309 279.5 324 c 128,-1,17
 265 339 265 339 235 339 c 2,18,-1
 175 339 l 1,19,-1
 153 223 l 1,11,-1
EndSplineSet
EndChar
StartChar: Q
Encoding: 81 81 52
Width: 486
Flags: W
Fore
195 -7 m 2,0,1
 92 -7 92 -7 45 49.5 c 128,-1,2
 -2 106 -2 106 18 208 c 256,3,4
 38 310 38 310 106 367 c 128,-1,5
 174 424 174 424 276 424 c 256,6,7
 378 424 378 424 422.5 367.5 c 128,-1,8
 467 311 467 311 447 208 c 0,9,10
 433 138 433 138 393.5 87.5 c 128,-1,11
 354 37 354 37 293 11 c 1,12,-1
 358 -83 l 1,13,-1
 256 -83 l 1,14,-1
 202 -7 l 1,15,-1
 195 -7 l 2,0,1
261 347 m 0,16,17
 210 347 210 347 176.5 310.5 c 128,-1,18
 143 274 143 274 130 208 c 256,19,20
 117 142 117 142 136.5 105.5 c 128,-1,21
 156 69 156 69 207 69 c 0,22,23
 255 69 255 69 289.5 105.5 c 128,-1,24
 324 142 324 142 337 208 c 256,25,26
 350 274 350 274 329.5 310.5 c 128,-1,27
 309 347 309 347 261 347 c 0,16,17
EndSplineSet
EndChar
StartChar: R
Encoding: 82 82 53
Width: 440
Flags: W
Fore
200 232 m 1,0,1
 235 232 235 232 251.5 244.5 c 128,-1,2
 268 257 268 257 273 286 c 0,3,4
 278 314 278 314 266.5 326.5 c 128,-1,5
 255 339 255 339 220 339 c 2,6,-1
 175 339 l 1,7,-1
 155 232 l 1,8,-1
 200 232 l 1,9,-1
 200 232 l 1,0,1
110 0 m 1,10,-1
 2 0 l 1,11,-1
 83 417 l 1,12,-1
 247 417 l 2,13,14
 331 417 331 417 362.5 389 c 128,-1,15
 394 361 394 361 383 303 c 0,16,17
 375 260 375 260 351 234 c 128,-1,18
 327 208 327 208 282 195 c 1,19,20
 305 190 305 190 318 171.5 c 128,-1,21
 331 153 331 153 343 119 c 2,22,-1
 380 0 l 1,23,-1
 264 0 l 1,24,-1
 233 104 l 2,25,26
 224 136 224 136 210 147 c 128,-1,27
 196 158 196 158 170 158 c 2,28,-1
 140 158 l 1,29,-1
 110 0 l 1,10,-1
EndSplineSet
EndChar
StartChar: S
Encoding: 83 83 54
Width: 412
Flags: W
Fore
355 316 m 1,0,1
 322 331 322 331 291.5 339 c 128,-1,2
 261 347 261 347 231 347 c 0,3,4
 191 347 191 347 171.5 336.5 c 128,-1,5
 152 326 152 326 148 304 c 0,6,7
 144 286 144 286 154 276.5 c 128,-1,8
 164 267 164 267 195 261 c 2,9,-1
 240 251 l 2,10,11
 307 238 307 238 331 210 c 128,-1,12
 355 182 355 182 344 128 c 0,13,14
 330 59 330 59 283.5 25.5 c 128,-1,15
 237 -8 237 -8 152 -8 c 0,16,17
 73 -8 73 -8 -1 22 c 1,18,-1
 16 112 l 1,19,20
 52 91 52 91 87 80 c 128,-1,21
 122 69 122 69 157 69 c 256,22,23
 192 69 192 69 212.5 81.5 c 128,-1,24
 233 94 233 94 238 116 c 0,25,26
 242 134 242 134 232 145 c 128,-1,27
 222 156 222 156 184 164 c 2,28,-1
 144 173 l 2,29,30
 84 187 84 187 61.5 216.5 c 128,-1,31
 39 246 39 246 49 295 c 0,32,33
 61 358 61 358 107 391 c 128,-1,34
 153 424 153 424 228 424 c 0,35,36
 263 424 263 424 298.5 419 c 128,-1,37
 334 414 334 414 372 403 c 1,38,-1
 355 316 l 1,0,1
EndSplineSet
EndChar
StartChar: T
Encoding: 84 84 55
Width: 390
Flags: W
Fore
418 417 m 1,0,-1
 402 336 l 1,1,-1
 263 336 l 1,2,-1
 198 0 l 1,3,-1
 92 0 l 1,4,-1
 157 336 l 1,5,-1
 18 336 l 1,6,-1
 34 417 l 1,7,-1
 418 417 l 1,0,-1
EndSplineSet
EndChar
StartChar: U
Encoding: 85 85 56
Width: 464
Flags: W
Fore
191 417 m 1,0,-1
 142 167 l 2,1,2
 132 116 132 116 144.5 93 c 128,-1,3
 157 70 157 70 195 70 c 256,4,5
 233 70 233 70 255 93 c 128,-1,6
 277 116 277 116 287 167 c 2,7,-1
 336 417 l 1,8,-1
 443 417 l 1,9,-1
 394 167 l 2,10,11
 377 79 377 79 325 35.5 c 128,-1,12
 273 -8 273 -8 180 -8 c 0,13,14
 0 -8 0 -8 34 167 c 2,15,-1
 83 417 l 1,16,-1
 191 417 l 1,0,-1
EndSplineSet
EndChar
StartChar: V
Encoding: 86 86 57
Width: 443
Flags: W
Fore
141 417 m 1,0,-1
 193 109 l 1,1,-1
 363 417 l 1,2,-1
 471 417 l 1,3,-1
 235 0 l 1,4,-1
 107 0 l 1,5,-1
 34 417 l 1,6,-1
 141 417 l 1,0,-1
EndSplineSet
KernsSLIFO: 36 -50 0 0
EndChar
StartChar: W
Encoding: 87 87 58
Width: 630
Flags: W
Fore
152 417 m 1,0,-1
 163 113 l 1,1,-1
 294 417 l 1,2,-1
 398 417 l 1,3,-1
 410 113 l 1,4,-1
 542 417 l 1,5,-1
 643 417 l 1,6,-1
 465 0 l 1,7,-1
 340 0 l 1,8,-1
 326 317 l 1,9,-1
 191 0 l 1,10,-1
 67 0 l 1,11,-1
 49 417 l 1,12,-1
 152 417 l 1,0,-1
EndSplineSet
EndChar
StartChar: X
Encoding: 88 88 59
Width: 441
Flags: W
Fore
380 0 m 1,0,-1
 267 0 l 1,1,-1
 197 143 l 1,2,-1
 74 0 l 1,3,-1
 -39 0 l 1,4,-1
 145 213 l 1,5,-1
 48 417 l 1,6,-1
 160 417 l 1,7,-1
 225 283 l 1,8,-1
 342 417 l 1,9,-1
 455 417 l 1,10,-1
 276 213 l 1,11,-1
 380 0 l 1,0,-1
EndSplineSet
EndChar
StartChar: Y
Encoding: 89 89 60
Width: 414
Flags: W
Fore
143 417 m 1,0,-1
 209 268 l 1,1,-1
 334 417 l 1,2,-1
 451 417 l 1,3,-1
 245 175 l 1,4,-1
 211 0 l 1,5,-1
 102 0 l 1,6,-1
 136 175 l 1,7,-1
 26 417 l 1,8,-1
 143 417 l 1,0,-1
EndSplineSet
EndChar
StartChar: Z
Encoding: 90 90 61
Width: 415
Flags: W
Fore
413 417 m 1,0,-1
 400 351 l 1,1,-1
 124 81 l 1,2,-1
 354 81 l 1,3,-1
 339 0 l 1,4,-1
 -24 0 l 1,5,-1
 -12 65 l 1,6,-1
 264 336 l 1,7,-1
 48 336 l 1,8,-1
 64 417 l 1,9,-1
 413 417 l 1,0,-1
EndSplineSet
EndChar
StartChar: bracketleft
Encoding: 91 91 62
Width: 261
Flags: W
Fore
257 435 m 1,0,-1
 245 371 l 1,1,-1
 167 371 l 1,2,-1
 92 -13 l 1,3,-1
 170 -13 l 1,4,-1
 158 -76 l 1,5,-1
 -16 -76 l 1,6,-1
 83 435 l 1,7,-1
 257 435 l 1,0,-1
EndSplineSet
EndChar
StartChar: backslash
Encoding: 92 92 63
Width: 209
Flags: W
Fore
31 417 m 1,0,-1
 93 417 l 1,1,-1
 148 -53 l 1,2,-1
 86 -53 l 1,3,-1
 31 417 l 1,0,-1
EndSplineSet
EndChar
StartChar: bracketright
Encoding: 93 93 64
Width: 261
Flags: W
Fore
-26 -76 m 1,0,-1
 -14 -13 l 1,1,-1
 65 -13 l 1,2,-1
 140 371 l 1,3,-1
 61 371 l 1,4,-1
 73 435 l 1,5,-1
 246 435 l 1,6,-1
 147 -76 l 1,7,-1
 -26 -76 l 1,0,-1
EndSplineSet
EndChar
StartChar: asciicircum
Encoding: 94 94 65
Width: 479
Flags: W
Fore
421 261 m 1,0,-1
 353 261 l 1,1,-1
 257 346 l 1,2,-1
 126 261 l 1,3,-1
 58 261 l 1,4,-1
 236 417 l 1,5,-1
 305 417 l 1,6,-1
 421 261 l 1,0,-1
EndSplineSet
EndChar
StartChar: underscore
Encoding: 95 95 66
Width: 286
Flags: W
Fore
209 -136 m 1,0,-1
 -76 -136 l 1,1,-1
 -65 -82 l 1,2,-1
 220 -82 l 1,3,-1
 209 -136 l 1,0,-1
EndSplineSet
EndChar
StartChar: grave
Encoding: 96 96 67
Width: 286
Flags: W
Fore
202 352 m 1,0,-1
 148 352 l 1,1,-1
 64 457 l 1,2,-1
 143 457 l 1,3,-1
 202 352 l 1,0,-1
EndSplineSet
EndChar
StartChar: a
Encoding: 97 97 68
Width: 386
Flags: W
Fore
165 141 m 1,0,1
 103 141 103 141 95 99 c 0,2,3
 91 80 91 80 101 69 c 128,-1,4
 111 58 111 58 134 58 c 0,5,6
 163 58 163 58 186.5 78.5 c 128,-1,7
 210 99 210 99 216 130 c 2,8,-1
 218 141 l 1,9,-1
 165 141 l 1,10,-1
 165 141 l 1,0,1
291 0 m 1,11,-1
 191 0 l 1,12,-1
 199 46 l 1,13,14
 173 18 173 18 145 5 c 128,-1,15
 117 -8 117 -8 81 -8 c 0,16,17
 33 -8 33 -8 8 20.5 c 128,-1,18
 -17 49 -17 49 -8 94 c 0,19,20
 3 149 3 149 45.5 174.5 c 128,-1,21
 88 200 88 200 169 200 c 2,22,-1
 229 200 l 1,23,-1
 231 208 l 2,24,25
 236 232 236 232 219 242.5 c 128,-1,26
 202 253 202 253 162 253 c 0,27,28
 130 253 130 253 101.5 247.5 c 128,-1,29
 73 242 73 242 46 228 c 1,30,-1
 61 305 l 1,31,32
 95 312 95 312 128 316 c 128,-1,33
 161 320 161 320 193 320 c 0,34,35
 278 320 278 320 309 286.5 c 128,-1,36
 340 253 340 253 325 178 c 2,37,-1
 291 0 l 1,11,-1
EndSplineSet
Substitution: 0 65534 'L019' uni0E38
Substitution: 0 65534 'L019' uni0E38
EndChar
StartChar: b
Encoding: 98 98 69
Width: 410
Flags: W
Fore
176 64 m 0,0,1
 243 64 243 64 261 156 c 0,2,3
 278 248 278 248 212 248 c 256,4,5
 146 248 146 248 129 156 c 0,6,7
 111 64 111 64 176 64 c 0,0,1
150 267 m 1,8,9
 197 320 197 320 263 320 c 0,10,11
 321 320 321 320 349 274.5 c 128,-1,12
 377 229 377 229 363 156 c 0,13,14
 356 120 356 120 340.5 90 c 128,-1,15
 325 60 325 60 303 38 c 128,-1,16
 281 16 281 16 254.5 4 c 128,-1,17
 228 -8 228 -8 199 -8 c 0,18,19
 134 -8 134 -8 107 45 c 1,20,-1
 99 0 l 1,21,-1
 -2 0 l 1,22,-1
 82 435 l 1,23,-1
 183 435 l 1,24,-1
 150 267 l 1,25,-1
 150 267 l 1,8,9
EndSplineSet
Substitution: 0 65534 'L019' uni0E39
Substitution: 0 65534 'L019' uni0E39
EndChar
StartChar: c
Encoding: 99 99 70
Width: 339
Flags: W
Fore
293 222 m 1,0,1
 276 236 276 236 257 242 c 128,-1,2
 238 248 238 248 215 248 c 0,3,4
 172 248 172 248 144.5 224.5 c 128,-1,5
 117 201 117 201 109 156 c 0,6,7
 100 111 100 111 118 87 c 128,-1,8
 136 63 136 63 179 63 c 0,9,10
 226 63 226 63 267 90 c 1,11,-1
 251 9 l 1,12,13
 226 0 226 0 201.5 -4 c 128,-1,14
 177 -8 177 -8 153 -8 c 0,15,16
 68 -8 68 -8 28.5 35 c 128,-1,17
 -11 78 -11 78 4 156 c 256,18,19
 19 234 19 234 75.5 277 c 128,-1,20
 132 320 132 320 217 320 c 0,21,22
 267 320 267 320 309 304 c 1,23,-1
 293 222 l 1,0,1
EndSplineSet
Substitution: 0 65534 'L019' uni0E3A
Substitution: 0 65534 'L019' uni0E3A
EndChar
StartChar: d
Encoding: 100 100 71
Width: 410
Flags: W
Fore
295 435 m 1,0,-1
 395 435 l 1,1,-1
 311 0 l 1,2,-1
 211 0 l 1,3,-1
 219 45 l 1,4,5
 169 -8 169 -8 106 -8 c 0,6,7
 77 -8 77 -8 55 4 c 128,-1,8
 33 16 33 16 20 38 c 128,-1,9
 7 60 7 60 3 90 c 128,-1,10
 -1 120 -1 120 6 156 c 256,11,12
 13 192 13 192 29 222.5 c 128,-1,13
 45 253 45 253 66.5 274.5 c 128,-1,14
 88 296 88 296 114.5 308 c 128,-1,15
 141 320 141 320 170 320 c 0,16,17
 233 320 233 320 262 267 c 1,18,-1
 295 435 l 1,0,-1
157 64 m 0,19,20
 223 64 223 64 241 156 c 0,21,22
 258 248 258 248 193 248 c 0,23,24
 127 248 127 248 110 156 c 0,25,26
 92 64 92 64 157 64 c 0,19,20
EndSplineSet
EndChar
StartChar: e
Encoding: 101 101 72
Width: 388
Flags: W
Fore
335 129 m 1,0,-1
 102 129 l 1,1,2
 93 58 93 58 174 58 c 0,3,4
 206 58 206 58 240.5 67.5 c 128,-1,5
 275 77 275 77 314 96 c 1,6,-1
 299 19 l 1,7,8
 261 5 261 5 224.5 -1.5 c 128,-1,9
 188 -8 188 -8 152 -8 c 0,10,11
 67 -8 67 -8 28 35 c 128,-1,12
 -11 78 -11 78 4 156 c 256,13,14
 19 234 19 234 74 277 c 128,-1,15
 129 320 129 320 210 320 c 0,16,17
 283 320 283 320 318.5 276 c 128,-1,18
 354 232 354 232 340 157 c 2,19,-1
 335 129 l 1,0,-1
243 190 m 1,20,21
 249 219 249 219 236.5 236 c 128,-1,22
 224 253 224 253 197 253 c 0,23,24
 135 253 135 253 114 190 c 1,25,-1
 243 190 l 1,26,-1
 243 190 l 1,20,21
EndSplineSet
EndChar
StartChar: f
Encoding: 102 102 73
Width: 248
Flags: W
Fore
274 369 m 1,0,-1
 220 369 l 2,1,2
 198 369 198 369 188 361 c 128,-1,3
 178 353 178 353 175 335 c 2,4,-1
 170 313 l 1,5,-1
 257 313 l 1,6,-1
 244 242 l 1,7,-1
 157 242 l 1,8,-1
 110 0 l 1,9,-1
 10 0 l 1,10,-1
 57 242 l 1,11,-1
 8 242 l 1,12,-1
 21 313 l 1,13,-1
 70 313 l 1,14,-1
 75 335 l 2,15,16
 94 435 94 435 211 435 c 2,17,-1
 287 435 l 1,18,-1
 274 369 l 1,0,-1
EndSplineSet
EndChar
StartChar: g
Encoding: 103 103 74
Width: 410
Flags: W
Fore
221 53 m 1,0,1
 171 0 171 0 108 0 c 0,2,3
 50 0 50 0 21 45 c 256,4,5
 -8 90 -8 90 7 160 c 0,6,7
 21 231 21 231 66 275 c 0,8,9
 113 320 113 320 170 320 c 0,10,11
 233 320 233 320 262 266 c 1,12,-1
 271 313 l 1,13,-1
 371 313 l 1,14,-1
 317 32 l 2,15,16
 302 -44 302 -44 246.5 -84 c 128,-1,17
 191 -124 191 -124 100 -124 c 0,18,19
 43 -124 43 -124 -7 -105 c 1,20,-1
 8 -27 l 1,21,22
 31 -43 31 -43 55 -50 c 128,-1,23
 79 -57 79 -57 104 -57 c 0,24,25
 153 -57 153 -57 180 -36.5 c 128,-1,26
 207 -16 207 -16 217 32 c 2,27,-1
 221 53 l 1,28,-1
 221 53 l 1,0,1
193 248 m 0,29,30
 162 248 162 248 140.5 225 c 128,-1,31
 119 202 119 202 111 160 c 0,32,33
 94 73 94 73 159 73 c 0,34,35
 191 73 191 73 212.5 95.5 c 128,-1,36
 234 118 234 118 242 160 c 256,37,38
 250 202 250 202 237.5 225 c 128,-1,39
 225 248 225 248 193 248 c 0,29,30
EndSplineSet
EndChar
StartChar: h
Encoding: 104 104 75
Width: 408
Flags: W
Fore
312 0 m 1,0,-1
 212 0 l 1,1,-1
 218 32 l 1,2,-1
 240 146 l 2,3,4
 244 166 244 166 246 179 c 128,-1,5
 248 192 248 192 248.5 201 c 128,-1,6
 249 210 249 210 248.5 215.5 c 128,-1,7
 248 221 248 221 246 225 c 0,8,9
 239 245 239 245 212 245 c 0,10,11
 181 245 181 245 158.5 220.5 c 128,-1,12
 136 196 136 196 128 153 c 2,13,-1
 99 0 l 1,14,-1
 -2 0 l 1,15,-1
 82 435 l 1,16,-1
 183 435 l 1,17,-1
 150 267 l 1,18,19
 202 320 202 320 264 320 c 0,20,21
 318 320 318 320 339.5 286.5 c 128,-1,22
 361 253 361 253 348 190 c 2,23,-1
 312 0 l 1,0,-1
EndSplineSet
EndChar
StartChar: i
Encoding: 105 105 76
Width: 195
Flags: W
Fore
159 313 m 1,0,-1
 99 0 l 1,1,-1
 -2 0 l 1,2,-1
 58 313 l 1,3,-1
 159 313 l 1,0,-1
183 435 m 1,4,-1
 167 352 l 1,5,-1
 66 352 l 1,6,-1
 82 435 l 1,7,-1
 183 435 l 1,4,-1
EndSplineSet
EndChar
StartChar: j
Encoding: 106 106 77
Width: 195
Flags: W
Fore
159 313 m 1,0,-1
 99 5 l 2,1,2
 87 -58 87 -58 49.5 -91 c 128,-1,3
 12 -124 12 -124 -45 -124 c 2,4,-1
 -93 -124 l 1,5,-1
 -80 -58 l 1,6,-1
 -62 -58 l 2,7,8
 -35 -58 -35 -58 -22 -45.5 c 128,-1,9
 -9 -33 -9 -33 -2 5 c 2,10,-1
 58 313 l 1,11,-1
 159 313 l 1,0,-1
183 435 m 1,12,-1
 167 352 l 1,13,-1
 66 352 l 1,14,-1
 82 435 l 1,15,-1
 183 435 l 1,12,-1
EndSplineSet
EndChar
StartChar: k
Encoding: 107 107 78
Width: 380
Flags: W
Fore
183 435 m 1,0,-1
 137 198 l 1,1,-1
 273 313 l 1,2,-1
 389 313 l 1,3,-1
 209 169 l 1,4,-1
 341 0 l 1,5,-1
 220 0 l 1,6,-1
 124 130 l 1,7,-1
 99 0 l 1,8,-1
 -2 0 l 1,9,-1
 82 435 l 1,10,-1
 183 435 l 1,0,-1
EndSplineSet
EndChar
StartChar: l
Encoding: 108 108 79
Width: 195
Flags: W
Fore
183 435 m 1,0,-1
 99 0 l 1,1,-1
 -2 0 l 1,2,-1
 82 435 l 1,3,-1
 183 435 l 1,0,-1
EndSplineSet
EndChar
StartChar: m
Encoding: 109 109 80
Width: 596
Flags: W
Fore
338 261 m 1,0,1
 362 290 362 290 392 305 c 128,-1,2
 422 320 422 320 452 320 c 0,3,4
 507 320 507 320 528.5 286.5 c 128,-1,5
 550 253 550 253 537 190 c 2,6,-1
 501 0 l 1,7,-1
 400 0 l 1,8,-1
 431 163 l 2,9,10
 432 166 432 166 433 170 c 128,-1,11
 434 174 434 174 436 182 c 0,12,13
 442 215 442 215 435.5 230 c 128,-1,14
 429 245 429 245 407 245 c 0,15,16
 346 245 346 245 328 153 c 2,17,-1
 299 0 l 1,18,-1
 198 0 l 1,19,-1
 229 163 l 2,20,21
 234 189 234 189 235.5 205 c 128,-1,22
 237 221 237 221 234 230 c 128,-1,23
 231 239 231 239 224 242 c 128,-1,24
 217 245 217 245 205 245 c 0,25,26
 146 245 146 245 128 153 c 2,27,-1
 99 0 l 1,28,-1
 -2 0 l 1,29,-1
 58 313 l 1,30,-1
 159 313 l 1,31,-1
 150 267 l 1,32,33
 195 320 195 320 256 320 c 0,34,35
 287 320 287 320 309 304.5 c 128,-1,36
 331 289 331 289 338 261 c 1,0,1
EndSplineSet
EndChar
StartChar: n
Encoding: 110 110 81
Width: 408
Flags: W
Fore
312 0 m 1,0,-1
 212 0 l 1,1,-1
 218 32 l 1,2,-1
 240 146 l 2,3,4
 244 166 244 166 246 179 c 128,-1,5
 248 192 248 192 248.5 201 c 128,-1,6
 249 210 249 210 248.5 215.5 c 128,-1,7
 248 221 248 221 246 225 c 0,8,9
 239 245 239 245 212 245 c 0,10,11
 181 245 181 245 158.5 220.5 c 128,-1,12
 136 196 136 196 128 153 c 2,13,-1
 99 0 l 1,14,-1
 -2 0 l 1,15,-1
 58 313 l 1,16,-1
 159 313 l 1,17,-1
 150 267 l 1,18,19
 202 320 202 320 264 320 c 0,20,21
 318 320 318 320 339.5 286.5 c 128,-1,22
 361 253 361 253 348 190 c 2,23,-1
 312 0 l 1,0,-1
EndSplineSet
EndChar
StartChar: o
Encoding: 111 111 82
Width: 393
Flags: W
Fore
194 248 m 0,0,1
 126 248 126 248 109 156 c 0,2,3
 100 111 100 111 112.5 87 c 128,-1,4
 125 63 125 63 158 63 c 0,5,6
 192 63 192 63 213.5 87 c 128,-1,7
 235 111 235 111 244 156 c 0,8,9
 261 248 261 248 194 248 c 0,0,1
208 320 m 256,10,11
 289 320 289 320 326 277 c 128,-1,12
 363 234 363 234 348 156 c 256,13,14
 333 78 333 78 279 35 c 128,-1,15
 225 -8 225 -8 144 -8 c 256,16,17
 63 -8 63 -8 26 35 c 128,-1,18
 -11 78 -11 78 4 156 c 256,19,20
 19 234 19 234 73 277 c 128,-1,21
 127 320 127 320 208 320 c 256,10,11
EndSplineSet
EndChar
StartChar: p
Encoding: 112 112 83
Width: 410
Flags: W
Fore
75 -119 m 1,0,-1
 -26 -119 l 1,1,-1
 58 313 l 1,2,-1
 159 313 l 1,3,-1
 150 267 l 1,4,5
 197 320 197 320 263 320 c 0,6,7
 321 320 321 320 349 274.5 c 128,-1,8
 377 229 377 229 363 156 c 0,9,10
 356 120 356 120 340.5 90 c 128,-1,11
 325 60 325 60 303 38 c 128,-1,12
 281 16 281 16 254.5 4 c 128,-1,13
 228 -8 228 -8 199 -8 c 0,14,15
 134 -8 134 -8 107 45 c 1,16,-1
 75 -119 l 1,0,-1
212 248 m 256,17,18
 146 248 146 248 129 156 c 0,19,20
 111 64 111 64 176 64 c 0,21,22
 243 64 243 64 261 156 c 0,23,24
 278 248 278 248 212 248 c 256,17,18
EndSplineSet
EndChar
StartChar: q
Encoding: 113 113 84
Width: 410
Flags: W
Fore
193 248 m 0,0,1
 127 248 127 248 110 156 c 0,2,3
 92 64 92 64 157 64 c 0,4,5
 223 64 223 64 241 156 c 0,6,7
 258 248 258 248 193 248 c 0,0,1
219 45 m 1,8,9
 169 -8 169 -8 106 -8 c 0,10,11
 77 -8 77 -8 55 4 c 128,-1,12
 33 16 33 16 20 38 c 128,-1,13
 7 60 7 60 3 90 c 128,-1,14
 -1 120 -1 120 6 156 c 256,15,16
 13 192 13 192 29 222.5 c 128,-1,17
 45 253 45 253 66.5 274.5 c 128,-1,18
 88 296 88 296 114.5 308 c 128,-1,19
 141 320 141 320 170 320 c 0,20,21
 233 320 233 320 262 266 c 1,22,-1
 271 313 l 1,23,-1
 371 313 l 1,24,-1
 287 -119 l 1,25,-1
 187 -119 l 1,26,-1
 219 45 l 1,27,-1
 219 45 l 1,8,9
EndSplineSet
EndChar
StartChar: r
Encoding: 114 114 85
Width: 282
Flags: W
Fore
275 228 m 1,0,1
 261 234 261 234 249.5 237 c 128,-1,2
 238 240 238 240 224 240 c 0,3,4
 185 240 185 240 160 215 c 128,-1,5
 135 190 135 190 127 145 c 2,6,-1
 99 0 l 1,7,-1
 -2 0 l 1,8,-1
 58 313 l 1,9,-1
 159 313 l 1,10,-1
 149 261 l 1,11,12
 173 292 173 292 201 306 c 128,-1,13
 229 320 229 320 264 320 c 0,14,15
 269 320 269 320 275 319.5 c 128,-1,16
 281 319 281 319 292 318 c 1,17,-1
 275 228 l 1,18,-1
 275 228 l 1,0,1
EndSplineSet
EndChar
StartChar: s
Encoding: 115 115 86
Width: 340
Flags: W
Fore
286 227 m 1,0,1
 256 241 256 241 228 247 c 128,-1,2
 200 253 200 253 172 253 c 0,3,4
 117 253 117 253 111 225 c 0,5,6
 109 213 109 213 118.5 206.5 c 128,-1,7
 128 200 128 200 154 196 c 2,8,-1
 170 194 l 2,9,10
 247 185 247 185 267 163 c 0,11,12
 290 140 290 140 280 92 c 0,13,14
 262 -8 262 -8 114 -8 c 0,15,16
 84 -8 84 -8 51 -3.5 c 128,-1,17
 18 1 18 1 -13 12 c 1,18,-1
 1 87 l 1,19,20
 56 58 56 58 120 58 c 0,21,22
 180 58 180 58 186 90 c 0,23,24
 189 104 189 104 179.5 110.5 c 128,-1,25
 170 117 170 117 140 121 c 2,26,-1
 122 123 l 2,27,28
 58 131 58 131 35.5 154 c 128,-1,29
 13 177 13 177 22 223 c 0,30,31
 40 320 40 320 180 320 c 0,32,33
 234 320 234 320 301 304 c 1,34,-1
 286 227 l 1,0,1
EndSplineSet
EndChar
StartChar: t
Encoding: 116 116 87
Width: 273
Flags: W
Fore
167 313 m 1,0,-1
 270 313 l 1,1,-1
 257 242 l 1,2,-1
 154 242 l 1,3,-1
 127 108 l 2,4,5
 123 86 123 86 130 78.5 c 128,-1,6
 137 71 137 71 163 71 c 2,7,-1
 214 71 l 1,8,-1
 201 0 l 1,9,-1
 116 0 l 2,10,11
 56 0 56 0 36 24 c 128,-1,12
 16 48 16 48 27 108 c 2,13,-1
 54 242 l 1,14,-1
 4 242 l 1,15,-1
 17 313 l 1,16,-1
 67 313 l 1,17,-1
 84 401 l 1,18,-1
 184 401 l 1,19,-1
 167 313 l 1,0,-1
EndSplineSet
EndChar
StartChar: u
Encoding: 117 117 88
Width: 408
Flags: W
Fore
55 313 m 1,0,-1
 156 313 l 1,1,-1
 150 282 l 2,2,3
 148 268 148 268 145 252 c 128,-1,4
 142 236 142 236 137 217 c 2,5,-1
 127 166 l 2,6,7
 119 129 119 129 118 112.5 c 128,-1,8
 117 96 117 96 118 87 c 1,9,10
 130 67 130 67 155 67 c 0,11,12
 187 67 187 67 208.5 91.5 c 128,-1,13
 230 116 230 116 238 158 c 2,14,-1
 268 313 l 1,15,-1
 368 313 l 1,16,-1
 308 0 l 1,17,-1
 208 0 l 1,18,-1
 216 45 l 1,19,20
 164 -8 164 -8 102 -8 c 0,21,22
 50 -8 50 -8 28 25 c 128,-1,23
 6 58 6 58 18 122 c 2,24,-1
 55 313 l 1,0,-1
EndSplineSet
EndChar
StartChar: v
Encoding: 118 118 89
Width: 372
Flags: W
Fore
118 313 m 1,0,-1
 154 97 l 1,1,-1
 274 313 l 1,2,-1
 375 313 l 1,3,-1
 192 0 l 1,4,-1
 81 0 l 1,5,-1
 18 313 l 1,6,-1
 118 313 l 1,0,-1
EndSplineSet
EndChar
StartChar: w
Encoding: 119 119 90
Width: 528
Flags: W
Fore
128 313 m 1,0,-1
 137 97 l 1,1,-1
 233 313 l 1,2,-1
 316 313 l 1,3,-1
 327 100 l 1,4,-1
 422 313 l 1,5,-1
 518 313 l 1,6,-1
 377 0 l 1,7,-1
 267 0 l 1,8,-1
 255 215 l 1,9,-1
 162 0 l 1,10,-1
 53 0 l 1,11,-1
 31 313 l 1,12,-1
 128 313 l 1,0,-1
EndSplineSet
EndChar
StartChar: x
Encoding: 120 120 91
Width: 369
Flags: W
Fore
25 313 m 1,0,-1
 131 313 l 1,1,-1
 176 220 l 1,2,-1
 258 313 l 1,3,-1
 364 313 l 1,4,-1
 223 160 l 1,5,-1
 310 0 l 1,6,-1
 204 0 l 1,7,-1
 153 99 l 1,8,-1
 65 0 l 1,9,-1
 -42 0 l 1,10,-1
 108 160 l 1,11,-1
 25 313 l 1,0,-1
EndSplineSet
EndChar
StartChar: y
Encoding: 121 121 92
Width: 372
Flags: W
Fore
117 313 m 1,0,-1
 160 101 l 1,1,-1
 272 313 l 1,2,-1
 372 313 l 1,3,-1
 175 -29 l 2,4,5
 144 -82 144 -82 113.5 -103 c 128,-1,6
 83 -124 83 -124 41 -124 c 2,7,-1
 -18 -124 l 1,8,-1
 -5 -58 l 1,9,-1
 26 -58 l 2,10,11
 51 -58 51 -58 65 -50 c 128,-1,12
 79 -42 79 -42 89 -21 c 2,13,-1
 94 -13 l 1,14,-1
 17 313 l 1,15,-1
 117 313 l 1,0,-1
EndSplineSet
EndChar
StartChar: z
Encoding: 122 122 93
Width: 333
Flags: W
Fore
316 313 m 1,0,-1
 303 244 l 1,1,-1
 104 71 l 1,2,-1
 269 71 l 1,3,-1
 256 0 l 1,4,-1
 -24 0 l 1,5,-1
 -11 69 l 1,6,-1
 187 242 l 1,7,-1
 30 242 l 1,8,-1
 43 313 l 1,9,-1
 316 313 l 1,0,-1
EndSplineSet
EndChar
StartChar: braceleft
Encoding: 123 123 94
Width: 408
Flags: W
Fore
267 -94 m 1,0,-1
 206 -94 l 2,1,2
 145 -94 145 -94 121.5 -69.5 c 128,-1,3
 98 -45 98 -45 109 9 c 2,4,-1
 120 63 l 2,5,6
 128 105 128 105 116.5 122 c 128,-1,7
 105 139 105 139 65 139 c 2,8,-1
 48 139 l 1,9,-1
 59 200 l 1,10,-1
 76 200 l 2,11,12
 116 200 116 200 134.5 216 c 128,-1,13
 153 232 153 232 161 274 c 2,14,-1
 172 332 l 2,15,16
 183 386 183 386 215.5 410.5 c 128,-1,17
 248 435 248 435 309 435 c 2,18,-1
 370 435 l 1,19,-1
 358 371 l 1,20,-1
 338 371 l 2,21,22
 319 371 319 371 306 368.5 c 128,-1,23
 293 366 293 366 284.5 359 c 128,-1,24
 276 352 276 352 271 340 c 128,-1,25
 266 328 266 328 262 308 c 2,26,-1
 253 261 l 2,27,28
 245 216 245 216 228.5 197 c 128,-1,29
 212 178 212 178 181 171 c 1,30,31
 210 163 210 163 218.5 143.5 c 128,-1,32
 227 124 227 124 218 80 c 2,33,-1
 209 35 l 2,34,35
 205 14 205 14 205.5 1.5 c 128,-1,36
 206 -11 206 -11 211.5 -18 c 128,-1,37
 217 -25 217 -25 229 -27.5 c 128,-1,38
 241 -30 241 -30 260 -30 c 2,39,-1
 280 -30 l 1,40,-1
 267 -94 l 1,0,-1
EndSplineSet
EndChar
StartChar: bar
Encoding: 124 124 95
Width: 209
Flags: W
Fore
60 -136 m 1,0,-1
 -4 -136 l 1,1,-1
 107 437 l 1,2,-1
 171 437 l 1,3,-1
 60 -136 l 1,0,-1
EndSplineSet
EndChar
StartChar: braceright
Encoding: 125 125 96
Width: 408
Flags: W
Fore
34 -30 m 2,0,1
 54 -30 54 -30 66.5 -27.5 c 128,-1,2
 79 -25 79 -25 87.5 -18 c 128,-1,3
 96 -11 96 -11 100.5 1.5 c 128,-1,4
 105 14 105 14 109 35 c 2,5,-1
 118 80 l 2,6,7
 127 124 127 124 144 143.5 c 128,-1,8
 161 163 161 163 193 171 c 1,9,10
 163 178 163 178 154 197 c 128,-1,11
 145 216 145 216 153 261 c 2,12,-1
 162 308 l 2,13,14
 166 328 166 328 166 340 c 128,-1,15
 166 352 166 352 160.5 359 c 128,-1,16
 155 366 155 366 143.5 368.5 c 128,-1,17
 132 371 132 371 112 371 c 2,18,-1
 93 371 l 1,19,-1
 105 435 l 1,20,-1
 166 435 l 2,21,22
 227 435 227 435 250 410.5 c 128,-1,23
 273 386 273 386 262 332 c 2,24,-1
 251 274 l 2,25,26
 243 232 243 232 254 216 c 128,-1,27
 265 200 265 200 307 200 c 2,28,-1
 324 200 l 1,29,-1
 313 139 l 1,30,-1
 296 139 l 2,31,32
 255 139 255 139 236.5 122 c 128,-1,33
 218 105 218 105 210 63 c 2,34,-1
 199 9 l 2,35,36
 188 -45 188 -45 156 -69.5 c 128,-1,37
 124 -94 124 -94 63 -94 c 2,38,-1
 2 -94 l 1,39,-1
 15 -30 l 1,40,-1
 34 -30 l 2,0,1
EndSplineSet
EndChar
StartChar: asciitilde
Encoding: 126 126 97
Width: 479
Flags: W
Fore
400 169 m 1,0,1
 367 147 367 147 340 137.5 c 128,-1,2
 313 128 313 128 286 128 c 0,3,4
 255 128 255 128 220 144 c 0,5,6
 218 145 218 145 216.5 145.5 c 128,-1,7
 215 146 215 146 214 147 c 1,8,9
 208 149 l 2,10,11
 168 166 168 166 142 166 c 0,12,13
 119 166 119 166 92 155.5 c 128,-1,14
 65 145 65 145 33 122 c 1,15,-1
 46 189 l 1,16,17
 81 212 81 212 108 221.5 c 128,-1,18
 135 231 135 231 161 231 c 0,19,20
 192 231 192 231 228 215 c 0,21,22
 234 213 234 213 235 212 c 1,23,24
 239 210 l 2,25,26
 281 193 281 193 306 193 c 256,27,28
 331 193 331 193 356.5 203.5 c 128,-1,29
 382 214 382 214 414 238 c 1,30,-1
 400 169 l 1,0,1
EndSplineSet
EndChar
StartChar: Adieresis
Encoding: 196 196 98
Width: 443
Flags: W
Fore
102 76 m 1,0,-1
 60 0 l 1,1,-1
 -47 0 l 1,2,-1
 188 417 l 1,3,-1
 316 417 l 1,4,-1
 390 0 l 1,5,-1
 282 0 l 1,6,-1
 270 76 l 1,7,-1
 102 76 l 1,0,-1
257 152 m 1,8,-1
 234 319 l 1,9,-1
 143 152 l 1,10,-1
 257 152 l 1,8,-1
245 531 m 1,11,-1
 231 461 l 1,12,-1
 165 461 l 1,13,-1
 179 531 l 1,14,-1
 245 531 l 1,11,-1
355 531 m 1,15,-1
 341 461 l 1,16,-1
 275 461 l 1,17,-1
 289 531 l 1,18,-1
 355 531 l 1,15,-1
EndSplineSet
EndChar
StartChar: Aring
Encoding: 197 197 99
Width: 443
Flags: W
Fore
390 0 m 1,0,-1
 282 0 l 1,1,-1
 270 76 l 1,2,-1
 102 76 l 1,3,-1
 60 0 l 1,4,-1
 -47 0 l 1,5,-1
 182 409 l 1,6,7
 180 418 180 418 178.5 428.5 c 128,-1,8
 177 439 177 439 179 451 c 0,9,10
 182 467 182 467 191.5 481.5 c 128,-1,11
 201 496 201 496 213.5 507.5 c 128,-1,12
 226 519 226 519 242 525.5 c 128,-1,13
 258 532 258 532 275 532 c 0,14,15
 290 532 290 532 303 525.5 c 128,-1,16
 316 519 316 519 324.5 507.5 c 128,-1,17
 333 496 333 496 336.5 481.5 c 128,-1,18
 340 467 340 467 337 451 c 0,19,20
 333 426 333 426 317 409 c 1,21,-1
 390 0 l 1,0,-1
222 451 m 256,22,23
 219 436 219 436 227.5 425.5 c 128,-1,24
 236 415 236 415 252 415 c 0,25,26
 267 415 267 415 279 425.5 c 128,-1,27
 291 436 291 436 294 451 c 256,28,29
 297 466 297 466 288.5 476.5 c 128,-1,30
 280 487 280 487 266 487 c 0,31,32
 250 487 250 487 237.5 476.5 c 128,-1,33
 225 466 225 466 222 451 c 256,22,23
257 152 m 1,34,-1
 234 319 l 1,35,-1
 143 152 l 1,36,-1
 257 152 l 1,34,-1
EndSplineSet
EndChar
StartChar: Ccedilla
Encoding: 199 199 100
Width: 420
Flags: W
Fore
337 23 m 1,0,1
 272 -8 272 -8 202 -8 c 0,2,3
 150 -8 150 -8 111 7 c 128,-1,4
 72 22 72 22 48 50 c 128,-1,5
 24 78 24 78 16 118 c 128,-1,6
 8 158 8 158 18 208 c 0,7,8
 38 308 38 308 109.5 366 c 128,-1,9
 181 424 181 424 286 424 c 0,10,11
 356 424 356 424 409 393 c 1,12,-1
 392 307 l 1,13,14
 366 328 366 328 339 337.5 c 128,-1,15
 312 347 312 347 280 347 c 0,16,17
 223 347 223 347 182.5 309.5 c 128,-1,18
 142 272 142 272 130 208 c 0,19,20
 117 144 117 144 143 106.5 c 128,-1,21
 169 69 169 69 226 69 c 0,22,23
 258 69 258 69 288.5 78.5 c 128,-1,24
 319 88 319 88 354 109 c 1,25,-1
 337 23 l 1,26,-1
 337 23 l 1,0,1
222 0 m 1,27,28
 246 -36 246 -36 242 -60 c 0,29,30
 232 -112 232 -112 162 -112 c 0,31,32
 149 -112 149 -112 134 -110 c 128,-1,33
 119 -108 119 -108 107 -105 c 1,34,-1
 114 -62 l 1,35,36
 143 -70 143 -70 160 -70 c 0,37,38
 192 -70 192 -70 197 -47 c 0,39,40
 200 -33 200 -33 184 0 c 1,41,-1
 222 0 l 1,42,-1
 222 0 l 1,27,28
EndSplineSet
EndChar
StartChar: Eacute
Encoding: 201 201 101
Width: 390
Flags: W
Fore
375 417 m 1,0,-1
 359 336 l 1,1,-1
 175 336 l 1,2,-1
 159 257 l 1,3,-1
 331 257 l 1,4,-1
 316 177 l 1,5,-1
 144 177 l 1,6,-1
 125 81 l 1,7,-1
 313 81 l 1,8,-1
 298 0 l 1,9,-1
 2 0 l 1,10,-1
 83 417 l 1,11,-1
 375 417 l 1,0,-1
339 531 m 1,12,-1
 245 456 l 1,13,-1
 190 456 l 1,14,-1
 260 531 l 1,15,-1
 339 531 l 1,12,-1
EndSplineSet
EndChar
StartChar: Ntilde
Encoding: 209 209 102
Width: 478
Flags: W
Fore
203 417 m 1,0,-1
 300 131 l 1,1,-1
 356 417 l 1,2,-1
 458 417 l 1,3,-1
 377 0 l 1,4,-1
 256 0 l 1,5,-1
 158 286 l 1,6,-1
 103 0 l 1,7,-1
 2 0 l 1,8,-1
 83 417 l 1,9,-1
 203 417 l 1,0,-1
257 479 m 2,10,11
 256 480 256 480 255.5 480 c 128,-1,12
 255 480 255 480 254 481 c 0,13,14
 241 489 241 489 236 489 c 0,15,16
 227 489 227 489 219.5 480.5 c 128,-1,17
 212 472 212 472 209 457 c 1,18,-1
 209 456 l 1,19,-1
 170 456 l 1,20,-1
 172 464 l 2,21,22
 177 494 177 494 196 512.5 c 128,-1,23
 215 531 215 531 240 531 c 0,24,25
 257 531 257 531 279 517 c 2,26,-1
 293 506 l 2,27,28
 304 498 304 498 312 498 c 0,29,30
 322 498 322 498 330 506.5 c 128,-1,31
 338 515 338 515 341 531 c 1,32,-1
 380 531 l 1,33,34
 379 529 379 529 378 526 c 128,-1,35
 377 523 377 523 377 522 c 0,36,37
 371 493 371 493 352.5 474.5 c 128,-1,38
 334 456 334 456 309 456 c 0,39,40
 298 456 298 456 288.5 459 c 128,-1,41
 279 462 279 462 271 470 c 1,42,-1
 257 479 l 2,10,11
EndSplineSet
EndChar
StartChar: Odieresis
Encoding: 214 214 103
Width: 486
Flags: W
Fore
261 347 m 0,0,1
 210 347 210 347 176.5 310.5 c 128,-1,2
 143 274 143 274 130 208 c 256,3,4
 117 142 117 142 136.5 105.5 c 128,-1,5
 156 69 156 69 207 69 c 0,6,7
 255 69 255 69 289.5 105.5 c 128,-1,8
 324 142 324 142 337 208 c 256,9,10
 350 274 350 274 329.5 310.5 c 128,-1,11
 309 347 309 347 261 347 c 0,0,1
276 424 m 256,12,13
 378 424 378 424 422.5 367 c 128,-1,14
 467 310 467 310 447 208 c 256,15,16
 427 106 427 106 360.5 49 c 128,-1,17
 294 -8 294 -8 192 -8 c 256,18,19
 90 -8 90 -8 44 49 c 128,-1,20
 -2 106 -2 106 18 208 c 256,21,22
 38 310 38 310 106 367 c 128,-1,23
 174 424 174 424 276 424 c 256,12,13
268 531 m 1,24,-1
 254 461 l 1,25,-1
 188 461 l 1,26,-1
 202 531 l 1,27,-1
 268 531 l 1,24,-1
378 531 m 1,28,-1
 364 461 l 1,29,-1
 298 461 l 1,30,-1
 312 531 l 1,31,-1
 378 531 l 1,28,-1
EndSplineSet
EndChar
StartChar: Udieresis
Encoding: 220 220 104
Width: 464
Flags: W
Fore
191 417 m 1,0,-1
 142 167 l 2,1,2
 132 116 132 116 144.5 93 c 128,-1,3
 157 70 157 70 195 70 c 256,4,5
 233 70 233 70 255 93 c 128,-1,6
 277 116 277 116 287 167 c 2,7,-1
 336 417 l 1,8,-1
 443 417 l 1,9,-1
 394 167 l 2,10,11
 377 79 377 79 325 35.5 c 128,-1,12
 273 -8 273 -8 180 -8 c 0,13,14
 0 -8 0 -8 34 167 c 2,15,-1
 83 417 l 1,16,-1
 191 417 l 1,0,-1
256 531 m 1,17,-1
 242 461 l 1,18,-1
 176 461 l 1,19,-1
 190 531 l 1,20,-1
 256 531 l 1,17,-1
366 531 m 1,21,-1
 352 461 l 1,22,-1
 286 461 l 1,23,-1
 300 531 l 1,24,-1
 366 531 l 1,21,-1
EndSplineSet
EndChar
StartChar: aacute
Encoding: 225 225 105
Width: 386
Flags: W
Fore
165 141 m 1,0,1
 103 141 103 141 95 99 c 0,2,3
 91 80 91 80 101 69 c 128,-1,4
 111 58 111 58 134 58 c 0,5,6
 163 58 163 58 186.5 78.5 c 128,-1,7
 210 99 210 99 216 130 c 2,8,-1
 218 141 l 1,9,-1
 165 141 l 1,10,-1
 165 141 l 1,0,1
291 0 m 1,11,-1
 191 0 l 1,12,-1
 199 46 l 1,13,14
 173 18 173 18 145 5 c 128,-1,15
 117 -8 117 -8 81 -8 c 0,16,17
 33 -8 33 -8 8 20.5 c 128,-1,18
 -17 49 -17 49 -8 94 c 0,19,20
 3 149 3 149 45.5 174.5 c 128,-1,21
 88 200 88 200 169 200 c 2,22,-1
 229 200 l 1,23,-1
 231 208 l 2,24,25
 236 232 236 232 219 242.5 c 128,-1,26
 202 253 202 253 162 253 c 0,27,28
 130 253 130 253 101.5 247.5 c 128,-1,29
 73 242 73 242 46 228 c 1,30,-1
 61 305 l 1,31,32
 95 312 95 312 128 316 c 128,-1,33
 161 320 161 320 193 320 c 0,34,35
 278 320 278 320 309 286.5 c 128,-1,36
 340 253 340 253 325 178 c 2,37,-1
 291 0 l 1,11,-1
350 457 m 1,38,-1
 227 352 l 1,39,-1
 172 352 l 1,40,-1
 271 457 l 1,41,-1
 350 457 l 1,38,-1
EndSplineSet
EndChar
StartChar: agrave
Encoding: 224 224 106
Width: 386
Flags: W
Fore
165 141 m 1,0,1
 103 141 103 141 95 99 c 0,2,3
 91 80 91 80 101 69 c 128,-1,4
 111 58 111 58 134 58 c 0,5,6
 163 58 163 58 186.5 78.5 c 128,-1,7
 210 99 210 99 216 130 c 2,8,-1
 218 141 l 1,9,-1
 165 141 l 1,10,-1
 165 141 l 1,0,1
291 0 m 1,11,-1
 191 0 l 1,12,-1
 199 46 l 1,13,14
 173 18 173 18 145 5 c 128,-1,15
 117 -8 117 -8 81 -8 c 0,16,17
 33 -8 33 -8 8 20.5 c 128,-1,18
 -17 49 -17 49 -8 94 c 0,19,20
 3 149 3 149 45.5 174.5 c 128,-1,21
 88 200 88 200 169 200 c 2,22,-1
 229 200 l 1,23,-1
 231 208 l 2,24,25
 236 232 236 232 219 242.5 c 128,-1,26
 202 253 202 253 162 253 c 0,27,28
 130 253 130 253 101.5 247.5 c 128,-1,29
 73 242 73 242 46 228 c 1,30,-1
 61 305 l 1,31,32
 95 312 95 312 128 316 c 128,-1,33
 161 320 161 320 193 320 c 0,34,35
 278 320 278 320 309 286.5 c 128,-1,36
 340 253 340 253 325 178 c 2,37,-1
 291 0 l 1,11,-1
254 352 m 1,38,-1
 200 352 l 1,39,-1
 116 457 l 1,40,-1
 195 457 l 1,41,-1
 254 352 l 1,38,-1
EndSplineSet
EndChar
StartChar: acircumflex
Encoding: 226 226 107
Width: 386
Flags: W
Fore
165 141 m 1,0,1
 103 141 103 141 95 99 c 0,2,3
 91 80 91 80 101 69 c 128,-1,4
 111 58 111 58 134 58 c 0,5,6
 163 58 163 58 186.5 78.5 c 128,-1,7
 210 99 210 99 216 130 c 2,8,-1
 218 141 l 1,9,-1
 165 141 l 1,10,-1
 165 141 l 1,0,1
291 0 m 1,11,-1
 191 0 l 1,12,-1
 199 46 l 1,13,14
 173 18 173 18 145 5 c 128,-1,15
 117 -8 117 -8 81 -8 c 0,16,17
 33 -8 33 -8 8 20.5 c 128,-1,18
 -17 49 -17 49 -8 94 c 0,19,20
 3 149 3 149 45.5 174.5 c 128,-1,21
 88 200 88 200 169 200 c 2,22,-1
 229 200 l 1,23,-1
 231 208 l 2,24,25
 236 232 236 232 219 242.5 c 128,-1,26
 202 253 202 253 162 253 c 0,27,28
 130 253 130 253 101.5 247.5 c 128,-1,29
 73 242 73 242 46 228 c 1,30,-1
 61 305 l 1,31,32
 95 312 95 312 128 316 c 128,-1,33
 161 320 161 320 193 320 c 0,34,35
 278 320 278 320 309 286.5 c 128,-1,36
 340 253 340 253 325 178 c 2,37,-1
 291 0 l 1,11,-1
267 457 m 1,38,-1
 318 352 l 1,39,-1
 269 352 l 1,40,-1
 226 415 l 1,41,-1
 157 352 l 1,42,-1
 108 352 l 1,43,-1
 199 457 l 1,44,-1
 267 457 l 1,38,-1
EndSplineSet
EndChar
StartChar: adieresis
Encoding: 228 228 108
Width: 386
Flags: W
Fore
165 141 m 1,0,1
 103 141 103 141 95 99 c 0,2,3
 91 80 91 80 101 69 c 128,-1,4
 111 58 111 58 134 58 c 0,5,6
 163 58 163 58 186.5 78.5 c 128,-1,7
 210 99 210 99 216 130 c 2,8,-1
 218 141 l 1,9,-1
 165 141 l 1,10,-1
 165 141 l 1,0,1
291 0 m 1,11,-1
 191 0 l 1,12,-1
 199 46 l 1,13,14
 173 18 173 18 145 5 c 128,-1,15
 117 -8 117 -8 81 -8 c 0,16,17
 33 -8 33 -8 8 20.5 c 128,-1,18
 -17 49 -17 49 -8 94 c 0,19,20
 3 149 3 149 45.5 174.5 c 128,-1,21
 88 200 88 200 169 200 c 2,22,-1
 229 200 l 1,23,-1
 231 208 l 2,24,25
 236 232 236 232 219 242.5 c 128,-1,26
 202 253 202 253 162 253 c 0,27,28
 130 253 130 253 101.5 247.5 c 128,-1,29
 73 242 73 242 46 228 c 1,30,-1
 61 305 l 1,31,32
 95 312 95 312 128 316 c 128,-1,33
 161 320 161 320 193 320 c 0,34,35
 278 320 278 320 309 286.5 c 128,-1,36
 340 253 340 253 325 178 c 2,37,-1
 291 0 l 1,11,-1
209 443 m 1,38,-1
 195 373 l 1,39,-1
 129 373 l 1,40,-1
 143 443 l 1,41,-1
 209 443 l 1,38,-1
319 443 m 1,42,-1
 305 373 l 1,43,-1
 239 373 l 1,44,-1
 253 443 l 1,45,-1
 319 443 l 1,42,-1
EndSplineSet
EndChar
StartChar: atilde
Encoding: 227 227 109
Width: 386
Flags: W
Fore
165 141 m 1,0,1
 103 141 103 141 95 99 c 0,2,3
 91 80 91 80 101 69 c 128,-1,4
 111 58 111 58 134 58 c 0,5,6
 163 58 163 58 186.5 78.5 c 128,-1,7
 210 99 210 99 216 130 c 2,8,-1
 218 141 l 1,9,-1
 165 141 l 1,10,-1
 165 141 l 1,0,1
291 0 m 1,11,-1
 191 0 l 1,12,-1
 199 46 l 1,13,14
 173 18 173 18 145 5 c 128,-1,15
 117 -8 117 -8 81 -8 c 0,16,17
 33 -8 33 -8 8 20.5 c 128,-1,18
 -17 49 -17 49 -8 94 c 0,19,20
 3 149 3 149 45.5 174.5 c 128,-1,21
 88 200 88 200 169 200 c 2,22,-1
 229 200 l 1,23,-1
 231 208 l 2,24,25
 236 232 236 232 219 242.5 c 128,-1,26
 202 253 202 253 162 253 c 0,27,28
 130 253 130 253 101.5 247.5 c 128,-1,29
 73 242 73 242 46 228 c 1,30,-1
 61 305 l 1,31,32
 95 312 95 312 128 316 c 128,-1,33
 161 320 161 320 193 320 c 0,34,35
 278 320 278 320 309 286.5 c 128,-1,36
 340 253 340 253 325 178 c 2,37,-1
 291 0 l 1,11,-1
206 391 m 1,38,-1
 204 393 l 1,39,40
 191 401 191 401 184 401 c 0,41,42
 165 401 165 401 158 368 c 1,43,-1
 158 366 l 1,44,-1
 119 366 l 1,45,46
 126 403 126 403 144.5 424 c 128,-1,47
 163 445 163 445 189 445 c 0,48,49
 205 445 205 445 228 430 c 1,50,-1
 242 417 l 2,51,52
 253 409 253 409 261 409 c 0,53,54
 271 409 271 409 279 418 c 128,-1,55
 287 427 287 427 289 442 c 1,56,-1
 290 444 l 1,57,-1
 329 444 l 1,58,59
 321 407 321 407 302 386 c 128,-1,60
 283 365 283 365 257 365 c 0,61,62
 246 365 246 365 238 368 c 128,-1,63
 230 371 230 371 219 380 c 2,64,-1
 206 391 l 1,38,-1
EndSplineSet
EndChar
StartChar: aring
Encoding: 229 229 110
Width: 386
Flags: W
Fore
165 141 m 1,0,1
 103 141 103 141 95 99 c 0,2,3
 91 80 91 80 101 69 c 128,-1,4
 111 58 111 58 134 58 c 0,5,6
 163 58 163 58 186.5 78.5 c 128,-1,7
 210 99 210 99 216 130 c 2,8,-1
 218 141 l 1,9,-1
 165 141 l 1,10,-1
 165 141 l 1,0,1
291 0 m 1,11,-1
 191 0 l 1,12,-1
 199 46 l 1,13,14
 173 18 173 18 145 5 c 128,-1,15
 117 -8 117 -8 81 -8 c 0,16,17
 33 -8 33 -8 8 20.5 c 128,-1,18
 -17 49 -17 49 -8 94 c 0,19,20
 3 149 3 149 45.5 174.5 c 128,-1,21
 88 200 88 200 169 200 c 2,22,-1
 229 200 l 1,23,-1
 231 208 l 2,24,25
 236 232 236 232 219 242.5 c 128,-1,26
 202 253 202 253 162 253 c 0,27,28
 130 253 130 253 101.5 247.5 c 128,-1,29
 73 242 73 242 46 228 c 1,30,-1
 61 305 l 1,31,32
 95 312 95 312 128 316 c 128,-1,33
 161 320 161 320 193 320 c 0,34,35
 278 320 278 320 309 286.5 c 128,-1,36
 340 253 340 253 325 178 c 2,37,-1
 291 0 l 1,11,-1
192 429 m 0,38,39
 189 413 189 413 197.5 402.5 c 128,-1,40
 206 392 206 392 222 392 c 0,41,42
 236 392 236 392 249 402.5 c 128,-1,43
 262 413 262 413 265 429 c 0,44,45
 268 443 268 443 259 453.5 c 128,-1,46
 250 464 250 464 236 464 c 0,47,48
 220 464 220 464 207.5 453.5 c 128,-1,49
 195 443 195 443 192 429 c 0,38,39
148 429 m 0,50,51
 151 445 151 445 160 459.5 c 128,-1,52
 169 474 169 474 182 484.5 c 128,-1,53
 195 495 195 495 211 501 c 128,-1,54
 227 507 227 507 244 507 c 0,55,56
 259 507 259 507 272 501 c 128,-1,57
 285 495 285 495 294 484.5 c 128,-1,58
 303 474 303 474 307 459.5 c 128,-1,59
 311 445 311 445 308 429 c 0,60,61
 305 412 305 412 295.5 397.5 c 128,-1,62
 286 383 286 383 272.5 372 c 128,-1,63
 259 361 259 361 243.5 354.5 c 128,-1,64
 228 348 228 348 213 348 c 0,65,66
 179 348 179 348 160 371.5 c 128,-1,67
 141 395 141 395 148 429 c 0,50,51
EndSplineSet
EndChar
StartChar: ccedilla
Encoding: 231 231 111
Width: 339
Flags: W
Fore
293 222 m 1,0,1
 276 236 276 236 257 242 c 128,-1,2
 238 248 238 248 215 248 c 0,3,4
 172 248 172 248 144.5 224.5 c 128,-1,5
 117 201 117 201 109 156 c 0,6,7
 100 111 100 111 118 87 c 128,-1,8
 136 63 136 63 179 63 c 0,9,10
 226 63 226 63 267 90 c 1,11,-1
 251 9 l 1,12,13
 226 0 226 0 201.5 -4 c 128,-1,14
 177 -8 177 -8 153 -8 c 0,15,16
 68 -8 68 -8 28.5 35 c 128,-1,17
 -11 78 -11 78 4 156 c 256,18,19
 19 234 19 234 75.5 277 c 128,-1,20
 132 320 132 320 217 320 c 0,21,22
 267 320 267 320 309 304 c 1,23,-1
 293 222 l 1,0,1
168 0 m 1,24,25
 192 -36 192 -36 188 -60 c 0,26,27
 178 -112 178 -112 108 -112 c 0,28,29
 95 -112 95 -112 80 -110 c 128,-1,30
 65 -108 65 -108 53 -105 c 1,31,-1
 60 -62 l 1,32,33
 89 -70 89 -70 106 -70 c 0,34,35
 138 -70 138 -70 143 -47 c 0,36,37
 146 -33 146 -33 130 0 c 1,38,-1
 168 0 l 1,39,-1
 168 0 l 1,24,25
EndSplineSet
EndChar
StartChar: eacute
Encoding: 233 233 112
Width: 388
Flags: W
Fore
335 129 m 1,0,-1
 102 129 l 1,1,2
 93 58 93 58 174 58 c 0,3,4
 206 58 206 58 240.5 67.5 c 128,-1,5
 275 77 275 77 314 96 c 1,6,-1
 299 19 l 1,7,8
 261 5 261 5 224.5 -1.5 c 128,-1,9
 188 -8 188 -8 152 -8 c 0,10,11
 67 -8 67 -8 28 35 c 128,-1,12
 -11 78 -11 78 4 156 c 256,13,14
 19 234 19 234 74 277 c 128,-1,15
 129 320 129 320 210 320 c 0,16,17
 283 320 283 320 318.5 276 c 128,-1,18
 354 232 354 232 340 157 c 2,19,-1
 335 129 l 1,0,-1
243 190 m 1,20,21
 249 219 249 219 236.5 236 c 128,-1,22
 224 253 224 253 197 253 c 0,23,24
 135 253 135 253 114 190 c 1,25,-1
 243 190 l 1,26,-1
 243 190 l 1,20,21
358 457 m 1,27,-1
 235 352 l 1,28,-1
 180 352 l 1,29,-1
 279 457 l 1,30,-1
 358 457 l 1,27,-1
EndSplineSet
EndChar
StartChar: egrave
Encoding: 232 232 113
Width: 388
Flags: W
Fore
335 129 m 1,0,-1
 102 129 l 1,1,2
 93 58 93 58 174 58 c 0,3,4
 206 58 206 58 240.5 67.5 c 128,-1,5
 275 77 275 77 314 96 c 1,6,-1
 299 19 l 1,7,8
 261 5 261 5 224.5 -1.5 c 128,-1,9
 188 -8 188 -8 152 -8 c 0,10,11
 67 -8 67 -8 28 35 c 128,-1,12
 -11 78 -11 78 4 156 c 256,13,14
 19 234 19 234 74 277 c 128,-1,15
 129 320 129 320 210 320 c 0,16,17
 283 320 283 320 318.5 276 c 128,-1,18
 354 232 354 232 340 157 c 2,19,-1
 335 129 l 1,0,-1
243 190 m 1,20,21
 249 219 249 219 236.5 236 c 128,-1,22
 224 253 224 253 197 253 c 0,23,24
 135 253 135 253 114 190 c 1,25,-1
 243 190 l 1,26,-1
 243 190 l 1,20,21
262 352 m 1,27,-1
 208 352 l 1,28,-1
 124 457 l 1,29,-1
 203 457 l 1,30,-1
 262 352 l 1,27,-1
EndSplineSet
EndChar
StartChar: ecircumflex
Encoding: 234 234 114
Width: 388
Flags: W
Fore
335 129 m 1,0,-1
 102 129 l 1,1,2
 93 58 93 58 174 58 c 0,3,4
 206 58 206 58 240.5 67.5 c 128,-1,5
 275 77 275 77 314 96 c 1,6,-1
 299 19 l 1,7,8
 261 5 261 5 224.5 -1.5 c 128,-1,9
 188 -8 188 -8 152 -8 c 0,10,11
 67 -8 67 -8 28 35 c 128,-1,12
 -11 78 -11 78 4 156 c 256,13,14
 19 234 19 234 74 277 c 128,-1,15
 129 320 129 320 210 320 c 0,16,17
 283 320 283 320 318.5 276 c 128,-1,18
 354 232 354 232 340 157 c 2,19,-1
 335 129 l 1,0,-1
243 190 m 1,20,21
 249 219 249 219 236.5 236 c 128,-1,22
 224 253 224 253 197 253 c 0,23,24
 135 253 135 253 114 190 c 1,25,-1
 243 190 l 1,26,-1
 243 190 l 1,20,21
275 457 m 1,27,-1
 326 352 l 1,28,-1
 277 352 l 1,29,-1
 234 415 l 1,30,-1
 165 352 l 1,31,-1
 116 352 l 1,32,-1
 207 457 l 1,33,-1
 275 457 l 1,27,-1
EndSplineSet
EndChar
StartChar: edieresis
Encoding: 235 235 115
Width: 388
Flags: W
Fore
335 129 m 1,0,-1
 102 129 l 1,1,2
 93 58 93 58 174 58 c 0,3,4
 206 58 206 58 240.5 67.5 c 128,-1,5
 275 77 275 77 314 96 c 1,6,-1
 299 19 l 1,7,8
 261 5 261 5 224.5 -1.5 c 128,-1,9
 188 -8 188 -8 152 -8 c 0,10,11
 67 -8 67 -8 28 35 c 128,-1,12
 -11 78 -11 78 4 156 c 256,13,14
 19 234 19 234 74 277 c 128,-1,15
 129 320 129 320 210 320 c 0,16,17
 283 320 283 320 318.5 276 c 128,-1,18
 354 232 354 232 340 157 c 2,19,-1
 335 129 l 1,0,-1
243 190 m 1,20,21
 249 219 249 219 236.5 236 c 128,-1,22
 224 253 224 253 197 253 c 0,23,24
 135 253 135 253 114 190 c 1,25,-1
 243 190 l 1,26,-1
 243 190 l 1,20,21
217 443 m 1,27,-1
 203 373 l 1,28,-1
 137 373 l 1,29,-1
 151 443 l 1,30,-1
 217 443 l 1,27,-1
327 443 m 1,31,-1
 313 373 l 1,32,-1
 247 373 l 1,33,-1
 261 443 l 1,34,-1
 327 443 l 1,31,-1
EndSplineSet
EndChar
StartChar: iacute
Encoding: 237 237 116
Width: 195
Flags: W
Fore
159 313 m 1,0,-1
 99 0 l 1,1,-1
 -2 0 l 1,2,-1
 58 313 l 1,3,-1
 159 313 l 1,0,-1
263 457 m 1,4,-1
 140 352 l 1,5,-1
 85 352 l 1,6,-1
 184 457 l 1,7,-1
 263 457 l 1,4,-1
EndSplineSet
EndChar
StartChar: igrave
Encoding: 236 236 117
Width: 195
Flags: W
Fore
159 313 m 1,0,-1
 99 0 l 1,1,-1
 -2 0 l 1,2,-1
 58 313 l 1,3,-1
 159 313 l 1,0,-1
167 352 m 1,4,-1
 113 352 l 1,5,-1
 29 457 l 1,6,-1
 108 457 l 1,7,-1
 167 352 l 1,4,-1
EndSplineSet
EndChar
StartChar: icircumflex
Encoding: 238 238 118
Width: 195
Flags: W
Fore
159 313 m 1,0,-1
 99 0 l 1,1,-1
 -2 0 l 1,2,-1
 58 313 l 1,3,-1
 159 313 l 1,0,-1
180 457 m 1,4,-1
 231 352 l 1,5,-1
 182 352 l 1,6,-1
 139 415 l 1,7,-1
 70 352 l 1,8,-1
 21 352 l 1,9,-1
 112 457 l 1,10,-1
 180 457 l 1,4,-1
EndSplineSet
EndChar
StartChar: idieresis
Encoding: 239 239 119
Width: 195
Flags: W
Fore
159 313 m 1,0,-1
 99 0 l 1,1,-1
 -2 0 l 1,2,-1
 58 313 l 1,3,-1
 159 313 l 1,0,-1
122 443 m 1,4,-1
 108 373 l 1,5,-1
 42 373 l 1,6,-1
 56 443 l 1,7,-1
 122 443 l 1,4,-1
232 443 m 1,8,-1
 218 373 l 1,9,-1
 152 373 l 1,10,-1
 166 443 l 1,11,-1
 232 443 l 1,8,-1
EndSplineSet
EndChar
StartChar: ntilde
Encoding: 241 241 120
Width: 408
Flags: W
Fore
312 0 m 1,0,-1
 212 0 l 1,1,-1
 218 32 l 1,2,-1
 240 146 l 2,3,4
 244 166 244 166 246 179 c 128,-1,5
 248 192 248 192 248.5 201 c 128,-1,6
 249 210 249 210 248.5 215.5 c 128,-1,7
 248 221 248 221 246 225 c 0,8,9
 239 245 239 245 212 245 c 0,10,11
 181 245 181 245 158.5 220.5 c 128,-1,12
 136 196 136 196 128 153 c 2,13,-1
 99 0 l 1,14,-1
 -2 0 l 1,15,-1
 58 313 l 1,16,-1
 159 313 l 1,17,-1
 150 267 l 1,18,19
 202 320 202 320 264 320 c 0,20,21
 318 320 318 320 339.5 286.5 c 128,-1,22
 361 253 361 253 348 190 c 2,23,-1
 312 0 l 1,0,-1
221 391 m 1,24,-1
 219 393 l 1,25,26
 206 401 206 401 199 401 c 0,27,28
 180 401 180 401 173 368 c 1,29,-1
 173 366 l 1,30,-1
 134 366 l 1,31,32
 141 403 141 403 159.5 424 c 128,-1,33
 178 445 178 445 204 445 c 0,34,35
 220 445 220 445 243 430 c 1,36,-1
 257 417 l 2,37,38
 268 409 268 409 276 409 c 0,39,40
 286 409 286 409 294 418 c 128,-1,41
 302 427 302 427 304 442 c 1,42,-1
 305 444 l 1,43,-1
 344 444 l 1,44,45
 336 407 336 407 317 386 c 128,-1,46
 298 365 298 365 272 365 c 0,47,48
 261 365 261 365 253 368 c 128,-1,49
 245 371 245 371 234 380 c 2,50,-1
 221 391 l 1,24,-1
EndSplineSet
EndChar
StartChar: oacute
Encoding: 243 243 121
Width: 393
Flags: W
Fore
194 248 m 0,0,1
 126 248 126 248 109 156 c 0,2,3
 100 111 100 111 112.5 87 c 128,-1,4
 125 63 125 63 158 63 c 0,5,6
 192 63 192 63 213.5 87 c 128,-1,7
 235 111 235 111 244 156 c 0,8,9
 261 248 261 248 194 248 c 0,0,1
208 320 m 256,10,11
 289 320 289 320 326 277 c 128,-1,12
 363 234 363 234 348 156 c 256,13,14
 333 78 333 78 279 35 c 128,-1,15
 225 -8 225 -8 144 -8 c 256,16,17
 63 -8 63 -8 26 35 c 128,-1,18
 -11 78 -11 78 4 156 c 256,19,20
 19 234 19 234 73 277 c 128,-1,21
 127 320 127 320 208 320 c 256,10,11
358 457 m 1,22,-1
 235 352 l 1,23,-1
 180 352 l 1,24,-1
 279 457 l 1,25,-1
 358 457 l 1,22,-1
EndSplineSet
EndChar
StartChar: ograve
Encoding: 242 242 122
Width: 393
Flags: W
Fore
194 248 m 0,0,1
 126 248 126 248 109 156 c 0,2,3
 100 111 100 111 112.5 87 c 128,-1,4
 125 63 125 63 158 63 c 0,5,6
 192 63 192 63 213.5 87 c 128,-1,7
 235 111 235 111 244 156 c 0,8,9
 261 248 261 248 194 248 c 0,0,1
208 320 m 256,10,11
 289 320 289 320 326 277 c 128,-1,12
 363 234 363 234 348 156 c 256,13,14
 333 78 333 78 279 35 c 128,-1,15
 225 -8 225 -8 144 -8 c 256,16,17
 63 -8 63 -8 26 35 c 128,-1,18
 -11 78 -11 78 4 156 c 256,19,20
 19 234 19 234 73 277 c 128,-1,21
 127 320 127 320 208 320 c 256,10,11
262 352 m 1,22,-1
 208 352 l 1,23,-1
 124 457 l 1,24,-1
 203 457 l 1,25,-1
 262 352 l 1,22,-1
EndSplineSet
EndChar
StartChar: ocircumflex
Encoding: 244 244 123
Width: 393
Flags: W
Fore
194 248 m 0,0,1
 126 248 126 248 109 156 c 0,2,3
 100 111 100 111 112.5 87 c 128,-1,4
 125 63 125 63 158 63 c 0,5,6
 192 63 192 63 213.5 87 c 128,-1,7
 235 111 235 111 244 156 c 0,8,9
 261 248 261 248 194 248 c 0,0,1
208 320 m 256,10,11
 289 320 289 320 326 277 c 128,-1,12
 363 234 363 234 348 156 c 256,13,14
 333 78 333 78 279 35 c 128,-1,15
 225 -8 225 -8 144 -8 c 256,16,17
 63 -8 63 -8 26 35 c 128,-1,18
 -11 78 -11 78 4 156 c 256,19,20
 19 234 19 234 73 277 c 128,-1,21
 127 320 127 320 208 320 c 256,10,11
275 457 m 1,22,-1
 326 352 l 1,23,-1
 277 352 l 1,24,-1
 234 415 l 1,25,-1
 165 352 l 1,26,-1
 116 352 l 1,27,-1
 207 457 l 1,28,-1
 275 457 l 1,22,-1
EndSplineSet
EndChar
StartChar: odieresis
Encoding: 246 246 124
Width: 393
Flags: W
Fore
194 248 m 0,0,1
 126 248 126 248 109 156 c 0,2,3
 100 111 100 111 112.5 87 c 128,-1,4
 125 63 125 63 158 63 c 0,5,6
 192 63 192 63 213.5 87 c 128,-1,7
 235 111 235 111 244 156 c 0,8,9
 261 248 261 248 194 248 c 0,0,1
208 320 m 256,10,11
 289 320 289 320 326 277 c 128,-1,12
 363 234 363 234 348 156 c 256,13,14
 333 78 333 78 279 35 c 128,-1,15
 225 -8 225 -8 144 -8 c 256,16,17
 63 -8 63 -8 26 35 c 128,-1,18
 -11 78 -11 78 4 156 c 256,19,20
 19 234 19 234 73 277 c 128,-1,21
 127 320 127 320 208 320 c 256,10,11
217 443 m 1,22,-1
 203 373 l 1,23,-1
 137 373 l 1,24,-1
 151 443 l 1,25,-1
 217 443 l 1,22,-1
327 443 m 1,26,-1
 313 373 l 1,27,-1
 247 373 l 1,28,-1
 261 443 l 1,29,-1
 327 443 l 1,26,-1
EndSplineSet
EndChar
StartChar: otilde
Encoding: 245 245 125
Width: 393
Flags: W
Fore
194 248 m 0,0,1
 126 248 126 248 109 156 c 0,2,3
 100 111 100 111 112.5 87 c 128,-1,4
 125 63 125 63 158 63 c 0,5,6
 192 63 192 63 213.5 87 c 128,-1,7
 235 111 235 111 244 156 c 0,8,9
 261 248 261 248 194 248 c 0,0,1
208 320 m 256,10,11
 289 320 289 320 326 277 c 128,-1,12
 363 234 363 234 348 156 c 256,13,14
 333 78 333 78 279 35 c 128,-1,15
 225 -8 225 -8 144 -8 c 256,16,17
 63 -8 63 -8 26 35 c 128,-1,18
 -11 78 -11 78 4 156 c 256,19,20
 19 234 19 234 73 277 c 128,-1,21
 127 320 127 320 208 320 c 256,10,11
214 391 m 1,22,-1
 212 393 l 1,23,24
 199 401 199 401 192 401 c 0,25,26
 173 401 173 401 166 368 c 1,27,-1
 166 366 l 1,28,-1
 127 366 l 1,29,30
 134 403 134 403 152.5 424 c 128,-1,31
 171 445 171 445 197 445 c 0,32,33
 213 445 213 445 236 430 c 1,34,-1
 250 417 l 2,35,36
 261 409 261 409 269 409 c 0,37,38
 279 409 279 409 287 418 c 128,-1,39
 295 427 295 427 297 442 c 1,40,-1
 298 444 l 1,41,-1
 337 444 l 1,42,43
 329 407 329 407 310 386 c 128,-1,44
 291 365 291 365 265 365 c 0,45,46
 254 365 254 365 246 368 c 128,-1,47
 238 371 238 371 227 380 c 2,48,-1
 214 391 l 1,22,-1
EndSplineSet
EndChar
StartChar: uacute
Encoding: 250 250 126
Width: 408
Flags: W
Fore
55 313 m 1,0,-1
 156 313 l 1,1,-1
 150 282 l 2,2,3
 148 268 148 268 145 252 c 128,-1,4
 142 236 142 236 137 217 c 2,5,-1
 127 166 l 2,6,7
 119 129 119 129 118 112.5 c 128,-1,8
 117 96 117 96 118 87 c 1,9,10
 130 67 130 67 155 67 c 0,11,12
 187 67 187 67 208.5 91.5 c 128,-1,13
 230 116 230 116 238 158 c 2,14,-1
 268 313 l 1,15,-1
 368 313 l 1,16,-1
 308 0 l 1,17,-1
 208 0 l 1,18,-1
 216 45 l 1,19,20
 164 -8 164 -8 102 -8 c 0,21,22
 50 -8 50 -8 28 25 c 128,-1,23
 6 58 6 58 18 122 c 2,24,-1
 55 313 l 1,0,-1
365 457 m 1,25,-1
 242 352 l 1,26,-1
 187 352 l 1,27,-1
 286 457 l 1,28,-1
 365 457 l 1,25,-1
EndSplineSet
EndChar
StartChar: ugrave
Encoding: 249 249 127
Width: 408
Flags: W
Fore
55 313 m 1,0,-1
 156 313 l 1,1,-1
 150 282 l 2,2,3
 148 268 148 268 145 252 c 128,-1,4
 142 236 142 236 137 217 c 2,5,-1
 127 166 l 2,6,7
 119 129 119 129 118 112.5 c 128,-1,8
 117 96 117 96 118 87 c 1,9,10
 130 67 130 67 155 67 c 0,11,12
 187 67 187 67 208.5 91.5 c 128,-1,13
 230 116 230 116 238 158 c 2,14,-1
 268 313 l 1,15,-1
 368 313 l 1,16,-1
 308 0 l 1,17,-1
 208 0 l 1,18,-1
 216 45 l 1,19,20
 164 -8 164 -8 102 -8 c 0,21,22
 50 -8 50 -8 28 25 c 128,-1,23
 6 58 6 58 18 122 c 2,24,-1
 55 313 l 1,0,-1
269 352 m 1,25,-1
 215 352 l 1,26,-1
 131 457 l 1,27,-1
 210 457 l 1,28,-1
 269 352 l 1,25,-1
EndSplineSet
EndChar
StartChar: ucircumflex
Encoding: 251 251 128
Width: 408
Flags: W
Fore
55 313 m 1,0,-1
 156 313 l 1,1,-1
 150 282 l 2,2,3
 148 268 148 268 145 252 c 128,-1,4
 142 236 142 236 137 217 c 2,5,-1
 127 166 l 2,6,7
 119 129 119 129 118 112.5 c 128,-1,8
 117 96 117 96 118 87 c 1,9,10
 130 67 130 67 155 67 c 0,11,12
 187 67 187 67 208.5 91.5 c 128,-1,13
 230 116 230 116 238 158 c 2,14,-1
 268 313 l 1,15,-1
 368 313 l 1,16,-1
 308 0 l 1,17,-1
 208 0 l 1,18,-1
 216 45 l 1,19,20
 164 -8 164 -8 102 -8 c 0,21,22
 50 -8 50 -8 28 25 c 128,-1,23
 6 58 6 58 18 122 c 2,24,-1
 55 313 l 1,0,-1
282 457 m 1,25,-1
 333 352 l 1,26,-1
 284 352 l 1,27,-1
 241 415 l 1,28,-1
 172 352 l 1,29,-1
 123 352 l 1,30,-1
 214 457 l 1,31,-1
 282 457 l 1,25,-1
EndSplineSet
EndChar
StartChar: udieresis
Encoding: 252 252 129
Width: 408
Flags: W
Fore
55 313 m 1,0,-1
 156 313 l 1,1,-1
 150 282 l 2,2,3
 148 268 148 268 145 252 c 128,-1,4
 142 236 142 236 137 217 c 2,5,-1
 127 166 l 2,6,7
 119 129 119 129 118 112.5 c 128,-1,8
 117 96 117 96 118 87 c 1,9,10
 130 67 130 67 155 67 c 0,11,12
 187 67 187 67 208.5 91.5 c 128,-1,13
 230 116 230 116 238 158 c 2,14,-1
 268 313 l 1,15,-1
 368 313 l 1,16,-1
 308 0 l 1,17,-1
 208 0 l 1,18,-1
 216 45 l 1,19,20
 164 -8 164 -8 102 -8 c 0,21,22
 50 -8 50 -8 28 25 c 128,-1,23
 6 58 6 58 18 122 c 2,24,-1
 55 313 l 1,0,-1
224 443 m 1,25,-1
 210 373 l 1,26,-1
 144 373 l 1,27,-1
 158 443 l 1,28,-1
 224 443 l 1,25,-1
334 443 m 1,29,-1
 320 373 l 1,30,-1
 254 373 l 1,31,-1
 268 443 l 1,32,-1
 334 443 l 1,29,-1
EndSplineSet
EndChar
StartChar: dagger
Encoding: 8224 8224 130
Width: 286
Flags: W
Fore
219 417 m 1,0,-1
 198 311 l 1,1,-1
 279 311 l 1,2,-1
 266 245 l 1,3,-1
 185 245 l 1,4,-1
 127 -55 l 1,5,-1
 35 -55 l 1,6,-1
 93 245 l 1,7,-1
 12 245 l 1,8,-1
 25 311 l 1,9,-1
 106 311 l 1,10,-1
 127 417 l 1,11,-1
 219 417 l 1,0,-1
EndSplineSet
EndChar
StartChar: degree
Encoding: 176 176 131
Width: 286
Flags: W
Fore
168 383 m 0,0,1
 147 383 147 383 130.5 369 c 128,-1,2
 114 355 114 355 110 335 c 0,3,4
 105 315 105 315 116.5 301.5 c 128,-1,5
 128 288 128 288 149 288 c 0,6,7
 168 288 168 288 184.5 301.5 c 128,-1,8
 201 315 201 315 206 335 c 0,9,10
 210 355 210 355 198.5 369 c 128,-1,11
 187 383 187 383 168 383 c 0,0,1
177 429 m 0,12,13
 194 429 194 429 209.5 421.5 c 128,-1,14
 225 414 225 414 236 401 c 256,15,16
 247 388 247 388 250.5 370.5 c 128,-1,17
 254 353 254 353 251 335 c 0,18,19
 247 316 247 316 236.5 299.5 c 128,-1,20
 226 283 226 283 212 270 c 0,21,22
 178 243 178 243 140 243 c 0,23,24
 100 243 100 243 78.5 269 c 128,-1,25
 57 295 57 295 65 335 c 0,26,27
 69 355 69 355 79.5 372 c 128,-1,28
 90 389 90 389 105 401.5 c 128,-1,29
 120 414 120 414 138.5 421.5 c 128,-1,30
 157 429 157 429 177 429 c 0,12,13
EndSplineSet
EndChar
StartChar: cent
Encoding: 162 162 132
Width: 398
Flags: W
Fore
191 240 m 1,0,1
 144 217 144 217 132 156 c 0,2,3
 120 96 120 96 159 73 c 1,4,-1
 191 240 l 1,5,-1
 191 240 l 1,0,1
318 222 m 1,6,7
 280 248 280 248 244 248 c 2,8,-1
 240 248 l 1,9,-1
 204 63 l 1,10,11
 228 64 228 64 250 71 c 128,-1,12
 272 78 272 78 292 90 c 1,13,-1
 276 9 l 1,14,15
 225 -8 225 -8 193 -8 c 2,16,-1
 190 -8 l 1,17,-1
 175 -87 l 1,18,-1
 128 -87 l 1,19,-1
 143 -7 l 1,20,21
 1 16 1 16 30 160 c 0,22,23
 43 229 43 229 88 269.5 c 128,-1,24
 133 310 133 310 207 320 c 1,25,-1
 222 400 l 1,26,-1
 269 400 l 1,27,-1
 254 320 l 1,28,29
 273 319 273 319 293 315 c 128,-1,30
 313 311 313 311 334 304 c 1,31,-1
 318 222 l 1,6,7
EndSplineSet
EndChar
StartChar: sterling
Encoding: 163 163 133
Width: 398
Flags: W
Fore
361 330 m 1,0,1
 326 350 326 350 282 350 c 0,2,3
 217 350 217 350 204 279 c 2,4,-1
 195 232 l 1,5,-1
 300 232 l 1,6,-1
 287 165 l 1,7,-1
 182 165 l 1,8,-1
 164 74 l 1,9,-1
 314 74 l 1,10,-1
 300 0 l 1,11,-1
 -14 0 l 1,12,-1
 0 74 l 1,13,-1
 63 74 l 1,14,-1
 81 165 l 1,15,-1
 26 165 l 1,16,-1
 39 232 l 1,17,-1
 94 232 l 1,18,-1
 103 279 l 2,19,20
 117 355 117 355 159 389.5 c 128,-1,21
 201 424 201 424 279 424 c 0,22,23
 329 424 329 424 376 410 c 1,24,-1
 361 330 l 1,0,1
EndSplineSet
EndChar
StartChar: section
Encoding: 167 167 134
Width: 286
Flags: W
Fore
265 346 m 1,0,1
 239 355 239 355 217 361 c 128,-1,2
 195 367 195 367 180 367 c 0,3,4
 160 367 160 367 148 359.5 c 128,-1,5
 136 352 136 352 134 340 c 0,6,7
 130 322 130 322 177 299 c 0,8,9
 185 295 185 295 188 294 c 0,10,11
 242 269 242 269 259.5 245.5 c 128,-1,12
 277 222 277 222 270 186 c 0,13,14
 257 121 257 121 188 96 c 1,15,16
 226 74 226 74 218 33 c 0,17,18
 210 -7 210 -7 171.5 -30.5 c 128,-1,19
 133 -54 133 -54 75 -54 c 0,20,21
 50 -54 50 -54 25.5 -50 c 128,-1,22
 1 -46 1 -46 -25 -39 c 1,23,-1
 -12 28 l 1,24,25
 17 17 17 17 41.5 10.5 c 128,-1,26
 66 4 66 4 81 4 c 0,27,28
 99 4 99 4 111.5 11.5 c 128,-1,29
 124 19 124 19 126 29 c 0,30,31
 131 49 131 49 84 69 c 0,32,33
 79 71 79 71 75 73 c 128,-1,34
 71 75 71 75 69 76 c 0,35,36
 17 100 17 100 -0.5 125 c 128,-1,37
 -18 150 -18 150 -10 186 c 0,38,39
 -5 216 -5 216 15.5 237 c 128,-1,40
 36 258 36 258 68 272 c 1,41,42
 51 287 51 287 44.5 302.5 c 128,-1,43
 38 318 38 318 42 339 c 0,44,45
 50 379 50 379 86.5 401.5 c 128,-1,46
 123 424 123 424 180 424 c 0,47,48
 203 424 203 424 227.5 420 c 128,-1,49
 252 416 252 416 277 409 c 1,50,-1
 265 346 l 1,0,1
118 240 m 1,51,52
 96 231 96 231 84.5 220.5 c 128,-1,53
 73 210 73 210 70 195 c 0,54,55
 67 177 67 177 81.5 163 c 128,-1,56
 96 149 96 149 143 131 c 1,57,58
 185 148 185 148 189 174 c 0,59,60
 193 193 193 193 177 208 c 128,-1,61
 161 223 161 223 118 240 c 1,51,52
EndSplineSet
EndChar
StartChar: bullet
Encoding: 8226 8226 135
Width: 366
Flags: W
Fore
73 213 m 0,0,1
 80 253 80 253 116 284 c 0,2,3
 153 313 153 313 193 313 c 0,4,5
 213 313 213 313 230 305 c 128,-1,6
 247 297 247 297 258 284 c 0,7,8
 282 254 282 254 274 213 c 0,9,10
 269 192 269 192 258 173 c 128,-1,11
 247 154 247 154 230 142 c 0,12,13
 214 127 214 127 194 119.5 c 128,-1,14
 174 112 174 112 153 112 c 0,15,16
 112 112 112 112 88 142 c 0,17,18
 77 154 77 154 72.5 173 c 128,-1,19
 68 192 68 192 73 213 c 0,0,1
EndSplineSet
EndChar
StartChar: paragraph
Encoding: 182 182 136
Width: 364
Flags: W
Fore
345 417 m 1,0,-1
 253 -55 l 1,1,-1
 200 -55 l 1,2,-1
 283 375 l 1,3,-1
 230 375 l 1,4,-1
 147 -55 l 1,5,-1
 93 -55 l 1,6,-1
 139 181 l 1,7,8
 83 188 83 188 59 218 c 128,-1,9
 35 248 35 248 45 299 c 0,10,11
 55 353 55 353 97 385 c 128,-1,12
 139 417 139 417 199 417 c 2,13,-1
 345 417 l 1,0,-1
EndSplineSet
EndChar
StartChar: germandbls
Encoding: 223 223 137
Width: 412
Flags: W
Fore
58 311 m 1,0,1
 82 435 82 435 234 435 c 0,2,3
 306 435 306 435 337.5 403.5 c 128,-1,4
 369 372 369 372 357 311 c 2,5,-1
 353 291 l 1,6,7
 269 285 269 285 263 247 c 0,8,9
 261 236 261 236 265.5 228 c 128,-1,10
 270 220 270 220 294 205 c 2,11,-1
 312 195 l 2,12,13
 340 177 340 177 351 153.5 c 128,-1,14
 362 130 362 130 355 97 c 0,15,16
 336 -8 336 -8 205 -8 c 0,17,18
 188 -8 188 -8 169.5 -4.5 c 128,-1,19
 151 -1 151 -1 131 5 c 1,20,-1
 145 74 l 1,21,22
 159 65 159 65 174.5 61.5 c 128,-1,23
 190 58 190 58 205 58 c 0,24,25
 224 58 224 58 238.5 68.5 c 128,-1,26
 253 79 253 79 256 95 c 0,27,28
 258 108 258 108 252 117.5 c 128,-1,29
 246 127 246 127 223 142 c 2,30,-1
 205 152 l 2,31,32
 184 166 184 166 175.5 185 c 128,-1,33
 167 204 167 204 172 230 c 0,34,35
 178 261 178 261 201 283.5 c 128,-1,36
 224 306 224 306 269 320 c 1,37,38
 276 368 276 368 226 368 c 0,39,40
 170 368 170 368 158 307 c 2,41,-1
 99 0 l 1,42,-1
 -2 0 l 1,43,-1
 58 311 l 1,44,-1
 58 311 l 1,0,1
EndSplineSet
EndChar
StartChar: registered
Encoding: 174 174 138
Width: 572
Flags: W
Fore
308 371 m 0,0,1
 242 371 242 371 181 324 c 0,2,3
 153 299 153 299 136 270.5 c 128,-1,4
 119 242 119 242 112 207 c 0,5,6
 105 173 105 173 111.5 144.5 c 128,-1,7
 118 116 118 116 136 90 c 0,8,9
 175 44 175 44 244 44 c 0,10,11
 278 44 278 44 309 55 c 128,-1,12
 340 66 340 66 369 90 c 0,13,14
 428 142 428 142 441 207 c 0,15,16
 454 275 454 275 414 324 c 0,17,18
 375 371 375 371 308 371 c 0,0,1
266 289 m 1,19,-1
 255 232 l 1,20,-1
 265 232 l 2,21,22
 309 232 309 232 314 261 c 0,23,24
 320 289 320 289 276 289 c 2,25,-1
 266 289 l 1,19,-1
294 328 m 1,26,27
 392 328 392 328 378 261 c 0,28,29
 373 237 373 237 355.5 221.5 c 128,-1,30
 338 206 338 206 312 201 c 1,31,32
 330 188 330 188 341 156 c 2,33,-1
 360 95 l 1,34,-1
 297 95 l 1,35,-1
 277 153 l 2,36,37
 267 194 267 194 250 194 c 2,38,-1
 247 194 l 1,39,-1
 228 95 l 1,40,-1
 169 95 l 1,41,-1
 214 328 l 1,42,-1
 294 328 l 1,43,-1
 294 328 l 1,26,27
316 415 m 0,44,45
 359 415 359 415 392 399 c 128,-1,46
 425 383 425 383 451 353 c 0,47,48
 500 293 500 293 483 207 c 0,49,50
 475 164 475 164 452 127.5 c 128,-1,51
 429 91 429 91 394 61 c 0,52,53
 356 32 356 32 317.5 16 c 128,-1,54
 279 0 279 0 236 0 c 0,55,56
 194 0 194 0 160 16 c 128,-1,57
 126 32 126 32 101 61 c 0,58,59
 52 120 52 120 69 207 c 0,60,61
 77 249 77 249 99.5 286.5 c 128,-1,62
 122 324 122 324 158 353 c 0,63,64
 232 415 232 415 316 415 c 0,44,45
EndSplineSet
EndChar
StartChar: copyright
Encoding: 169 169 139
Width: 572
Flags: W
Fore
368 254 m 1,0,1
 339 274 339 274 310 274 c 0,2,3
 278 274 278 274 257 256 c 128,-1,4
 236 238 236 238 230 207 c 0,5,6
 216 140 216 140 284 140 c 0,7,8
 321 140 321 140 349 159 c 1,9,-1
 338 100 l 1,10,11
 318 94 318 94 299.5 90.5 c 128,-1,12
 281 87 281 87 263 87 c 0,13,14
 203 87 203 87 174.5 119.5 c 128,-1,15
 146 152 146 152 157 207 c 0,16,17
 168 261 168 261 209 294 c 128,-1,18
 250 327 250 327 310 327 c 0,19,20
 330 327 330 327 346.5 323.5 c 128,-1,21
 363 320 363 320 380 314 c 1,22,-1
 368 254 l 1,0,1
308 371 m 0,23,24
 242 371 242 371 181 324 c 0,25,26
 153 299 153 299 136 270.5 c 128,-1,27
 119 242 119 242 112 207 c 0,28,29
 105 173 105 173 111.5 144.5 c 128,-1,30
 118 116 118 116 136 90 c 0,31,32
 175 44 175 44 244 44 c 0,33,34
 278 44 278 44 309 55 c 128,-1,35
 340 66 340 66 369 90 c 0,36,37
 428 142 428 142 441 207 c 0,38,39
 454 275 454 275 414 324 c 0,40,41
 375 371 375 371 308 371 c 0,23,24
316 415 m 0,42,43
 359 415 359 415 392 399 c 128,-1,44
 425 383 425 383 451 353 c 0,45,46
 500 293 500 293 483 207 c 0,47,48
 475 164 475 164 452 127.5 c 128,-1,49
 429 91 429 91 394 61 c 0,50,51
 356 32 356 32 317.5 16 c 128,-1,52
 279 0 279 0 236 0 c 0,53,54
 194 0 194 0 160 16 c 128,-1,55
 126 32 126 32 101 61 c 0,56,57
 52 120 52 120 69 207 c 0,58,59
 77 249 77 249 99.5 286.5 c 128,-1,60
 122 324 122 324 158 353 c 0,61,62
 232 415 232 415 316 415 c 0,42,43
EndSplineSet
EndChar
StartChar: trademark
Encoding: 8482 8482 140
Width: 572
Flags: W
Fore
373 353 m 1,0,-1
 420 417 l 1,1,-1
 483 417 l 1,2,-1
 451 255 l 1,3,-1
 403 255 l 1,4,-1
 427 377 l 1,5,-1
 375 306 l 1,6,-1
 355 306 l 1,7,-1
 330 377 l 1,8,-1
 306 255 l 1,9,-1
 257 255 l 1,10,-1
 289 417 l 1,11,-1
 354 417 l 1,12,-1
 373 353 l 1,0,-1
250 377 m 1,13,-1
 201 377 l 1,14,-1
 177 255 l 1,15,-1
 129 255 l 1,16,-1
 153 377 l 1,17,-1
 105 377 l 1,18,-1
 113 417 l 1,19,-1
 258 417 l 1,20,-1
 250 377 l 1,13,-1
EndSplineSet
EndChar
StartChar: acute
Encoding: 180 180 141
Width: 286
Flags: W
Fore
298 457 m 1,0,-1
 175 352 l 1,1,-1
 120 352 l 1,2,-1
 219 457 l 1,3,-1
 298 457 l 1,0,-1
EndSplineSet
EndChar
StartChar: dieresis
Encoding: 168 168 142
Width: 286
Flags: W
Fore
157 443 m 1,0,-1
 143 373 l 1,1,-1
 77 373 l 1,2,-1
 91 443 l 1,3,-1
 157 443 l 1,0,-1
267 443 m 1,4,-1
 253 373 l 1,5,-1
 187 373 l 1,6,-1
 201 443 l 1,7,-1
 267 443 l 1,4,-1
EndSplineSet
EndChar
StartChar: notequal
Encoding: 8800 8800 143
Width: 479
Flags: W
Fore
285 275 m 1,0,-1
 370 360 l 1,1,-1
 406 326 l 1,2,-1
 355 275 l 1,3,-1
 421 275 l 1,4,-1
 408 210 l 1,5,-1
 293 210 l 1,6,-1
 231 149 l 1,7,-1
 396 149 l 1,8,-1
 383 82 l 1,9,-1
 163 82 l 1,10,-1
 77 -3 l 1,11,-1
 42 33 l 1,12,-1
 92 82 l 1,13,-1
 25 82 l 1,14,-1
 38 149 l 1,15,-1
 157 149 l 1,16,-1
 218 210 l 1,17,-1
 50 210 l 1,18,-1
 63 275 l 1,19,-1
 285 275 l 1,0,-1
EndSplineSet
EndChar
StartChar: AE
Encoding: 198 198 144
Width: 621
Flags: W
Fore
160 174 m 1,0,-1
 266 174 l 1,1,-1
 300 346 l 1,2,-1
 265 346 l 1,3,-1
 160 174 l 1,0,-1
604 417 m 1,4,-1
 588 336 l 1,5,-1
 405 336 l 1,6,-1
 389 257 l 1,7,-1
 560 257 l 1,8,-1
 545 177 l 1,9,-1
 374 177 l 1,10,-1
 355 81 l 1,11,-1
 544 81 l 1,12,-1
 529 0 l 1,13,-1
 233 0 l 1,14,-1
 252 98 l 1,15,-1
 114 98 l 1,16,-1
 54 0 l 1,17,-1
 -50 0 l 1,18,-1
 205 417 l 1,19,-1
 604 417 l 1,4,-1
EndSplineSet
EndChar
StartChar: Oslash
Encoding: 216 216 145
Width: 486
Flags: W
Fore
138 104 m 1,0,1
 160 69 160 69 207 69 c 0,2,3
 255 69 255 69 289.5 105.5 c 128,-1,4
 324 142 324 142 337 208 c 0,5,6
 341 227 341 227 341.5 243.5 c 128,-1,7
 342 260 342 260 341 273 c 1,8,-1
 138 104 l 1,9,-1
 138 104 l 1,0,1
327 314 m 1,10,11
 317 331 317 331 300 339 c 128,-1,12
 283 347 283 347 261 347 c 0,13,14
 210 347 210 347 176.5 310.5 c 128,-1,15
 143 274 143 274 130 208 c 0,16,17
 126 190 126 190 125 174 c 128,-1,18
 124 158 124 158 126 146 c 1,19,-1
 327 314 l 1,20,-1
 327 314 l 1,10,11
32 67 m 1,21,22
 2 126 2 126 18 208 c 0,23,24
 38 310 38 310 106 367 c 128,-1,25
 174 424 174 424 276 424 c 0,26,27
 360 424 360 424 407 381 c 1,28,-1
 474 438 l 1,29,-1
 499 406 l 1,30,-1
 432 349 l 1,31,32
 449 323 449 323 452 286.5 c 128,-1,33
 455 250 455 250 447 208 c 0,34,35
 427 106 427 106 360.5 49 c 128,-1,36
 294 -8 294 -8 192 -8 c 0,37,38
 106 -8 106 -8 58 37 c 1,39,-1
 -11 -21 l 1,40,-1
 -35 11 l 1,41,-1
 32 67 l 1,42,-1
 32 67 l 1,21,22
EndSplineSet
EndChar
StartChar: infinity
Encoding: 8734 8734 146
Width: 476
Flags: W
Fore
247 157 m 1,0,1
 263 119 263 119 306 119 c 0,2,3
 330 119 330 119 348.5 133.5 c 128,-1,4
 367 148 367 148 371 169 c 0,5,6
 376 191 376 191 364 205 c 128,-1,7
 352 219 352 219 331 219 c 0,8,9
 311 219 311 219 292 205 c 128,-1,10
 273 191 273 191 247 157 c 1,0,1
195 183 m 1,11,12
 178 221 178 221 137 221 c 0,13,14
 112 221 112 221 93 207 c 128,-1,15
 74 193 74 193 70 171 c 0,16,17
 65 149 65 149 77.5 135.5 c 128,-1,18
 90 122 90 122 112 122 c 0,19,20
 131 122 131 122 151 136 c 128,-1,21
 171 150 171 150 195 183 c 1,11,12
214 124 m 1,22,23
 160 52 160 52 109 52 c 0,24,25
 69 52 69 52 48 86 c 128,-1,26
 27 120 27 120 36 169 c 0,27,28
 47 223 47 223 78 255.5 c 128,-1,29
 109 288 109 288 148 288 c 0,30,31
 172 288 172 288 190.5 271.5 c 128,-1,32
 209 255 209 255 229 216 c 1,33,34
 282 288 282 288 334 288 c 0,35,36
 373 288 373 288 394 254.5 c 128,-1,37
 415 221 415 221 405 170 c 0,38,39
 395 118 395 118 364 85 c 128,-1,40
 333 52 333 52 295 52 c 0,41,42
 269 52 269 52 251 67.5 c 128,-1,43
 233 83 233 83 214 124 c 1,22,23
EndSplineSet
EndChar
StartChar: plusminus
Encoding: 177 177 147
Width: 479
Flags: W
Fore
272 260 m 1,0,-1
 418 260 l 1,1,-1
 405 194 l 1,2,-1
 259 194 l 1,3,-1
 240 95 l 1,4,-1
 174 95 l 1,5,-1
 193 194 l 1,6,-1
 47 194 l 1,7,-1
 60 260 l 1,8,-1
 206 260 l 1,9,-1
 225 358 l 1,10,-1
 291 358 l 1,11,-1
 272 260 l 1,0,-1
380 66 m 1,12,-1
 368 0 l 1,13,-1
 10 0 l 1,14,-1
 22 66 l 1,15,-1
 380 66 l 1,12,-1
EndSplineSet
EndChar
StartChar: lessequal
Encoding: 8804 8804 148
Width: 479
Flags: W
Fore
368 0 m 1,0,-1
 10 0 l 1,1,-1
 22 66 l 1,2,-1
 380 66 l 1,3,-1
 368 0 l 1,0,-1
158 206 m 1,4,-1
 396 149 l 1,5,-1
 383 80 l 1,6,-1
 43 173 l 1,7,-1
 56 240 l 1,8,-1
 432 333 l 1,9,-1
 419 264 l 1,10,-1
 158 206 l 1,4,-1
EndSplineSet
EndChar
StartChar: greaterequal
Encoding: 8805 8805 149
Width: 479
Flags: W
Fore
380 66 m 1,0,-1
 368 0 l 1,1,-1
 10 0 l 1,2,-1
 22 66 l 1,3,-1
 380 66 l 1,0,-1
74 333 m 1,4,-1
 414 240 l 1,5,-1
 401 173 l 1,6,-1
 25 80 l 1,7,-1
 38 149 l 1,8,-1
 301 206 l 1,9,-1
 61 264 l 1,10,-1
 74 333 l 1,4,-1
EndSplineSet
EndChar
StartChar: yen
Encoding: 165 165 150
Width: 398
Flags: W
Fore
224 117 m 1,0,-1
 202 0 l 1,1,-1
 96 0 l 1,2,-1
 118 117 l 1,3,-1
 -9 117 l 1,4,-1
 2 170 l 1,5,-1
 129 170 l 1,6,-1
 132 189 l 1,7,-1
 123 213 l 1,8,-1
 10 213 l 1,9,-1
 20 266 l 1,10,-1
 102 266 l 1,11,-1
 38 417 l 1,12,-1
 150 417 l 1,13,-1
 204 288 l 1,14,-1
 310 417 l 1,15,-1
 422 417 l 1,16,-1
 298 266 l 1,17,-1
 380 266 l 1,18,-1
 370 213 l 1,19,-1
 257 213 l 1,20,-1
 238 189 l 1,21,-1
 235 170 l 1,22,-1
 362 170 l 1,23,-1
 351 117 l 1,24,-1
 224 117 l 1,0,-1
EndSplineSet
EndChar
StartChar: mu
Encoding: 181 181 151
Width: 421
Flags: W
Fore
59 313 m 1,0,-1
 159 313 l 1,1,-1
 124 131 l 2,2,3
 112 66 112 66 168 66 c 0,4,5
 225 66 225 66 237 131 c 2,6,-1
 272 313 l 1,7,-1
 372 313 l 1,8,-1
 332 104 l 2,9,10
 327 84 327 84 331 75.5 c 128,-1,11
 335 67 335 67 346 67 c 0,12,13
 352 67 352 67 356 68.5 c 128,-1,14
 360 70 360 70 366 74 c 1,15,-1
 352 4 l 1,16,17
 322 -8 322 -8 297 -8 c 0,18,19
 273 -8 273 -8 259 2.5 c 128,-1,20
 245 13 245 13 240 37 c 1,21,22
 204 -8 204 -8 156 -8 c 0,23,24
 115 -8 115 -8 102 19 c 1,25,-1
 75 -120 l 1,26,-1
 -25 -120 l 1,27,-1
 59 313 l 1,0,-1
EndSplineSet
EndChar
StartChar: partialdiff
Encoding: 8706 8706 152
Width: 311
Flags: W
Fore
201 191 m 1,0,1
 226 258 226 258 232 290 c 0,2,3
 237 315 237 315 232 331.5 c 128,-1,4
 227 348 227 348 216 348 c 0,5,6
 207 348 207 348 173 322 c 0,7,8
 142 297 142 297 118 297 c 0,9,10
 105 297 105 297 98 306.5 c 128,-1,11
 91 316 91 316 94 330 c 0,12,13
 96 339 96 339 104.5 348 c 128,-1,14
 113 357 113 357 126 364 c 128,-1,15
 139 371 139 371 155.5 375.5 c 128,-1,16
 172 380 172 380 190 380 c 0,17,18
 250 380 250 380 275 335 c 128,-1,19
 300 290 300 290 285 212 c 0,20,21
 265 116 265 116 209 55 c 0,22,23
 152 -7 152 -7 80 -7 c 0,24,25
 30 -7 30 -7 3.5 25.5 c 128,-1,26
 -23 58 -23 58 -12 109 c 0,27,28
 -7 138 -7 138 6.5 162 c 128,-1,29
 20 186 20 186 38.5 203.5 c 128,-1,30
 57 221 57 221 80.5 231 c 128,-1,31
 104 241 104 241 129 241 c 0,32,33
 157 241 157 241 174 228.5 c 128,-1,34
 191 216 191 216 201 191 c 1,0,1
173 149 m 0,35,36
 179 180 179 180 172 197.5 c 128,-1,37
 165 215 165 215 145 215 c 0,38,39
 133 215 133 215 119.5 205 c 128,-1,40
 106 195 106 195 94 177 c 128,-1,41
 82 159 82 159 72.5 134.5 c 128,-1,42
 63 110 63 110 57 80 c 0,43,44
 45 15 45 15 84 15 c 0,45,46
 112 15 112 15 137 52 c 128,-1,47
 162 89 162 89 173 149 c 0,35,36
EndSplineSet
EndChar
StartChar: summation
Encoding: 8721 8721 153
Width: 411
Flags: W
Fore
413 412 m 1,0,-1
 398 337 l 1,1,-1
 154 337 l 1,2,-1
 292 157 l 1,3,-1
 82 -36 l 1,4,-1
 341 -36 l 1,5,-1
 326 -109 l 1,6,-1
 -59 -109 l 1,7,-1
 -50 -62 l 1,8,-1
 185 153 l 1,9,-1
 36 347 l 1,10,-1
 49 412 l 1,11,-1
 413 412 l 1,0,-1
EndSplineSet
EndChar
StartChar: product
Encoding: 8719 8719 154
Width: 450
Flags: W
Fore
438 412 m 1,0,-1
 336 -109 l 1,1,-1
 239 -109 l 1,2,-1
 325 331 l 1,3,-1
 153 331 l 1,4,-1
 67 -109 l 1,5,-1
 -29 -109 l 1,6,-1
 73 412 l 1,7,-1
 438 412 l 1,0,-1
EndSplineSet
EndChar
StartChar: pi
Encoding: 960 960 155
Width: 368
Flags: W
Fore
364 243 m 1,0,-1
 315 243 l 1,1,-1
 225 0 l 1,2,-1
 145 0 l 1,3,-1
 235 243 l 1,4,-1
 168 243 l 1,5,-1
 79 0 l 1,6,-1
 -1 0 l 1,7,-1
 87 243 l 1,8,-1
 81 243 l 2,9,10
 50 243 50 243 40 206 c 1,11,-1
 -19 206 l 1,12,13
 -10 233 -10 233 1.5 252 c 128,-1,14
 13 271 13 271 29.5 283 c 128,-1,15
 46 295 46 295 68 300 c 128,-1,16
 90 305 90 305 120 305 c 2,17,-1
 387 305 l 1,18,-1
 364 243 l 1,0,-1
EndSplineSet
EndChar
StartChar: integral
Encoding: 8747 8747 156
Width: 348
Flags: W
Fore
37 -68 m 0,0,1
 65 -68 65 -68 106 117 c 0,2,3
 110 131 110 131 112.5 142 c 128,-1,4
 115 153 115 153 117 160 c 0,5,6
 151 306 151 306 194.5 370.5 c 128,-1,7
 238 435 238 435 303 435 c 0,8,9
 333 435 333 435 348.5 420.5 c 128,-1,10
 364 406 364 406 359 381 c 0,11,12
 355 364 355 364 341.5 353 c 128,-1,13
 328 342 328 342 310 342 c 0,14,15
 274 342 274 342 281 383 c 0,16,17
 283 394 283 394 281.5 397 c 128,-1,18
 280 400 280 400 275 400 c 0,19,20
 249 400 249 400 205 214 c 0,21,22
 202 199 202 199 199 189 c 0,23,24
 178 98 178 98 166 57 c 0,25,26
 153 17 153 17 136 -12 c 0,27,28
 82 -104 82 -104 9 -104 c 0,29,30
 -21 -104 -21 -104 -35.5 -89.5 c 128,-1,31
 -50 -75 -50 -75 -45 -50 c 0,32,33
 -42 -33 -42 -33 -28.5 -22 c 128,-1,34
 -15 -11 -15 -11 4 -11 c 0,35,36
 21 -11 21 -11 28 -21.5 c 128,-1,37
 35 -32 35 -32 32 -50 c 1,38,39
 31 -52 31 -52 31 -53 c 128,-1,40
 31 -54 31 -54 30 -56 c 0,41,42
 29 -59 29 -59 29 -63.5 c 128,-1,43
 29 -68 29 -68 37 -68 c 0,0,1
EndSplineSet
EndChar
StartChar: ordfeminine
Encoding: 170 170 157
Width: 323
Flags: W
Fore
257 160 m 1,0,-1
 246 104 l 1,1,-1
 19 104 l 1,2,-1
 30 160 l 1,3,-1
 257 160 l 1,0,-1
188 303 m 1,4,5
 151 303 151 303 134.5 295 c 128,-1,6
 118 287 118 287 115 270 c 0,7,8
 109 240 109 240 145 240 c 0,9,10
 168 240 168 240 187.5 255.5 c 128,-1,11
 207 271 207 271 212 295 c 2,12,-1
 213 303 l 1,13,-1
 188 303 l 1,14,-1
 188 303 l 1,4,5
267 200 m 1,15,-1
 199 200 l 1,16,-1
 206 236 l 1,17,18
 186 214 186 214 165 204 c 128,-1,19
 144 194 144 194 117 194 c 0,20,21
 75 194 75 194 56.5 213 c 128,-1,22
 38 232 38 232 45 264 c 0,23,24
 53 304 53 304 86 322 c 128,-1,25
 119 340 119 340 182 340 c 2,26,-1
 220 340 l 1,27,-1
 221 347 l 2,28,29
 228 378 228 378 177 378 c 0,30,31
 131 378 131 378 82 358 c 1,32,-1
 92 409 l 1,33,34
 118 417 118 417 143 420.5 c 128,-1,35
 168 424 168 424 189 424 c 0,36,37
 252 424 252 424 277 399.5 c 128,-1,38
 302 375 302 375 292 326 c 2,39,-1
 267 200 l 1,15,-1
EndSplineSet
EndChar
StartChar: ordmasculine
Encoding: 186 186 158
Width: 323
Flags: W
Fore
193 424 m 256,0,1
 253 424 253 424 281.5 393.5 c 128,-1,2
 310 363 310 363 300 309 c 0,3,4
 289 255 289 255 249 225 c 128,-1,5
 209 195 209 195 148 195 c 0,6,7
 88 195 88 195 60 225 c 128,-1,8
 32 255 32 255 43 309 c 0,9,10
 53 363 53 363 93 393.5 c 128,-1,11
 133 424 133 424 193 424 c 256,0,1
257 160 m 1,12,-1
 246 104 l 1,13,-1
 16 104 l 1,14,-1
 27 160 l 1,15,-1
 257 160 l 1,12,-1
184 377 m 0,16,17
 162 377 162 377 145 359.5 c 128,-1,18
 128 342 128 342 122 309 c 0,19,20
 115 277 115 277 125.5 260 c 128,-1,21
 136 243 136 243 158 243 c 0,22,23
 206 243 206 243 220 309 c 0,24,25
 232 377 232 377 184 377 c 0,16,17
EndSplineSet
EndChar
StartChar: Omega
Encoding: 937 937 159
Width: 440
Flags: W
Fore
387 71 m 1,0,-1
 374 0 l 1,1,-1
 203 0 l 1,2,-1
 218 81 l 1,3,4
 259 105 259 105 284.5 142 c 128,-1,5
 310 179 310 179 319 225 c 0,6,7
 330 282 330 282 308 314.5 c 128,-1,8
 286 347 286 347 237 347 c 0,9,10
 186 347 186 347 151.5 314.5 c 128,-1,11
 117 282 117 282 106 225 c 0,12,13
 97 179 97 179 108 142 c 128,-1,14
 119 105 119 105 150 81 c 1,15,-1
 135 0 l 1,16,-1
 -34 0 l 1,17,-1
 -21 71 l 1,18,-1
 60 71 l 1,19,20
 3 137 3 137 21 229 c 0,21,22
 30 273 30 273 50.5 308 c 128,-1,23
 71 343 71 343 101 368.5 c 128,-1,24
 131 394 131 394 169 407.5 c 128,-1,25
 207 421 207 421 251 421 c 0,26,27
 339 421 339 421 381 369 c 128,-1,28
 423 317 423 317 406 229 c 0,29,30
 397 183 397 183 372 144 c 128,-1,31
 347 105 347 105 307 71 c 1,32,-1
 387 71 l 1,0,-1
EndSplineSet
EndChar
StartChar: ae
Encoding: 230 230 160
Width: 599
Flags: W
Fore
455 190 m 1,0,1
 461 219 461 219 448 236 c 128,-1,2
 435 253 435 253 408 253 c 0,3,4
 349 253 349 253 326 190 c 1,5,-1
 455 190 l 1,6,-1
 455 190 l 1,0,1
165 141 m 1,7,8
 103 141 103 141 95 99 c 0,9,10
 91 80 91 80 101 69 c 128,-1,11
 111 58 111 58 134 58 c 0,12,13
 163 58 163 58 186.5 78.5 c 128,-1,14
 210 99 210 99 216 130 c 2,15,-1
 218 141 l 1,16,-1
 165 141 l 1,17,-1
 165 141 l 1,7,8
61 305 m 1,18,19
 96 312 96 312 128 316 c 128,-1,20
 160 320 160 320 186 320 c 0,21,22
 228 320 228 320 256 309.5 c 128,-1,23
 284 299 284 299 300 276 c 1,24,25
 352 320 352 320 422 320 c 0,26,27
 495 320 495 320 530.5 276 c 128,-1,28
 566 232 566 232 552 157 c 2,29,-1
 547 129 l 1,30,-1
 313 129 l 1,31,32
 305 58 305 58 385 58 c 0,33,34
 446 58 446 58 525 96 c 1,35,-1
 510 19 l 1,36,37
 472 5 472 5 435 -1.5 c 128,-1,38
 398 -8 398 -8 363 -8 c 0,39,40
 261 -8 261 -8 230 50 c 1,41,42
 166 -8 166 -8 90 -8 c 0,43,44
 35 -8 35 -8 9 19 c 128,-1,45
 -17 46 -17 46 -8 94 c 0,46,47
 3 149 3 149 45.5 174.5 c 128,-1,48
 88 200 88 200 169 200 c 2,49,-1
 229 200 l 1,50,-1
 231 208 l 2,51,52
 236 232 236 232 219 242.5 c 128,-1,53
 202 253 202 253 162 253 c 0,54,55
 130 253 130 253 101.5 247.5 c 128,-1,56
 73 242 73 242 46 228 c 1,57,-1
 61 305 l 1,58,-1
 61 305 l 1,18,19
EndSplineSet
EndChar
StartChar: oslash
Encoding: 248 248 161
Width: 393
Flags: W
Fore
235 234 m 1,0,1
 227 242 227 242 217.5 245 c 128,-1,2
 208 248 208 248 194 248 c 0,3,4
 126 248 126 248 109 156 c 0,5,6
 107 145 107 145 105.5 136 c 128,-1,7
 104 127 104 127 105 119 c 1,8,-1
 235 234 l 1,9,-1
 235 234 l 1,0,1
117 80 m 1,10,11
 131 63 131 63 158 63 c 0,12,13
 192 63 192 63 213.5 87 c 128,-1,14
 235 111 235 111 244 156 c 0,15,16
 248 180 248 180 247 195 c 1,17,-1
 117 80 l 1,18,-1
 117 80 l 1,10,11
20 44 m 1,19,20
 -10 88 -10 88 4 156 c 0,21,22
 19 234 19 234 73 277 c 128,-1,23
 127 320 127 320 208 320 c 0,24,25
 267 320 267 320 304 295 c 1,26,-1
 355 340 l 1,27,-1
 379 312 l 1,28,-1
 332 270 l 1,29,30
 361 225 361 225 348 156 c 0,31,32
 333 78 333 78 279 35 c 128,-1,33
 225 -8 225 -8 144 -8 c 0,34,35
 114 -8 114 -8 90 -2 c 128,-1,36
 66 4 66 4 48 18 c 1,37,-1
 -3 -26 l 1,38,-1
 -28 0 l 1,39,-1
 20 44 l 1,40,-1
 20 44 l 1,19,20
EndSplineSet
EndChar
StartChar: questiondown
Encoding: 191 191 162
Width: 332
Flags: W
Fore
240 275 m 1,0,-1
 237 262 l 2,1,2
 235 251 235 251 231.5 241.5 c 128,-1,3
 228 232 228 232 220.5 222 c 128,-1,4
 213 212 213 212 201.5 201 c 128,-1,5
 190 190 190 190 172 175 c 2,6,-1
 151 160 l 2,7,8
 132 146 132 146 123 133.5 c 128,-1,9
 114 121 114 121 111 107 c 0,10,11
 103 65 103 65 153 65 c 0,12,13
 200 65 200 65 264 103 c 1,14,-1
 246 15 l 1,15,16
 178 -8 178 -8 127 -8 c 0,17,18
 -12 -8 -12 -8 9 101 c 0,19,20
 14 128 14 128 28.5 149.5 c 128,-1,21
 43 171 43 171 74 195 c 2,22,-1
 96 212 l 2,23,24
 119 230 119 230 127 240 c 128,-1,25
 135 250 135 250 138 263 c 2,26,-1
 140 275 l 1,27,-1
 240 275 l 1,0,-1
148 317 m 1,28,-1
 168 417 l 1,29,-1
 268 417 l 1,30,-1
 248 317 l 1,31,-1
 148 317 l 1,28,-1
EndSplineSet
EndChar
StartChar: exclamdown
Encoding: 161 161 163
Width: 261
Flags: W
Fore
61 160 m 1,0,-1
 98 276 l 1,1,-1
 169 276 l 1,2,-1
 162 160 l 1,3,-1
 131 0 l 1,4,-1
 30 0 l 1,5,-1
 61 160 l 1,0,-1
111 417 m 1,6,-1
 212 417 l 1,7,-1
 192 317 l 1,8,-1
 91 317 l 1,9,-1
 111 417 l 1,6,-1
EndSplineSet
EndChar
StartChar: logicalnot
Encoding: 172 172 164
Width: 479
Flags: W
Fore
417 253 m 1,0,-1
 383 80 l 1,1,-1
 317 80 l 1,2,-1
 338 188 l 1,3,-1
 46 188 l 1,4,-1
 59 253 l 1,5,-1
 417 253 l 1,0,-1
EndSplineSet
EndChar
StartChar: radical
Encoding: 8730 8730 165
Width: 381
Flags: W
Fore
424 478 m 1,0,-1
 416 437 l 1,1,-1
 389 437 l 1,2,-1
 138 -12 l 1,3,-1
 105 -12 l 1,4,-1
 64 225 l 1,5,-1
 22 210 l 1,6,-1
 19 246 l 1,7,-1
 126 281 l 1,8,-1
 154 104 l 1,9,-1
 365 478 l 1,10,-1
 424 478 l 1,0,-1
EndSplineSet
EndChar
StartChar: florin
Encoding: 402 402 166
Width: 398
Flags: W
Fore
390 352 m 1,0,1
 368 368 368 368 347 368 c 0,2,3
 320 368 320 368 302.5 352 c 128,-1,4
 285 336 285 336 271 297 c 2,5,-1
 252 249 l 1,6,-1
 333 249 l 1,7,-1
 320 183 l 1,8,-1
 227 183 l 1,9,-1
 154 -4 l 2,10,11
 108 -119 108 -119 2 -119 c 0,12,13
 -16 -119 -16 -119 -33.5 -116 c 128,-1,14
 -51 -113 -51 -113 -69 -108 c 1,15,-1
 -56 -37 l 1,16,17
 -34 -52 -34 -52 -11 -52 c 0,18,19
 14 -52 14 -52 30.5 -36.5 c 128,-1,20
 47 -21 47 -21 63 19 c 2,21,-1
 129 183 l 1,22,-1
 61 183 l 1,23,-1
 74 249 l 1,24,-1
 154 249 l 1,25,-1
 182 320 l 2,26,27
 227 435 227 435 332 435 c 0,28,29
 351 435 351 435 368.5 432.5 c 128,-1,30
 386 430 386 430 404 423 c 1,31,-1
 390 352 l 1,0,1
EndSplineSet
EndChar
StartChar: approxequal
Encoding: 8776 8776 167
Width: 479
Flags: W
Fore
412 228 m 1,0,1
 378 205 378 205 351.5 195.5 c 128,-1,2
 325 186 325 186 298 186 c 0,3,4
 267 186 267 186 232 202 c 0,5,6
 226 204 226 204 225 205 c 1,7,8
 220 207 l 2,9,10
 180 225 180 225 153 225 c 0,11,12
 130 225 130 225 103 214 c 128,-1,13
 76 203 76 203 44 180 c 1,14,-1
 58 248 l 1,15,16
 122 289 122 289 173 289 c 0,17,18
 203 289 203 289 240 272 c 0,19,20
 245 270 245 270 246 270 c 1,21,22
 247 269 247 269 248 269 c 128,-1,23
 249 269 249 269 251 268 c 0,24,25
 290 250 290 250 317 250 c 0,26,27
 342 250 342 250 367.5 261 c 128,-1,28
 393 272 393 272 425 295 c 1,29,-1
 412 228 l 1,0,1
389 110 m 1,30,31
 355 88 355 88 328.5 78 c 128,-1,32
 302 68 302 68 275 68 c 0,33,34
 246 68 246 68 209 85 c 0,35,36
 203 87 203 87 203 88 c 1,37,38
 197 90 l 2,39,40
 157 108 157 108 130 108 c 0,41,42
 83 108 83 108 22 63 c 1,43,-1
 35 131 l 1,44,45
 69 152 69 152 96.5 162 c 128,-1,46
 124 172 124 172 150 172 c 0,47,48
 181 172 181 172 217 156 c 2,49,50
 222 155 222 155 223 153 c 1,51,52
 224 152 224 152 225 152 c 128,-1,53
 226 152 226 152 228 151 c 0,54,55
 270 134 270 134 295 134 c 256,56,57
 320 134 320 134 345 144 c 128,-1,58
 370 154 370 154 402 179 c 1,59,-1
 389 110 l 1,30,31
EndSplineSet
EndChar
StartChar: Delta
Encoding: 8710 8710 168
Width: 398
Flags: W
Fore
71 71 m 1,0,-1
 253 71 l 1,1,-1
 209 310 l 1,2,-1
 71 71 l 1,0,-1
272 412 m 1,3,-1
 348 0 l 1,4,-1
 -50 0 l 1,5,-1
 187 412 l 1,6,-1
 272 412 l 1,3,-1
EndSplineSet
EndChar
StartChar: guillemotleft
Encoding: 171 171 169
Width: 369
Flags: W
Fore
176 230 m 1,0,-1
 82 167 l 1,1,-1
 152 106 l 1,2,-1
 139 39 l 1,3,-1
 21 142 l 1,4,-1
 31 193 l 1,5,-1
 189 297 l 1,6,-1
 176 230 l 1,0,-1
310 230 m 1,7,-1
 216 167 l 1,8,-1
 286 106 l 1,9,-1
 273 39 l 1,10,-1
 155 142 l 1,11,-1
 165 193 l 1,12,-1
 323 297 l 1,13,-1
 310 230 l 1,7,-1
EndSplineSet
EndChar
StartChar: guillemotright
Encoding: 187 187 170
Width: 369
Flags: W
Fore
313 193 m 1,0,-1
 303 142 l 1,1,-1
 145 39 l 1,2,-1
 158 106 l 1,3,-1
 251 167 l 1,4,-1
 182 230 l 1,5,-1
 195 297 l 1,6,-1
 313 193 l 1,0,-1
178 193 m 1,7,-1
 168 142 l 1,8,-1
 11 39 l 1,9,-1
 24 106 l 1,10,-1
 118 167 l 1,11,-1
 48 230 l 1,12,-1
 61 297 l 1,13,-1
 178 193 l 1,7,-1
EndSplineSet
EndChar
StartChar: ellipsis
Encoding: 8230 8230 171
Width: 572
Flags: W
Fore
496 108 m 1,0,-1
 476 0 l 1,1,-1
 377 0 l 1,2,-1
 397 108 l 1,3,-1
 496 108 l 1,0,-1
116 108 m 1,4,-1
 96 0 l 1,5,-1
 -5 0 l 1,6,-1
 15 108 l 1,7,-1
 116 108 l 1,4,-1
306 108 m 1,8,-1
 286 0 l 1,9,-1
 186 0 l 1,10,-1
 206 108 l 1,11,-1
 306 108 l 1,8,-1
EndSplineSet
EndChar
StartChar: Agrave
Encoding: 192 192 173
Width: 443
Flags: W
Fore
102 76 m 1,0,-1
 60 0 l 1,1,-1
 -47 0 l 1,2,-1
 188 417 l 1,3,-1
 316 417 l 1,4,-1
 390 0 l 1,5,-1
 282 0 l 1,6,-1
 270 76 l 1,7,-1
 102 76 l 1,0,-1
257 152 m 1,8,-1
 234 319 l 1,9,-1
 143 152 l 1,10,-1
 257 152 l 1,8,-1
293 456 m 1,11,-1
 239 456 l 1,12,-1
 174 531 l 1,13,-1
 253 531 l 1,14,-1
 293 456 l 1,11,-1
EndSplineSet
EndChar
StartChar: Atilde
Encoding: 195 195 174
Width: 443
Flags: W
Fore
102 76 m 1,0,-1
 60 0 l 1,1,-1
 -47 0 l 1,2,-1
 188 417 l 1,3,-1
 316 417 l 1,4,-1
 390 0 l 1,5,-1
 282 0 l 1,6,-1
 270 76 l 1,7,-1
 102 76 l 1,0,-1
257 152 m 1,8,-1
 234 319 l 1,9,-1
 143 152 l 1,10,-1
 257 152 l 1,8,-1
242 479 m 2,11,12
 241 480 241 480 240.5 480 c 128,-1,13
 240 480 240 480 239 481 c 0,14,15
 226 489 226 489 221 489 c 0,16,17
 212 489 212 489 204.5 480.5 c 128,-1,18
 197 472 197 472 194 457 c 1,19,-1
 194 456 l 1,20,-1
 155 456 l 1,21,-1
 157 464 l 2,22,23
 162 494 162 494 181 512.5 c 128,-1,24
 200 531 200 531 225 531 c 0,25,26
 242 531 242 531 264 517 c 2,27,-1
 278 506 l 2,28,29
 289 498 289 498 297 498 c 0,30,31
 307 498 307 498 315 506.5 c 128,-1,32
 323 515 323 515 326 531 c 1,33,-1
 365 531 l 1,34,35
 364 529 364 529 363 526 c 128,-1,36
 362 523 362 523 362 522 c 0,37,38
 356 493 356 493 337.5 474.5 c 128,-1,39
 319 456 319 456 294 456 c 0,40,41
 283 456 283 456 273.5 459 c 128,-1,42
 264 462 264 462 256 470 c 1,43,-1
 242 479 l 2,11,12
EndSplineSet
EndChar
StartChar: Otilde
Encoding: 213 213 175
Width: 486
Flags: W
Fore
261 347 m 0,0,1
 210 347 210 347 176.5 310.5 c 128,-1,2
 143 274 143 274 130 208 c 256,3,4
 117 142 117 142 136.5 105.5 c 128,-1,5
 156 69 156 69 207 69 c 0,6,7
 255 69 255 69 289.5 105.5 c 128,-1,8
 324 142 324 142 337 208 c 256,9,10
 350 274 350 274 329.5 310.5 c 128,-1,11
 309 347 309 347 261 347 c 0,0,1
276 424 m 256,12,13
 378 424 378 424 422.5 367 c 128,-1,14
 467 310 467 310 447 208 c 256,15,16
 427 106 427 106 360.5 49 c 128,-1,17
 294 -8 294 -8 192 -8 c 256,18,19
 90 -8 90 -8 44 49 c 128,-1,20
 -2 106 -2 106 18 208 c 256,21,22
 38 310 38 310 106 367 c 128,-1,23
 174 424 174 424 276 424 c 256,12,13
265 479 m 2,24,25
 264 480 264 480 263.5 480 c 128,-1,26
 263 480 263 480 262 481 c 0,27,28
 249 489 249 489 244 489 c 0,29,30
 235 489 235 489 227.5 480.5 c 128,-1,31
 220 472 220 472 217 457 c 1,32,-1
 217 456 l 1,33,-1
 178 456 l 1,34,-1
 180 464 l 2,35,36
 185 494 185 494 204 512.5 c 128,-1,37
 223 531 223 531 248 531 c 0,38,39
 265 531 265 531 287 517 c 2,40,-1
 301 506 l 2,41,42
 312 498 312 498 320 498 c 0,43,44
 330 498 330 498 338 506.5 c 128,-1,45
 346 515 346 515 349 531 c 1,46,-1
 388 531 l 1,47,48
 387 529 387 529 386 526 c 128,-1,49
 385 523 385 523 385 522 c 0,50,51
 379 493 379 493 360.5 474.5 c 128,-1,52
 342 456 342 456 317 456 c 0,53,54
 306 456 306 456 296.5 459 c 128,-1,55
 287 462 287 462 279 470 c 1,56,-1
 265 479 l 2,24,25
EndSplineSet
EndChar
StartChar: OE
Encoding: 338 338 176
Width: 667
Flags: W
Fore
315 336 m 2,0,1
 154 336 154 336 130 209 c 0,2,3
 106 81 106 81 265 81 c 2,4,-1
 295 81 l 1,5,-1
 345 336 l 1,6,-1
 315 336 l 2,0,1
651 417 m 1,7,-1
 635 336 l 1,8,-1
 452 336 l 1,9,-1
 436 257 l 1,10,-1
 607 257 l 1,11,-1
 592 177 l 1,12,-1
 421 177 l 1,13,-1
 402 81 l 1,14,-1
 591 81 l 1,15,-1
 576 0 l 1,16,-1
 255 0 l 1,17,-1
 234 0 l 2,18,19
 110 0 110 0 54 53.5 c 128,-1,20
 -2 107 -2 107 18 209 c 0,21,22
 38 309 38 309 114.5 363 c 128,-1,23
 191 417 191 417 315 417 c 2,24,-1
 336 417 l 1,25,-1
 651 417 l 1,7,-1
EndSplineSet
EndChar
StartChar: oe
Encoding: 339 339 177
Width: 626
Flags: W
Fore
482 190 m 1,0,1
 488 219 488 219 474 236 c 128,-1,2
 460 253 460 253 434 253 c 0,3,4
 406 253 406 253 384.5 237.5 c 128,-1,5
 363 222 363 222 352 190 c 1,6,-1
 482 190 l 1,7,-1
 482 190 l 1,0,1
573 129 m 1,8,-1
 340 129 l 1,9,10
 335 94 335 94 354 76 c 128,-1,11
 373 58 373 58 412 58 c 0,12,13
 443 58 443 58 477 67.5 c 128,-1,14
 511 77 511 77 551 96 c 1,15,-1
 536 19 l 1,16,17
 498 5 498 5 461 -1.5 c 128,-1,18
 424 -8 424 -8 390 -8 c 0,19,20
 342 -8 342 -8 315.5 3.5 c 128,-1,21
 289 15 289 15 273 39 c 1,22,23
 215 -8 215 -8 144 -8 c 0,24,25
 63 -8 63 -8 26 35 c 128,-1,26
 -11 78 -11 78 4 156 c 256,27,28
 19 234 19 234 73 277 c 128,-1,29
 127 320 127 320 208 320 c 0,30,31
 283 320 283 320 317 273 c 1,32,33
 345 297 345 297 375 308.5 c 128,-1,34
 405 320 405 320 443 320 c 0,35,36
 521 320 521 320 557 276.5 c 128,-1,37
 593 233 593 233 578 157 c 2,38,-1
 573 129 l 1,8,-1
194 248 m 0,39,40
 126 248 126 248 109 156 c 0,41,42
 100 111 100 111 112.5 87 c 128,-1,43
 125 63 125 63 158 63 c 0,44,45
 192 63 192 63 213.5 87 c 128,-1,46
 235 111 235 111 244 156 c 0,47,48
 261 248 261 248 194 248 c 0,39,40
EndSplineSet
EndChar
StartChar: endash
Encoding: 8211 8211 178
Width: 286
Flags: W
Fore
273 193 m 1,0,-1
 259 121 l 1,1,-1
 -27 121 l 1,2,-1
 -13 193 l 1,3,-1
 273 193 l 1,0,-1
EndSplineSet
EndChar
StartChar: emdash
Encoding: 8212 8212 179
Width: 572
Flags: W
Fore
559 193 m 1,0,-1
 545 121 l 1,1,-1
 -27 121 l 1,2,-1
 -13 193 l 1,3,-1
 559 193 l 1,0,-1
EndSplineSet
EndChar
StartChar: quotedblleft
Encoding: 8220 8220 180
Width: 375
Flags: W
Fore
196 240 m 1,0,-1
 211 318 l 1,1,-1
 294 417 l 1,2,-1
 355 417 l 1,3,-1
 306 318 l 1,4,-1
 291 240 l 1,5,-1
 196 240 l 1,0,-1
55 240 m 1,6,-1
 71 319 l 1,7,-1
 154 417 l 1,8,-1
 213 417 l 1,9,-1
 165 319 l 1,10,-1
 149 240 l 1,11,-1
 55 240 l 1,6,-1
EndSplineSet
EndChar
StartChar: quotedblright
Encoding: 8221 8221 181
Width: 375
Flags: W
Fore
206 417 m 1,0,-1
 190 337 l 1,1,-1
 108 240 l 1,2,-1
 48 240 l 1,3,-1
 96 337 l 1,4,-1
 112 417 l 1,5,-1
 206 417 l 1,0,-1
348 417 m 1,6,-1
 332 337 l 1,7,-1
 249 240 l 1,8,-1
 190 240 l 1,9,-1
 237 337 l 1,10,-1
 253 417 l 1,11,-1
 348 417 l 1,6,-1
EndSplineSet
EndChar
StartChar: quoteleft
Encoding: 8216 8216 182
Width: 217
Flags: W
Fore
55 240 m 1,0,-1
 71 319 l 1,1,-1
 154 417 l 1,2,-1
 213 417 l 1,3,-1
 165 319 l 1,4,-1
 149 240 l 1,5,-1
 55 240 l 1,0,-1
EndSplineSet
EndChar
StartChar: quoteright
Encoding: 8217 8217 183
Width: 217
Flags: W
Fore
190 417 m 1,0,-1
 174 337 l 1,1,-1
 92 240 l 1,2,-1
 33 240 l 1,3,-1
 79 337 l 1,4,-1
 95 417 l 1,5,-1
 190 417 l 1,0,-1
EndSplineSet
EndChar
StartChar: divide
Encoding: 247 247 184
Width: 479
Flags: W
Fore
254 110 m 1,0,-1
 237 24 l 1,1,-1
 150 24 l 1,2,-1
 167 110 l 1,3,-1
 254 110 l 1,0,-1
298 335 m 1,4,-1
 281 248 l 1,5,-1
 194 248 l 1,6,-1
 211 335 l 1,7,-1
 298 335 l 1,4,-1
409 212 m 1,8,-1
 396 147 l 1,9,-1
 38 147 l 1,10,-1
 51 212 l 1,11,-1
 409 212 l 1,8,-1
EndSplineSet
EndChar
StartChar: lozenge
Encoding: 9674 9674 185
Width: 283
Flags: W
Fore
17 165 m 1,0,-1
 79 -65 l 1,1,-1
 230 165 l 1,2,-1
 168 393 l 1,3,-1
 17 165 l 1,0,-1
263 165 m 1,4,-1
 66 -133 l 1,5,-1
 -17 165 l 1,6,-1
 181 461 l 1,7,-1
 263 165 l 1,4,-1
EndSplineSet
EndChar
StartChar: ydieresis
Encoding: 255 255 186
Width: 372
Flags: W
Fore
117 313 m 1,0,-1
 160 101 l 1,1,-1
 272 313 l 1,2,-1
 372 313 l 1,3,-1
 175 -29 l 2,4,5
 144 -82 144 -82 113.5 -103 c 128,-1,6
 83 -124 83 -124 41 -124 c 2,7,-1
 -18 -124 l 1,8,-1
 -5 -58 l 1,9,-1
 26 -58 l 2,10,11
 51 -58 51 -58 65 -50 c 128,-1,12
 79 -42 79 -42 89 -21 c 2,13,-1
 94 -13 l 1,14,-1
 17 313 l 1,15,-1
 117 313 l 1,0,-1
201 443 m 1,16,-1
 187 373 l 1,17,-1
 121 373 l 1,18,-1
 135 443 l 1,19,-1
 201 443 l 1,16,-1
311 443 m 1,20,-1
 297 373 l 1,21,-1
 231 373 l 1,22,-1
 245 443 l 1,23,-1
 311 443 l 1,20,-1
EndSplineSet
EndChar
StartChar: Ydieresis
Encoding: 376 376 187
Width: 414
Flags: W
Fore
143 417 m 1,0,-1
 209 268 l 1,1,-1
 334 417 l 1,2,-1
 451 417 l 1,3,-1
 245 175 l 1,4,-1
 211 0 l 1,5,-1
 102 0 l 1,6,-1
 136 175 l 1,7,-1
 26 417 l 1,8,-1
 143 417 l 1,0,-1
231 531 m 1,9,-1
 217 461 l 1,10,-1
 151 461 l 1,11,-1
 165 531 l 1,12,-1
 231 531 l 1,9,-1
341 531 m 1,13,-1
 327 461 l 1,14,-1
 261 461 l 1,15,-1
 275 531 l 1,16,-1
 341 531 l 1,13,-1
EndSplineSet
EndChar
StartChar: fraction
Encoding: 8725 8725 188
Width: 92
Flags: W
Fore
-160 -8 m 1,0,-1
 170 408 l 1,1,-1
 231 408 l 1,2,-1
 -100 -8 l 1,3,-1
 -160 -8 l 1,0,-1
EndSplineSet
EndChar
StartChar: currency
Encoding: 164 164 189
Width: 364
Flags: W
Fore
16 18 m 1,0,-1
 -18 60 l 1,1,-1
 51 118 l 1,2,3
 45 131 45 131 44.5 146 c 128,-1,4
 44 161 44 161 47 179 c 0,5,6
 51 196 51 196 57.5 211.5 c 128,-1,7
 64 227 64 227 76 240 c 1,8,-1
 29 297 l 1,9,-1
 80 340 l 1,10,-1
 126 282 l 1,11,12
 157 298 157 298 189 298 c 0,13,14
 205 298 205 298 220 294.5 c 128,-1,15
 235 291 235 291 249 283 c 1,16,-1
 318 341 l 1,17,-1
 352 298 l 1,18,-1
 282 241 l 1,19,20
 293 208 293 208 287 179 c 0,21,22
 284 161 284 161 276.5 146.5 c 128,-1,23
 269 132 269 132 258 119 c 1,24,-1
 305 61 l 1,25,-1
 253 19 l 1,26,-1
 207 76 l 1,27,28
 180 59 180 59 143 59 c 0,29,30
 127 59 127 59 113.5 62.5 c 128,-1,31
 100 66 100 66 86 75 c 1,32,-1
 16 18 l 1,0,-1
154 118 m 256,33,34
 180 118 180 118 201.5 135 c 128,-1,35
 223 152 223 152 228 179 c 0,36,37
 233 205 233 205 218.5 223 c 128,-1,38
 204 241 204 241 178 241 c 0,39,40
 153 241 153 241 132 223 c 128,-1,41
 111 205 111 205 106 179 c 0,42,43
 101 152 101 152 114.5 135 c 128,-1,44
 128 118 128 118 154 118 c 256,33,34
EndSplineSet
EndChar
StartChar: guilsinglleft
Encoding: 8249 8249 190
Width: 236
Flags: W
Fore
176 230 m 1,0,-1
 82 167 l 1,1,-1
 152 106 l 1,2,-1
 139 39 l 1,3,-1
 21 142 l 1,4,-1
 31 193 l 1,5,-1
 189 297 l 1,6,-1
 176 230 l 1,0,-1
EndSplineSet
EndChar
StartChar: guilsinglright
Encoding: 8250 8250 191
Width: 236
Flags: W
Fore
178 193 m 1,0,-1
 168 142 l 1,1,-1
 11 39 l 1,2,-1
 24 106 l 1,3,-1
 118 167 l 1,4,-1
 48 230 l 1,5,-1
 61 297 l 1,6,-1
 178 193 l 1,0,-1
EndSplineSet
EndChar
StartChar: fi
Encoding: 64257 64257 192
Width: 424
Flags: W
Fore
409 435 m 1,0,-1
 393 352 l 1,1,-1
 293 352 l 1,2,-1
 309 435 l 1,3,-1
 409 435 l 1,0,-1
275 369 m 1,4,-1
 220 369 l 2,5,6
 199 369 199 369 189.5 361 c 128,-1,7
 180 353 180 353 177 335 c 2,8,-1
 172 313 l 1,9,-1
 385 313 l 1,10,-1
 325 0 l 1,11,-1
 225 0 l 1,12,-1
 272 242 l 1,13,-1
 159 242 l 1,14,-1
 112 0 l 1,15,-1
 11 0 l 1,16,-1
 58 242 l 1,17,-1
 10 242 l 1,18,-1
 23 313 l 1,19,-1
 71 313 l 1,20,-1
 76 335 l 2,21,22
 95 435 95 435 212 435 c 2,23,-1
 288 435 l 1,24,-1
 275 369 l 1,4,-1
EndSplineSet
Ligature: 0 0 'liga' f i
EndChar
StartChar: fl
Encoding: 64258 64258 193
Width: 424
Flags: W
Fore
409 435 m 1,0,-1
 325 0 l 1,1,-1
 225 0 l 1,2,-1
 296 369 l 1,3,-1
 220 369 l 2,4,5
 198 369 198 369 188 361 c 128,-1,6
 178 353 178 353 175 335 c 2,7,-1
 170 313 l 1,8,-1
 250 313 l 1,9,-1
 237 242 l 1,10,-1
 157 242 l 1,11,-1
 110 0 l 1,12,-1
 10 0 l 1,13,-1
 57 242 l 1,14,-1
 8 242 l 1,15,-1
 21 313 l 1,16,-1
 70 313 l 1,17,-1
 75 335 l 2,18,19
 94 435 94 435 211 435 c 2,20,-1
 409 435 l 1,0,-1
EndSplineSet
Ligature: 0 0 'liga' f l
EndChar
StartChar: daggerdbl
Encoding: 8225 8225 194
Width: 286
Flags: W
Fore
219 417 m 1,0,-1
 198 311 l 1,1,-1
 279 311 l 1,2,-1
 266 245 l 1,3,-1
 185 245 l 1,4,-1
 160 118 l 1,5,-1
 241 118 l 1,6,-1
 228 50 l 1,7,-1
 147 50 l 1,8,-1
 127 -55 l 1,9,-1
 35 -55 l 1,10,-1
 55 50 l 1,11,-1
 -26 50 l 1,12,-1
 -13 118 l 1,13,-1
 68 118 l 1,14,-1
 93 245 l 1,15,-1
 12 245 l 1,16,-1
 25 311 l 1,17,-1
 106 311 l 1,18,-1
 127 417 l 1,19,-1
 219 417 l 1,0,-1
EndSplineSet
EndChar
StartChar: periodcentered
Encoding: 183 183 195
Width: 217
Flags: W
Fore
157 252 m 1,0,-1
 137 145 l 1,1,-1
 36 145 l 1,2,-1
 56 252 l 1,3,-1
 157 252 l 1,0,-1
EndSplineSet
EndChar
StartChar: quotesinglbase
Encoding: 8218 8218 196
Width: 217
Flags: W
Fore
134 108 m 1,0,-1
 119 28 l 1,1,-1
 36 -69 l 1,2,-1
 -22 -69 l 1,3,-1
 23 28 l 1,4,-1
 38 108 l 1,5,-1
 134 108 l 1,0,-1
EndSplineSet
EndChar
StartChar: quotedblbase
Encoding: 8222 8222 197
Width: 375
Flags: W
Fore
134 108 m 1,0,-1
 119 28 l 1,1,-1
 36 -69 l 1,2,-1
 -22 -69 l 1,3,-1
 23 28 l 1,4,-1
 38 108 l 1,5,-1
 134 108 l 1,0,-1
276 108 m 1,6,-1
 261 28 l 1,7,-1
 178 -69 l 1,8,-1
 118 -69 l 1,9,-1
 166 28 l 1,10,-1
 181 108 l 1,11,-1
 276 108 l 1,6,-1
EndSplineSet
EndChar
StartChar: perthousand
Encoding: 8240 8240 198
Width: 824
Flags: W
Fore
682 172 m 0,0,1
 639 172 639 172 627 106 c 256,2,3
 615 40 615 40 656 40 c 0,4,5
 699 40 699 40 711 106 c 256,6,7
 723 172 723 172 682 172 c 0,0,1
691 219 m 0,8,9
 742 219 742 219 766.5 188.5 c 128,-1,10
 791 158 791 158 780 106 c 0,11,12
 769 52 769 52 733.5 22 c 128,-1,13
 698 -8 698 -8 647 -8 c 0,14,15
 593 -8 593 -8 569 22 c 128,-1,16
 545 52 545 52 556 106 c 0,17,18
 567 158 567 158 602 188.5 c 128,-1,19
 637 219 637 219 691 219 c 0,8,9
153 377 m 0,20,21
 111 377 111 377 97 311 c 0,22,23
 84 245 84 245 127 245 c 0,24,25
 146 245 146 245 160 261.5 c 128,-1,26
 174 278 174 278 181 311 c 256,27,28
 188 344 188 344 180 360.5 c 128,-1,29
 172 377 172 377 153 377 c 0,20,21
162 424 m 256,30,31
 214 424 214 424 238.5 394.5 c 128,-1,32
 263 365 263 365 252 311 c 256,33,34
 241 257 241 257 205.5 227.5 c 128,-1,35
 170 198 170 198 118 198 c 256,36,37
 66 198 66 198 42 227.5 c 128,-1,38
 18 257 18 257 29 311 c 256,39,40
 40 365 40 365 75 394.5 c 128,-1,41
 110 424 110 424 162 424 c 256,30,31
74 -8 m 1,42,-1
 418 424 l 1,43,-1
 480 424 l 1,44,-1
 135 -8 l 1,45,-1
 74 -8 l 1,42,-1
435 219 m 256,46,47
 487 219 487 219 511.5 188.5 c 128,-1,48
 536 158 536 158 525 106 c 0,49,50
 514 52 514 52 478.5 22 c 128,-1,51
 443 -8 443 -8 391 -8 c 256,52,53
 339 -8 339 -8 314.5 22 c 128,-1,54
 290 52 290 52 301 106 c 0,55,56
 312 158 312 158 347.5 188.5 c 128,-1,57
 383 219 383 219 435 219 c 256,46,47
426 172 m 0,58,59
 383 172 383 172 371 106 c 256,60,61
 359 40 359 40 400 40 c 0,62,63
 419 40 419 40 433.5 57 c 128,-1,64
 448 74 448 74 454 106 c 0,65,66
 466 172 466 172 426 172 c 0,58,59
EndSplineSet
EndChar
StartChar: Acircumflex
Encoding: 194 194 199
Width: 443
Flags: W
Fore
102 76 m 1,0,-1
 60 0 l 1,1,-1
 -47 0 l 1,2,-1
 188 417 l 1,3,-1
 316 417 l 1,4,-1
 390 0 l 1,5,-1
 282 0 l 1,6,-1
 270 76 l 1,7,-1
 102 76 l 1,0,-1
257 152 m 1,8,-1
 234 319 l 1,9,-1
 143 152 l 1,10,-1
 257 152 l 1,8,-1
310 531 m 1,11,-1
 357 456 l 1,12,-1
 308 456 l 1,13,-1
 262 501 l 1,14,-1
 196 456 l 1,15,-1
 147 456 l 1,16,-1
 224 531 l 1,17,-1
 310 531 l 1,11,-1
EndSplineSet
EndChar
StartChar: Ecircumflex
Encoding: 202 202 200
Width: 390
Flags: W
Fore
375 417 m 1,0,-1
 359 336 l 1,1,-1
 175 336 l 1,2,-1
 159 257 l 1,3,-1
 331 257 l 1,4,-1
 316 177 l 1,5,-1
 144 177 l 1,6,-1
 125 81 l 1,7,-1
 313 81 l 1,8,-1
 298 0 l 1,9,-1
 2 0 l 1,10,-1
 83 417 l 1,11,-1
 375 417 l 1,0,-1
289 531 m 1,12,-1
 336 456 l 1,13,-1
 287 456 l 1,14,-1
 241 501 l 1,15,-1
 175 456 l 1,16,-1
 126 456 l 1,17,-1
 203 531 l 1,18,-1
 289 531 l 1,12,-1
EndSplineSet
EndChar
StartChar: Aacute
Encoding: 193 193 201
Width: 443
Flags: W
Fore
102 76 m 1,0,-1
 60 0 l 1,1,-1
 -47 0 l 1,2,-1
 188 417 l 1,3,-1
 316 417 l 1,4,-1
 390 0 l 1,5,-1
 282 0 l 1,6,-1
 270 76 l 1,7,-1
 102 76 l 1,0,-1
257 152 m 1,8,-1
 234 319 l 1,9,-1
 143 152 l 1,10,-1
 257 152 l 1,8,-1
360 531 m 1,11,-1
 266 456 l 1,12,-1
 211 456 l 1,13,-1
 281 531 l 1,14,-1
 360 531 l 1,11,-1
EndSplineSet
EndChar
StartChar: Edieresis
Encoding: 203 203 202
Width: 390
Flags: W
Fore
375 417 m 1,0,-1
 359 336 l 1,1,-1
 175 336 l 1,2,-1
 159 257 l 1,3,-1
 331 257 l 1,4,-1
 316 177 l 1,5,-1
 144 177 l 1,6,-1
 125 81 l 1,7,-1
 313 81 l 1,8,-1
 298 0 l 1,9,-1
 2 0 l 1,10,-1
 83 417 l 1,11,-1
 375 417 l 1,0,-1
224 531 m 1,12,-1
 210 461 l 1,13,-1
 144 461 l 1,14,-1
 158 531 l 1,15,-1
 224 531 l 1,12,-1
334 531 m 1,16,-1
 320 461 l 1,17,-1
 254 461 l 1,18,-1
 268 531 l 1,19,-1
 334 531 l 1,16,-1
EndSplineSet
EndChar
StartChar: Egrave
Encoding: 200 200 203
Width: 390
Flags: W
Fore
375 417 m 1,0,-1
 359 336 l 1,1,-1
 175 336 l 1,2,-1
 159 257 l 1,3,-1
 331 257 l 1,4,-1
 316 177 l 1,5,-1
 144 177 l 1,6,-1
 125 81 l 1,7,-1
 313 81 l 1,8,-1
 298 0 l 1,9,-1
 2 0 l 1,10,-1
 83 417 l 1,11,-1
 375 417 l 1,0,-1
272 456 m 1,12,-1
 218 456 l 1,13,-1
 153 531 l 1,14,-1
 232 531 l 1,15,-1
 272 456 l 1,12,-1
EndSplineSet
EndChar
StartChar: Iacute
Encoding: 205 205 204
Width: 213
Flags: W
Fore
191 417 m 1,0,-1
 110 0 l 1,1,-1
 2 0 l 1,2,-1
 83 417 l 1,3,-1
 191 417 l 1,0,-1
249 531 m 1,4,-1
 155 456 l 1,5,-1
 100 456 l 1,6,-1
 170 531 l 1,7,-1
 249 531 l 1,4,-1
EndSplineSet
EndChar
StartChar: Icircumflex
Encoding: 206 206 205
Width: 213
Flags: W
Fore
191 417 m 1,0,-1
 110 0 l 1,1,-1
 2 0 l 1,2,-1
 83 417 l 1,3,-1
 191 417 l 1,0,-1
199 531 m 1,4,-1
 246 456 l 1,5,-1
 197 456 l 1,6,-1
 151 501 l 1,7,-1
 85 456 l 1,8,-1
 36 456 l 1,9,-1
 113 531 l 1,10,-1
 199 531 l 1,4,-1
EndSplineSet
EndChar
StartChar: Idieresis
Encoding: 207 207 206
Width: 213
Flags: W
Fore
191 417 m 1,0,-1
 110 0 l 1,1,-1
 2 0 l 1,2,-1
 83 417 l 1,3,-1
 191 417 l 1,0,-1
134 531 m 1,4,-1
 120 461 l 1,5,-1
 54 461 l 1,6,-1
 68 531 l 1,7,-1
 134 531 l 1,4,-1
244 531 m 1,8,-1
 230 461 l 1,9,-1
 164 461 l 1,10,-1
 178 531 l 1,11,-1
 244 531 l 1,8,-1
EndSplineSet
EndChar
StartChar: Igrave
Encoding: 204 204 207
Width: 213
Flags: W
Fore
191 417 m 1,0,-1
 110 0 l 1,1,-1
 2 0 l 1,2,-1
 83 417 l 1,3,-1
 191 417 l 1,0,-1
182 456 m 1,4,-1
 128 456 l 1,5,-1
 63 531 l 1,6,-1
 142 531 l 1,7,-1
 182 456 l 1,4,-1
EndSplineSet
EndChar
StartChar: Oacute
Encoding: 211 211 208
Width: 486
Flags: W
Fore
261 347 m 0,0,1
 210 347 210 347 176.5 310.5 c 128,-1,2
 143 274 143 274 130 208 c 256,3,4
 117 142 117 142 136.5 105.5 c 128,-1,5
 156 69 156 69 207 69 c 0,6,7
 255 69 255 69 289.5 105.5 c 128,-1,8
 324 142 324 142 337 208 c 256,9,10
 350 274 350 274 329.5 310.5 c 128,-1,11
 309 347 309 347 261 347 c 0,0,1
276 424 m 256,12,13
 378 424 378 424 422.5 367 c 128,-1,14
 467 310 467 310 447 208 c 256,15,16
 427 106 427 106 360.5 49 c 128,-1,17
 294 -8 294 -8 192 -8 c 256,18,19
 90 -8 90 -8 44 49 c 128,-1,20
 -2 106 -2 106 18 208 c 256,21,22
 38 310 38 310 106 367 c 128,-1,23
 174 424 174 424 276 424 c 256,12,13
383 531 m 1,24,-1
 289 456 l 1,25,-1
 234 456 l 1,26,-1
 304 531 l 1,27,-1
 383 531 l 1,24,-1
EndSplineSet
EndChar
StartChar: Ocircumflex
Encoding: 212 212 209
Width: 486
Flags: W
Fore
261 347 m 0,0,1
 210 347 210 347 176.5 310.5 c 128,-1,2
 143 274 143 274 130 208 c 256,3,4
 117 142 117 142 136.5 105.5 c 128,-1,5
 156 69 156 69 207 69 c 0,6,7
 255 69 255 69 289.5 105.5 c 128,-1,8
 324 142 324 142 337 208 c 256,9,10
 350 274 350 274 329.5 310.5 c 128,-1,11
 309 347 309 347 261 347 c 0,0,1
276 424 m 256,12,13
 378 424 378 424 422.5 367 c 128,-1,14
 467 310 467 310 447 208 c 256,15,16
 427 106 427 106 360.5 49 c 128,-1,17
 294 -8 294 -8 192 -8 c 256,18,19
 90 -8 90 -8 44 49 c 128,-1,20
 -2 106 -2 106 18 208 c 256,21,22
 38 310 38 310 106 367 c 128,-1,23
 174 424 174 424 276 424 c 256,12,13
333 531 m 1,24,-1
 380 456 l 1,25,-1
 331 456 l 1,26,-1
 285 501 l 1,27,-1
 219 456 l 1,28,-1
 170 456 l 1,29,-1
 247 531 l 1,30,-1
 333 531 l 1,24,-1
EndSplineSet
EndChar
StartChar: Ograve
Encoding: 210 210 210
Width: 486
Flags: W
Fore
261 347 m 0,0,1
 210 347 210 347 176.5 310.5 c 128,-1,2
 143 274 143 274 130 208 c 256,3,4
 117 142 117 142 136.5 105.5 c 128,-1,5
 156 69 156 69 207 69 c 0,6,7
 255 69 255 69 289.5 105.5 c 128,-1,8
 324 142 324 142 337 208 c 256,9,10
 350 274 350 274 329.5 310.5 c 128,-1,11
 309 347 309 347 261 347 c 0,0,1
276 424 m 256,12,13
 378 424 378 424 422.5 367 c 128,-1,14
 467 310 467 310 447 208 c 256,15,16
 427 106 427 106 360.5 49 c 128,-1,17
 294 -8 294 -8 192 -8 c 256,18,19
 90 -8 90 -8 44 49 c 128,-1,20
 -2 106 -2 106 18 208 c 256,21,22
 38 310 38 310 106 367 c 128,-1,23
 174 424 174 424 276 424 c 256,12,13
316 456 m 1,24,-1
 262 456 l 1,25,-1
 197 531 l 1,26,-1
 276 531 l 1,27,-1
 316 456 l 1,24,-1
EndSplineSet
EndChar
StartChar: Uacute
Encoding: 218 218 211
Width: 464
Flags: W
Fore
191 417 m 1,0,-1
 142 167 l 2,1,2
 132 116 132 116 144.5 93 c 128,-1,3
 157 70 157 70 195 70 c 256,4,5
 233 70 233 70 255 93 c 128,-1,6
 277 116 277 116 287 167 c 2,7,-1
 336 417 l 1,8,-1
 443 417 l 1,9,-1
 394 167 l 2,10,11
 377 79 377 79 325 35.5 c 128,-1,12
 273 -8 273 -8 180 -8 c 0,13,14
 0 -8 0 -8 34 167 c 2,15,-1
 83 417 l 1,16,-1
 191 417 l 1,0,-1
371 531 m 1,17,-1
 277 456 l 1,18,-1
 222 456 l 1,19,-1
 292 531 l 1,20,-1
 371 531 l 1,17,-1
EndSplineSet
EndChar
StartChar: Ucircumflex
Encoding: 219 219 212
Width: 464
Flags: W
Fore
191 417 m 1,0,-1
 142 167 l 2,1,2
 132 116 132 116 144.5 93 c 128,-1,3
 157 70 157 70 195 70 c 256,4,5
 233 70 233 70 255 93 c 128,-1,6
 277 116 277 116 287 167 c 2,7,-1
 336 417 l 1,8,-1
 443 417 l 1,9,-1
 394 167 l 2,10,11
 377 79 377 79 325 35.5 c 128,-1,12
 273 -8 273 -8 180 -8 c 0,13,14
 0 -8 0 -8 34 167 c 2,15,-1
 83 417 l 1,16,-1
 191 417 l 1,0,-1
321 531 m 1,17,-1
 368 456 l 1,18,-1
 319 456 l 1,19,-1
 273 501 l 1,20,-1
 207 456 l 1,21,-1
 158 456 l 1,22,-1
 235 531 l 1,23,-1
 321 531 l 1,17,-1
EndSplineSet
EndChar
StartChar: Ugrave
Encoding: 217 217 213
Width: 464
Flags: W
Fore
191 417 m 1,0,-1
 142 167 l 2,1,2
 132 116 132 116 144.5 93 c 128,-1,3
 157 70 157 70 195 70 c 256,4,5
 233 70 233 70 255 93 c 128,-1,6
 277 116 277 116 287 167 c 2,7,-1
 336 417 l 1,8,-1
 443 417 l 1,9,-1
 394 167 l 2,10,11
 377 79 377 79 325 35.5 c 128,-1,12
 273 -8 273 -8 180 -8 c 0,13,14
 0 -8 0 -8 34 167 c 2,15,-1
 83 417 l 1,16,-1
 191 417 l 1,0,-1
304 456 m 1,17,-1
 250 456 l 1,18,-1
 185 531 l 1,19,-1
 264 531 l 1,20,-1
 304 456 l 1,17,-1
EndSplineSet
EndChar
StartChar: dotlessi
Encoding: 305 305 214
Width: 195
Flags: W
Fore
159 313 m 1,0,-1
 99 0 l 1,1,-1
 -2 0 l 1,2,-1
 58 313 l 1,3,-1
 159 313 l 1,0,-1
EndSplineSet
EndChar
StartChar: circumflex
Encoding: 710 710 215
Width: 286
Flags: W
Fore
215 457 m 1,0,-1
 266 352 l 1,1,-1
 217 352 l 1,2,-1
 174 415 l 1,3,-1
 105 352 l 1,4,-1
 56 352 l 1,5,-1
 147 457 l 1,6,-1
 215 457 l 1,0,-1
EndSplineSet
EndChar
StartChar: tilde
Encoding: 732 732 216
Width: 286
Flags: W
Fore
154 391 m 1,0,-1
 152 393 l 1,1,2
 139 401 139 401 132 401 c 0,3,4
 113 401 113 401 106 368 c 1,5,-1
 106 366 l 1,6,-1
 67 366 l 1,7,8
 74 403 74 403 92.5 424 c 128,-1,9
 111 445 111 445 137 445 c 0,10,11
 153 445 153 445 176 430 c 1,12,-1
 190 417 l 2,13,14
 201 409 201 409 209 409 c 0,15,16
 219 409 219 409 227 418 c 128,-1,17
 235 427 235 427 237 442 c 1,18,-1
 238 444 l 1,19,-1
 277 444 l 1,20,21
 269 407 269 407 250 386 c 128,-1,22
 231 365 231 365 205 365 c 0,23,24
 194 365 194 365 186 368 c 128,-1,25
 178 371 178 371 167 380 c 2,26,-1
 154 391 l 1,0,-1
EndSplineSet
EndChar
StartChar: macron
Encoding: 175 175 217
Width: 286
Flags: W
Fore
265 435 m 1,0,-1
 255 381 l 1,1,-1
 79 381 l 1,2,-1
 89 435 l 1,3,-1
 265 435 l 1,0,-1
EndSplineSet
EndChar
StartChar: breve
Encoding: 728 728 218
Width: 286
Flags: W
Fore
125 448 m 1,0,1
 125 430 125 430 137 419.5 c 128,-1,2
 149 409 149 409 173 409 c 0,3,4
 195 409 195 409 211 419.5 c 128,-1,5
 227 430 227 430 233 448 c 1,6,-1
 274 448 l 1,7,8
 263 409 263 409 235 387.5 c 128,-1,9
 207 366 207 366 165 366 c 0,10,11
 120 366 120 366 99 387.5 c 128,-1,12
 78 409 78 409 86 448 c 1,13,-1
 125 448 l 1,0,1
EndSplineSet
EndChar
StartChar: dotaccent
Encoding: 729 729 219
Width: 286
Flags: W
Fore
217 443 m 1,0,-1
 203 373 l 1,1,-1
 127 373 l 1,2,-1
 141 443 l 1,3,-1
 217 443 l 1,0,-1
EndSplineSet
EndChar
StartChar: ring
Encoding: 730 730 220
Width: 286
Flags: W
Fore
140 429 m 0,0,1
 137 413 137 413 145.5 402.5 c 128,-1,2
 154 392 154 392 170 392 c 0,3,4
 184 392 184 392 197 402.5 c 128,-1,5
 210 413 210 413 213 429 c 0,6,7
 216 443 216 443 207 453.5 c 128,-1,8
 198 464 198 464 184 464 c 0,9,10
 168 464 168 464 155.5 453.5 c 128,-1,11
 143 443 143 443 140 429 c 0,0,1
96 429 m 0,12,13
 99 445 99 445 108 459.5 c 128,-1,14
 117 474 117 474 130 484.5 c 128,-1,15
 143 495 143 495 159 501 c 128,-1,16
 175 507 175 507 192 507 c 0,17,18
 207 507 207 507 220 501 c 128,-1,19
 233 495 233 495 242 484.5 c 128,-1,20
 251 474 251 474 255 459.5 c 128,-1,21
 259 445 259 445 256 429 c 0,22,23
 253 412 253 412 243.5 397.5 c 128,-1,24
 234 383 234 383 220.5 372 c 128,-1,25
 207 361 207 361 191.5 354.5 c 128,-1,26
 176 348 176 348 161 348 c 0,27,28
 127 348 127 348 108 371.5 c 128,-1,29
 89 395 89 395 96 429 c 0,12,13
EndSplineSet
EndChar
StartChar: cedilla
Encoding: 184 184 221
Width: 286
Flags: W
Fore
118 0 m 1,0,1
 142 -36 142 -36 138 -60 c 0,2,3
 128 -112 128 -112 58 -112 c 0,4,5
 45 -112 45 -112 30 -110 c 128,-1,6
 15 -108 15 -108 3 -105 c 1,7,-1
 10 -62 l 1,8,9
 39 -70 39 -70 56 -70 c 0,10,11
 88 -70 88 -70 93 -47 c 0,12,13
 96 -33 96 -33 80 0 c 1,14,-1
 118 0 l 1,15,-1
 118 0 l 1,0,1
EndSplineSet
EndChar
StartChar: hungarumlaut
Encoding: 733 733 222
Width: 286
Flags: W
Fore
206 457 m 1,0,-1
 118 352 l 1,1,-1
 72 352 l 1,2,-1
 146 457 l 1,3,-1
 206 457 l 1,0,-1
312 457 m 1,4,-1
 216 352 l 1,5,-1
 167 352 l 1,6,-1
 248 457 l 1,7,-1
 312 457 l 1,4,-1
EndSplineSet
EndChar
StartChar: ogonek
Encoding: 731 731 223
Width: 286
Flags: W
Fore
116 0 m 1,0,1
 97 -19 97 -19 90.5 -29.5 c 128,-1,2
 84 -40 84 -40 83 -46 c 0,3,4
 81 -57 81 -57 87.5 -63.5 c 128,-1,5
 94 -70 94 -70 107 -70 c 0,6,7
 118 -70 118 -70 129 -68 c 128,-1,8
 140 -66 140 -66 152 -62 c 1,9,-1
 144 -106 l 1,10,11
 113 -112 113 -112 90 -112 c 0,12,13
 24 -112 24 -112 33 -62 c 0,14,15
 36 -48 36 -48 46 -33 c 128,-1,16
 56 -18 56 -18 77 0 c 1,17,-1
 116 0 l 1,0,1
EndSplineSet
EndChar
StartChar: caron
Encoding: 711 711 224
Width: 286
Flags: W
Fore
76 457 m 1,0,-1
 125 457 l 1,1,-1
 170 394 l 1,2,-1
 237 457 l 1,3,-1
 286 457 l 1,4,-1
 195 352 l 1,5,-1
 127 352 l 1,6,-1
 76 457 l 1,0,-1
EndSplineSet
EndChar
StartChar: Lslash
Encoding: 321 321 225
Width: 367
Flags: W
Fore
194 417 m 1,0,-1
 171 300 l 1,1,-1
 252 352 l 1,2,-1
 281 298 l 1,3,-1
 156 223 l 1,4,-1
 128 81 l 1,5,-1
 316 81 l 1,6,-1
 301 0 l 1,7,-1
 5 0 l 1,8,-1
 33 147 l 1,9,-1
 -13 117 l 1,10,-1
 -44 169 l 1,11,-1
 48 225 l 1,12,-1
 86 417 l 1,13,-1
 194 417 l 1,0,-1
EndSplineSet
EndChar
StartChar: lslash
Encoding: 322 322 226
Width: 212
Flags: W
Fore
190 435 m 1,0,-1
 163 294 l 1,1,-1
 204 319 l 1,2,-1
 226 276 l 1,3,-1
 150 231 l 1,4,-1
 106 0 l 1,5,-1
 5 0 l 1,6,-1
 39 179 l 1,7,-1
 0 154 l 1,8,-1
 -23 198 l 1,9,-1
 52 244 l 1,10,-1
 89 435 l 1,11,-1
 190 435 l 1,0,-1
EndSplineSet
EndChar
StartChar: Scaron
Encoding: 352 352 227
Width: 412
Flags: W
Fore
355 316 m 1,0,1
 322 331 322 331 291.5 339 c 128,-1,2
 261 347 261 347 231 347 c 0,3,4
 191 347 191 347 171.5 336.5 c 128,-1,5
 152 326 152 326 148 304 c 0,6,7
 144 286 144 286 154 276.5 c 128,-1,8
 164 267 164 267 195 261 c 2,9,-1
 240 251 l 2,10,11
 307 238 307 238 331 210 c 128,-1,12
 355 182 355 182 344 128 c 0,13,14
 330 59 330 59 283.5 25.5 c 128,-1,15
 237 -8 237 -8 152 -8 c 0,16,17
 73 -8 73 -8 -1 22 c 1,18,-1
 16 112 l 1,19,20
 52 91 52 91 87 80 c 128,-1,21
 122 69 122 69 157 69 c 256,22,23
 192 69 192 69 212.5 81.5 c 128,-1,24
 233 94 233 94 238 116 c 0,25,26
 242 134 242 134 232 145 c 128,-1,27
 222 156 222 156 184 164 c 2,28,-1
 144 173 l 2,29,30
 84 187 84 187 61.5 216.5 c 128,-1,31
 39 246 39 246 49 295 c 0,32,33
 61 358 61 358 107 391 c 128,-1,34
 153 424 153 424 228 424 c 0,35,36
 263 424 263 424 298.5 419 c 128,-1,37
 334 414 334 414 372 403 c 1,38,-1
 355 316 l 1,0,1
147 531 m 1,39,-1
 196 531 l 1,40,-1
 244 484 l 1,41,-1
 308 531 l 1,42,-1
 357 531 l 1,43,-1
 280 456 l 1,44,-1
 194 456 l 1,45,-1
 147 531 l 1,39,-1
EndSplineSet
EndChar
StartChar: scaron
Encoding: 353 353 228
Width: 340
Flags: W
Fore
286 227 m 1,0,1
 256 241 256 241 228 247 c 128,-1,2
 200 253 200 253 172 253 c 0,3,4
 117 253 117 253 111 225 c 0,5,6
 109 213 109 213 118.5 206.5 c 128,-1,7
 128 200 128 200 154 196 c 2,8,-1
 170 194 l 2,9,10
 247 185 247 185 267 163 c 0,11,12
 290 140 290 140 280 92 c 0,13,14
 262 -8 262 -8 114 -8 c 0,15,16
 84 -8 84 -8 51 -3.5 c 128,-1,17
 18 1 18 1 -13 12 c 1,18,-1
 1 87 l 1,19,20
 56 58 56 58 120 58 c 0,21,22
 180 58 180 58 186 90 c 0,23,24
 189 104 189 104 179.5 110.5 c 128,-1,25
 170 117 170 117 140 121 c 2,26,-1
 122 123 l 2,27,28
 58 131 58 131 35.5 154 c 128,-1,29
 13 177 13 177 22 223 c 0,30,31
 40 320 40 320 180 320 c 0,32,33
 234 320 234 320 301 304 c 1,34,-1
 286 227 l 1,0,1
103 457 m 1,35,-1
 152 457 l 1,36,-1
 197 394 l 1,37,-1
 264 457 l 1,38,-1
 313 457 l 1,39,-1
 222 352 l 1,40,-1
 154 352 l 1,41,-1
 103 457 l 1,35,-1
EndSplineSet
EndChar
StartChar: Zcaron
Encoding: 381 381 229
Width: 415
Flags: W
Fore
413 417 m 1,0,-1
 400 351 l 1,1,-1
 124 81 l 1,2,-1
 354 81 l 1,3,-1
 339 0 l 1,4,-1
 -24 0 l 1,5,-1
 -12 65 l 1,6,-1
 264 336 l 1,7,-1
 48 336 l 1,8,-1
 64 417 l 1,9,-1
 413 417 l 1,0,-1
149 531 m 1,10,-1
 198 531 l 1,11,-1
 246 484 l 1,12,-1
 310 531 l 1,13,-1
 359 531 l 1,14,-1
 282 456 l 1,15,-1
 196 456 l 1,16,-1
 149 531 l 1,10,-1
EndSplineSet
EndChar
StartChar: zcaron
Encoding: 382 382 230
Width: 333
Flags: W
Fore
316 313 m 1,0,-1
 303 244 l 1,1,-1
 104 71 l 1,2,-1
 269 71 l 1,3,-1
 256 0 l 1,4,-1
 -24 0 l 1,5,-1
 -11 69 l 1,6,-1
 187 242 l 1,7,-1
 30 242 l 1,8,-1
 43 313 l 1,9,-1
 316 313 l 1,0,-1
99 457 m 1,10,-1
 148 457 l 1,11,-1
 193 394 l 1,12,-1
 260 457 l 1,13,-1
 309 457 l 1,14,-1
 218 352 l 1,15,-1
 150 352 l 1,16,-1
 99 457 l 1,10,-1
EndSplineSet
EndChar
StartChar: brokenbar
Encoding: 166 166 231
Width: 209
Flags: W
Fore
123 188 m 1,0,-1
 59 188 l 1,1,-1
 100 400 l 1,2,-1
 164 400 l 1,3,-1
 123 188 l 1,0,-1
67 -98 m 1,4,-1
 3 -98 l 1,5,-1
 44 113 l 1,6,-1
 108 113 l 1,7,-1
 67 -98 l 1,4,-1
EndSplineSet
EndChar
StartChar: Eth
Encoding: 208 208 232
Width: 479
Flags: W
Fore
163 247 m 1,0,-1
 229 247 l 1,1,-1
 214 173 l 1,2,-1
 148 173 l 1,3,-1
 130 81 l 1,4,-1
 169 81 l 2,5,6
 235 81 235 81 276 113.5 c 128,-1,7
 317 146 317 146 329 209 c 256,8,9
 341 272 341 272 313 304 c 128,-1,10
 285 336 285 336 219 336 c 2,11,-1
 180 336 l 1,12,-1
 163 247 l 1,0,-1
202 417 m 2,13,14
 295 417 295 417 340 403 c 0,15,16
 383 390 383 390 411 357 c 0,17,18
 458 302 458 302 440 209 c 0,19,20
 422 115 422 115 353 59 c 0,21,22
 311 26 311 26 263 13 c 256,23,24
 215 0 215 0 121 0 c 2,25,-1
 8 0 l 1,26,-1
 41 173 l 1,27,-1
 -8 173 l 1,28,-1
 7 247 l 1,29,-1
 56 247 l 1,30,-1
 89 417 l 1,31,-1
 202 417 l 2,13,14
EndSplineSet
EndChar
StartChar: eth
Encoding: 240 240 233
Width: 393
Flags: W
Fore
246 208 m 1,0,1
 233 215 233 215 218.5 219 c 128,-1,2
 204 223 204 223 189 223 c 0,3,4
 157 223 157 223 136 204 c 128,-1,5
 115 185 115 185 108 151 c 0,6,7
 100 109 100 109 113.5 86 c 128,-1,8
 127 63 127 63 158 63 c 0,9,10
 192 63 192 63 213.5 87 c 128,-1,11
 235 111 235 111 244 156 c 0,12,13
 246 168 246 168 246.5 181 c 128,-1,14
 247 194 247 194 246 208 c 1,0,1
315 307 m 1,15,16
 341 269 341 269 348.5 233.5 c 128,-1,17
 356 198 356 198 348 156 c 0,18,19
 333 78 333 78 279 35 c 128,-1,20
 225 -8 225 -8 144 -8 c 256,21,22
 63 -8 63 -8 26 35 c 128,-1,23
 -11 78 -11 78 4 156 c 0,24,25
 17 222 17 222 65.5 258 c 128,-1,26
 114 294 114 294 189 294 c 0,27,28
 212 294 212 294 232 287 c 1,29,-1
 190 348 l 1,30,-1
 80 315 l 1,31,-1
 77 350 l 1,32,-1
 169 378 l 1,33,-1
 126 435 l 1,34,-1
 225 435 l 1,35,-1
 250 402 l 1,36,-1
 361 434 l 1,37,-1
 364 398 l 1,38,-1
 270 371 l 1,39,-1
 315 307 l 1,40,-1
 315 307 l 1,15,16
EndSplineSet
EndChar
StartChar: Yacute
Encoding: 221 221 234
Width: 414
Flags: W
Fore
143 417 m 1,0,-1
 209 268 l 1,1,-1
 334 417 l 1,2,-1
 451 417 l 1,3,-1
 245 175 l 1,4,-1
 211 0 l 1,5,-1
 102 0 l 1,6,-1
 136 175 l 1,7,-1
 26 417 l 1,8,-1
 143 417 l 1,0,-1
346 531 m 1,9,-1
 252 456 l 1,10,-1
 197 456 l 1,11,-1
 267 531 l 1,12,-1
 346 531 l 1,9,-1
EndSplineSet
EndChar
StartChar: yacute
Encoding: 253 253 235
Width: 372
Flags: W
Fore
117 313 m 1,0,-1
 160 101 l 1,1,-1
 272 313 l 1,2,-1
 372 313 l 1,3,-1
 175 -29 l 2,4,5
 144 -82 144 -82 113.5 -103 c 128,-1,6
 83 -124 83 -124 41 -124 c 2,7,-1
 -18 -124 l 1,8,-1
 -5 -58 l 1,9,-1
 26 -58 l 2,10,11
 51 -58 51 -58 65 -50 c 128,-1,12
 79 -42 79 -42 89 -21 c 2,13,-1
 94 -13 l 1,14,-1
 17 313 l 1,15,-1
 117 313 l 1,0,-1
342 457 m 1,16,-1
 219 352 l 1,17,-1
 164 352 l 1,18,-1
 263 457 l 1,19,-1
 342 457 l 1,16,-1
EndSplineSet
EndChar
StartChar: Thorn
Encoding: 222 222 236
Width: 422
Flags: W
Fore
110 0 m 1,0,-1
 2 0 l 1,1,-1
 83 417 l 1,2,-1
 191 417 l 1,3,-1
 177 345 l 1,4,-1
 248 345 l 2,5,6
 329 345 329 345 363.5 309.5 c 128,-1,7
 398 274 398 274 385 208 c 256,8,9
 372 142 372 142 323.5 106.5 c 128,-1,10
 275 71 275 71 194 71 c 2,11,-1
 123 71 l 1,12,-1
 110 0 l 1,0,-1
138 149 m 1,13,-1
 198 149 l 2,14,15
 228 149 228 149 249 164.5 c 128,-1,16
 270 180 270 180 275 208 c 256,17,18
 280 236 280 236 265.5 251.5 c 128,-1,19
 251 267 251 267 221 267 c 2,20,-1
 161 267 l 1,21,-1
 138 149 l 1,13,-1
EndSplineSet
EndChar
StartChar: thorn
Encoding: 254 254 237
Width: 410
Flags: W
Fore
75 -119 m 1,0,-1
 -26 -119 l 1,1,-1
 82 435 l 1,2,-1
 183 435 l 1,3,-1
 150 267 l 1,4,5
 197 320 197 320 263 320 c 0,6,7
 321 320 321 320 349 274.5 c 128,-1,8
 377 229 377 229 363 156 c 0,9,10
 356 120 356 120 340.5 90 c 128,-1,11
 325 60 325 60 303 38 c 128,-1,12
 281 16 281 16 254.5 4 c 128,-1,13
 228 -8 228 -8 199 -8 c 0,14,15
 134 -8 134 -8 107 45 c 1,16,-1
 75 -119 l 1,0,-1
212 248 m 256,17,18
 146 248 146 248 129 156 c 0,19,20
 111 64 111 64 176 64 c 0,21,22
 243 64 243 64 261 156 c 0,23,24
 278 248 278 248 212 248 c 256,17,18
EndSplineSet
EndChar
StartChar: minus
Encoding: 8722 8722 238
Width: 479
Flags: W
Fore
409 212 m 1,0,-1
 396 147 l 1,1,-1
 38 147 l 1,2,-1
 51 212 l 1,3,-1
 409 212 l 1,0,-1
EndSplineSet
EndChar
StartChar: multiply
Encoding: 215 215 239
Width: 479
Flags: W
Fore
270 179 m 1,0,-1
 369 58 l 1,1,-1
 312 12 l 1,2,-1
 215 132 l 1,3,-1
 71 12 l 1,4,-1
 32 58 l 1,5,-1
 177 179 l 1,6,-1
 79 300 l 1,7,-1
 136 347 l 1,8,-1
 233 226 l 1,9,-1
 377 347 l 1,10,-1
 416 300 l 1,11,-1
 270 179 l 1,0,-1
EndSplineSet
EndChar
StartChar: onesuperior
Encoding: 185 185 240
Width: 250
Flags: W
Fore
91 231 m 1,0,-1
 119 375 l 1,1,-1
 55 361 l 1,2,-1
 64 407 l 1,3,-1
 130 420 l 1,4,-1
 192 420 l 1,5,-1
 155 231 l 1,6,-1
 213 231 l 1,7,-1
 205 186 l 1,8,-1
 26 186 l 1,9,-1
 34 231 l 1,10,-1
 91 231 l 1,0,-1
EndSplineSet
EndChar
StartChar: twosuperior
Encoding: 178 178 241
Width: 250
Flags: W
Fore
214 234 m 1,0,-1
 205 186 l 1,1,-1
 16 186 l 1,2,-1
 24 230 l 1,3,-1
 127 304 l 2,4,5
 147 318 147 318 156 329.5 c 128,-1,6
 165 341 165 341 167 351 c 0,7,8
 173 383 173 383 136 383 c 0,9,10
 120 383 120 383 98 376.5 c 128,-1,11
 76 370 76 370 52 357 c 1,12,-1
 62 410 l 1,13,14
 113 424 113 424 155 424 c 0,15,16
 200 424 200 424 221 406.5 c 128,-1,17
 242 389 242 389 236 357 c 0,18,19
 232 337 232 337 219.5 320.5 c 128,-1,20
 207 304 207 304 173 279 c 2,21,-1
 111 234 l 1,22,-1
 214 234 l 1,0,-1
EndSplineSet
EndChar
StartChar: threesuperior
Encoding: 179 179 242
Width: 250
Flags: W
Fore
175 313 m 1,0,1
 228 302 228 302 219 254 c 0,2,3
 205 182 205 182 93 182 c 0,4,5
 70 182 70 182 50 185.5 c 128,-1,6
 30 189 30 189 12 195 c 1,7,-1
 22 244 l 1,8,9
 39 234 39 234 55.5 228.5 c 128,-1,10
 72 223 72 223 89 223 c 0,11,12
 116 223 116 223 132 232.5 c 128,-1,13
 148 242 148 242 150 257 c 0,14,15
 154 275 154 275 141 283.5 c 128,-1,16
 128 292 128 292 95 292 c 2,17,-1
 74 292 l 1,18,-1
 82 331 l 1,19,-1
 106 331 l 2,20,21
 135 331 135 331 149 338 c 128,-1,22
 163 345 163 345 165 357 c 0,23,24
 170 383 170 383 125 383 c 0,25,26
 110 383 110 383 92 379 c 128,-1,27
 74 375 74 375 54 368 c 1,28,-1
 63 415 l 1,29,30
 81 419 81 419 102.5 421.5 c 128,-1,31
 124 424 124 424 150 424 c 0,32,33
 196 424 196 424 217.5 408.5 c 128,-1,34
 239 393 239 393 233 364 c 0,35,36
 230 346 230 346 215 332 c 128,-1,37
 200 318 200 318 175 313 c 1,0,1
EndSplineSet
EndChar
StartChar: onequarter
Encoding: 188 188 243
Width: 591
Flags: W
Fore
345 88 m 1,0,-1
 412 88 l 1,1,-1
 429 179 l 1,2,-1
 345 88 l 1,0,-1
505 234 m 1,3,-1
 477 88 l 1,4,-1
 513 88 l 1,5,-1
 504 45 l 1,6,-1
 468 45 l 1,7,-1
 460 0 l 1,8,-1
 395 0 l 1,9,-1
 403 45 l 1,10,-1
 294 45 l 1,11,-1
 303 92 l 1,12,-1
 435 234 l 1,13,-1
 505 234 l 1,3,-1
91 -8 m 1,14,-1
 435 424 l 1,15,-1
 497 424 l 1,16,-1
 153 -8 l 1,17,-1
 91 -8 l 1,14,-1
84 231 m 1,18,-1
 112 375 l 1,19,-1
 48 361 l 1,20,-1
 57 407 l 1,21,-1
 123 420 l 1,22,-1
 184 420 l 1,23,-1
 147 231 l 1,24,-1
 206 231 l 1,25,-1
 198 186 l 1,26,-1
 20 186 l 1,27,-1
 28 231 l 1,28,-1
 84 231 l 1,18,-1
EndSplineSet
Ligature: 0 0 'frac' one fraction four
Ligature: 0 0 'frac' one slash four
EndChar
StartChar: onehalf
Encoding: 189 189 244
Width: 591
Flags: W
Fore
523 47 m 1,0,-1
 514 0 l 1,1,-1
 325 0 l 1,2,-1
 333 44 l 1,3,-1
 435 118 l 2,4,5
 456 132 456 132 465.5 142.5 c 128,-1,6
 475 153 475 153 478 165 c 0,7,8
 483 196 483 196 445 196 c 0,9,10
 411 196 411 196 361 171 c 1,11,-1
 371 223 l 1,12,13
 397 231 397 231 420.5 234.5 c 128,-1,14
 444 238 444 238 464 238 c 0,15,16
 509 238 509 238 530 220.5 c 128,-1,17
 551 203 551 203 545 171 c 0,18,19
 540 151 540 151 527.5 134 c 128,-1,20
 515 117 515 117 483 94 c 2,21,-1
 419 47 l 1,22,-1
 523 47 l 1,0,-1
91 -8 m 1,23,-1
 435 424 l 1,24,-1
 497 424 l 1,25,-1
 153 -8 l 1,26,-1
 91 -8 l 1,23,-1
84 231 m 1,27,-1
 112 375 l 1,28,-1
 48 361 l 1,29,-1
 57 407 l 1,30,-1
 123 420 l 1,31,-1
 184 420 l 1,32,-1
 147 231 l 1,33,-1
 206 231 l 1,34,-1
 198 186 l 1,35,-1
 20 186 l 1,36,-1
 28 231 l 1,37,-1
 84 231 l 1,27,-1
EndSplineSet
Ligature: 0 0 'frac' one fraction two
Ligature: 0 0 'frac' one slash two
EndChar
StartChar: threequarters
Encoding: 190 190 245
Width: 591
Flags: W
Fore
505 234 m 1,0,-1
 477 88 l 1,1,-1
 513 88 l 1,2,-1
 504 45 l 1,3,-1
 468 45 l 1,4,-1
 460 0 l 1,5,-1
 395 0 l 1,6,-1
 403 45 l 1,7,-1
 294 45 l 1,8,-1
 303 92 l 1,9,-1
 435 234 l 1,10,-1
 505 234 l 1,0,-1
345 88 m 1,11,-1
 412 88 l 1,12,-1
 429 179 l 1,13,-1
 345 88 l 1,11,-1
179 313 m 1,14,15
 232 302 232 302 223 254 c 0,16,17
 209 182 209 182 97 182 c 0,18,19
 74 182 74 182 54 185.5 c 128,-1,20
 34 189 34 189 16 195 c 1,21,-1
 26 244 l 1,22,23
 43 234 43 234 59.5 228.5 c 128,-1,24
 76 223 76 223 93 223 c 0,25,26
 120 223 120 223 135.5 232.5 c 128,-1,27
 151 242 151 242 153 257 c 0,28,29
 157 275 157 275 144.5 283.5 c 128,-1,30
 132 292 132 292 100 292 c 2,31,-1
 79 292 l 1,32,-1
 87 331 l 1,33,-1
 111 331 l 2,34,35
 163 331 163 331 168 357 c 256,36,37
 173 383 173 383 129 383 c 0,38,39
 114 383 114 383 96 379 c 128,-1,40
 78 375 78 375 58 368 c 1,41,-1
 67 415 l 1,42,43
 86 419 86 419 107.5 421.5 c 128,-1,44
 129 424 129 424 154 424 c 0,45,46
 200 424 200 424 221.5 408.5 c 128,-1,47
 243 393 243 393 237 364 c 0,48,49
 234 346 234 346 219 332 c 128,-1,50
 204 318 204 318 179 313 c 1,14,15
91 -8 m 1,51,-1
 435 424 l 1,52,-1
 497 424 l 1,53,-1
 153 -8 l 1,54,-1
 91 -8 l 1,51,-1
EndSplineSet
Ligature: 0 0 'frac' three fraction four
Ligature: 0 0 'frac' three slash four
EndChar
StartChar: Gbreve
Encoding: 286 286 246
Width: 470
Flags: W
Fore
384 32 m 1,0,1
 294 -8 294 -8 202 -8 c 0,2,3
 150 -8 150 -8 111 7 c 128,-1,4
 72 22 72 22 48 50 c 128,-1,5
 24 78 24 78 16 118 c 128,-1,6
 8 158 8 158 18 208 c 0,7,8
 38 309 38 309 110.5 366.5 c 128,-1,9
 183 424 183 424 292 424 c 0,10,11
 377 424 377 424 438 393 c 1,12,-1
 421 307 l 1,13,14
 359 347 359 347 290 347 c 0,15,16
 226 347 226 347 184.5 310.5 c 128,-1,17
 143 274 143 274 130 208 c 256,18,19
 117 142 117 142 143.5 105.5 c 128,-1,20
 170 69 170 69 231 69 c 0,21,22
 265 69 265 69 291 79 c 1,23,-1
 306 159 l 1,24,-1
 240 159 l 1,25,-1
 255 232 l 1,26,-1
 423 232 l 1,27,-1
 384 32 l 1,28,-1
 384 32 l 1,0,1
226 531 m 1,29,30
 232 496 232 496 275 496 c 0,31,32
 316 496 316 496 334 531 c 1,33,-1
 375 531 l 1,34,35
 364 494 364 494 335.5 475 c 128,-1,36
 307 456 307 456 267 456 c 0,37,38
 182 456 182 456 187 531 c 1,39,-1
 226 531 l 1,29,30
EndSplineSet
EndChar
StartChar: gbreve
Encoding: 287 287 247
Width: 410
Flags: W
Fore
221 53 m 1,0,1
 171 0 171 0 108 0 c 0,2,3
 50 0 50 0 21 45 c 256,4,5
 -8 90 -8 90 7 160 c 0,6,7
 21 231 21 231 66 275 c 0,8,9
 113 320 113 320 170 320 c 0,10,11
 233 320 233 320 262 266 c 1,12,-1
 271 313 l 1,13,-1
 371 313 l 1,14,-1
 317 32 l 2,15,16
 302 -44 302 -44 246.5 -84 c 128,-1,17
 191 -124 191 -124 100 -124 c 0,18,19
 43 -124 43 -124 -7 -105 c 1,20,-1
 8 -27 l 1,21,22
 31 -43 31 -43 55 -50 c 128,-1,23
 79 -57 79 -57 104 -57 c 0,24,25
 153 -57 153 -57 180 -36.5 c 128,-1,26
 207 -16 207 -16 217 32 c 2,27,-1
 221 53 l 1,28,-1
 221 53 l 1,0,1
193 248 m 0,29,30
 162 248 162 248 140.5 225 c 128,-1,31
 119 202 119 202 111 160 c 0,32,33
 94 73 94 73 159 73 c 0,34,35
 191 73 191 73 212.5 95.5 c 128,-1,36
 234 118 234 118 242 160 c 256,37,38
 250 202 250 202 237.5 225 c 128,-1,39
 225 248 225 248 193 248 c 0,29,30
187 448 m 1,40,41
 187 430 187 430 199 419.5 c 128,-1,42
 211 409 211 409 235 409 c 0,43,44
 257 409 257 409 273 419.5 c 128,-1,45
 289 430 289 430 295 448 c 1,46,-1
 336 448 l 1,47,48
 325 409 325 409 297 387.5 c 128,-1,49
 269 366 269 366 227 366 c 0,50,51
 182 366 182 366 161 387.5 c 128,-1,52
 140 409 140 409 148 448 c 1,53,-1
 187 448 l 1,40,41
EndSplineSet
EndChar
StartChar: Idotaccent
Encoding: 304 304 248
Width: 213
Flags: W
Fore
191 417 m 1,0,-1
 110 0 l 1,1,-1
 2 0 l 1,2,-1
 83 417 l 1,3,-1
 191 417 l 1,0,-1
194 531 m 1,4,-1
 180 461 l 1,5,-1
 104 461 l 1,6,-1
 118 531 l 1,7,-1
 194 531 l 1,4,-1
EndSplineSet
EndChar
StartChar: Scedilla
Encoding: 350 350 249
Width: 412
Flags: W
Fore
355 316 m 1,0,1
 322 331 322 331 291.5 339 c 128,-1,2
 261 347 261 347 231 347 c 0,3,4
 191 347 191 347 171.5 336.5 c 128,-1,5
 152 326 152 326 148 304 c 0,6,7
 144 286 144 286 154 276.5 c 128,-1,8
 164 267 164 267 195 261 c 2,9,-1
 240 251 l 2,10,11
 307 238 307 238 331 210 c 128,-1,12
 355 182 355 182 344 128 c 0,13,14
 330 59 330 59 283.5 25.5 c 128,-1,15
 237 -8 237 -8 152 -8 c 0,16,17
 73 -8 73 -8 -1 22 c 1,18,-1
 16 112 l 1,19,20
 52 91 52 91 87 80 c 128,-1,21
 122 69 122 69 157 69 c 256,22,23
 192 69 192 69 212.5 81.5 c 128,-1,24
 233 94 233 94 238 116 c 0,25,26
 242 134 242 134 232 145 c 128,-1,27
 222 156 222 156 184 164 c 2,28,-1
 144 173 l 2,29,30
 84 187 84 187 61.5 216.5 c 128,-1,31
 39 246 39 246 49 295 c 0,32,33
 61 358 61 358 107 391 c 128,-1,34
 153 424 153 424 228 424 c 0,35,36
 263 424 263 424 298.5 419 c 128,-1,37
 334 414 334 414 372 403 c 1,38,-1
 355 316 l 1,0,1
180 0 m 1,39,40
 204 -36 204 -36 200 -60 c 0,41,42
 190 -112 190 -112 120 -112 c 0,43,44
 107 -112 107 -112 92 -110 c 128,-1,45
 77 -108 77 -108 65 -105 c 1,46,-1
 72 -62 l 1,47,48
 101 -70 101 -70 118 -70 c 0,49,50
 150 -70 150 -70 155 -47 c 0,51,52
 158 -33 158 -33 142 0 c 1,53,-1
 180 0 l 1,54,-1
 180 0 l 1,39,40
EndSplineSet
EndChar
StartChar: scedilla
Encoding: 351 351 250
Width: 340
Flags: W
Fore
286 227 m 1,0,1
 256 241 256 241 228 247 c 128,-1,2
 200 253 200 253 172 253 c 0,3,4
 117 253 117 253 111 225 c 0,5,6
 109 213 109 213 118.5 206.5 c 128,-1,7
 128 200 128 200 154 196 c 2,8,-1
 170 194 l 2,9,10
 247 185 247 185 267 163 c 0,11,12
 290 140 290 140 280 92 c 0,13,14
 262 -8 262 -8 114 -8 c 0,15,16
 84 -8 84 -8 51 -3.5 c 128,-1,17
 18 1 18 1 -13 12 c 1,18,-1
 1 87 l 1,19,20
 56 58 56 58 120 58 c 0,21,22
 180 58 180 58 186 90 c 0,23,24
 189 104 189 104 179.5 110.5 c 128,-1,25
 170 117 170 117 140 121 c 2,26,-1
 122 123 l 2,27,28
 58 131 58 131 35.5 154 c 128,-1,29
 13 177 13 177 22 223 c 0,30,31
 40 320 40 320 180 320 c 0,32,33
 234 320 234 320 301 304 c 1,34,-1
 286 227 l 1,0,1
145 0 m 1,35,36
 169 -36 169 -36 165 -60 c 0,37,38
 155 -112 155 -112 85 -112 c 0,39,40
 72 -112 72 -112 57 -110 c 128,-1,41
 42 -108 42 -108 30 -105 c 1,42,-1
 37 -62 l 1,43,44
 66 -70 66 -70 83 -70 c 0,45,46
 115 -70 115 -70 120 -47 c 0,47,48
 123 -33 123 -33 107 0 c 1,49,-1
 145 0 l 1,50,-1
 145 0 l 1,35,36
EndSplineSet
EndChar
StartChar: Cacute
Encoding: 262 262 251
Width: 420
Flags: W
Fore
337 23 m 1,0,1
 272 -8 272 -8 202 -8 c 0,2,3
 150 -8 150 -8 111 7 c 128,-1,4
 72 22 72 22 48 50 c 128,-1,5
 24 78 24 78 16 118 c 128,-1,6
 8 158 8 158 18 208 c 0,7,8
 38 308 38 308 109.5 366 c 128,-1,9
 181 424 181 424 286 424 c 0,10,11
 356 424 356 424 409 393 c 1,12,-1
 392 307 l 1,13,14
 366 328 366 328 339 337.5 c 128,-1,15
 312 347 312 347 280 347 c 0,16,17
 223 347 223 347 182.5 309.5 c 128,-1,18
 142 272 142 272 130 208 c 0,19,20
 117 144 117 144 143 106.5 c 128,-1,21
 169 69 169 69 226 69 c 0,22,23
 258 69 258 69 288.5 78.5 c 128,-1,24
 319 88 319 88 354 109 c 1,25,-1
 337 23 l 1,26,-1
 337 23 l 1,0,1
389 531 m 1,27,-1
 295 456 l 1,28,-1
 240 456 l 1,29,-1
 310 531 l 1,30,-1
 389 531 l 1,27,-1
EndSplineSet
EndChar
StartChar: cacute
Encoding: 263 263 252
Width: 339
Flags: W
Fore
293 222 m 1,0,1
 276 236 276 236 257 242 c 128,-1,2
 238 248 238 248 215 248 c 0,3,4
 172 248 172 248 144.5 224.5 c 128,-1,5
 117 201 117 201 109 156 c 0,6,7
 100 111 100 111 118 87 c 128,-1,8
 136 63 136 63 179 63 c 0,9,10
 226 63 226 63 267 90 c 1,11,-1
 251 9 l 1,12,13
 226 0 226 0 201.5 -4 c 128,-1,14
 177 -8 177 -8 153 -8 c 0,15,16
 68 -8 68 -8 28.5 35 c 128,-1,17
 -11 78 -11 78 4 156 c 256,18,19
 19 234 19 234 75.5 277 c 128,-1,20
 132 320 132 320 217 320 c 0,21,22
 267 320 267 320 309 304 c 1,23,-1
 293 222 l 1,0,1
357 457 m 1,24,-1
 234 352 l 1,25,-1
 179 352 l 1,26,-1
 278 457 l 1,27,-1
 357 457 l 1,24,-1
EndSplineSet
EndChar
StartChar: Ccaron
Encoding: 268 268 253
Width: 420
Flags: W
Fore
337 23 m 1,0,1
 272 -8 272 -8 202 -8 c 0,2,3
 150 -8 150 -8 111 7 c 128,-1,4
 72 22 72 22 48 50 c 128,-1,5
 24 78 24 78 16 118 c 128,-1,6
 8 158 8 158 18 208 c 0,7,8
 38 308 38 308 109.5 366 c 128,-1,9
 181 424 181 424 286 424 c 0,10,11
 356 424 356 424 409 393 c 1,12,-1
 392 307 l 1,13,14
 366 328 366 328 339 337.5 c 128,-1,15
 312 347 312 347 280 347 c 0,16,17
 223 347 223 347 182.5 309.5 c 128,-1,18
 142 272 142 272 130 208 c 0,19,20
 117 144 117 144 143 106.5 c 128,-1,21
 169 69 169 69 226 69 c 0,22,23
 258 69 258 69 288.5 78.5 c 128,-1,24
 319 88 319 88 354 109 c 1,25,-1
 337 23 l 1,26,-1
 337 23 l 1,0,1
191 531 m 1,27,-1
 240 531 l 1,28,-1
 288 484 l 1,29,-1
 352 531 l 1,30,-1
 401 531 l 1,31,-1
 324 456 l 1,32,-1
 238 456 l 1,33,-1
 191 531 l 1,27,-1
EndSplineSet
EndChar
StartChar: ccaron
Encoding: 269 269 254
Width: 339
Flags: W
Fore
293 222 m 1,0,1
 276 236 276 236 257 242 c 128,-1,2
 238 248 238 248 215 248 c 0,3,4
 172 248 172 248 144.5 224.5 c 128,-1,5
 117 201 117 201 109 156 c 0,6,7
 100 111 100 111 118 87 c 128,-1,8
 136 63 136 63 179 63 c 0,9,10
 226 63 226 63 267 90 c 1,11,-1
 251 9 l 1,12,13
 226 0 226 0 201.5 -4 c 128,-1,14
 177 -8 177 -8 153 -8 c 0,15,16
 68 -8 68 -8 28.5 35 c 128,-1,17
 -11 78 -11 78 4 156 c 256,18,19
 19 234 19 234 75.5 277 c 128,-1,20
 132 320 132 320 217 320 c 0,21,22
 267 320 267 320 309 304 c 1,23,-1
 293 222 l 1,0,1
135 457 m 1,24,-1
 184 457 l 1,25,-1
 229 394 l 1,26,-1
 296 457 l 1,27,-1
 345 457 l 1,28,-1
 254 352 l 1,29,-1
 186 352 l 1,30,-1
 135 457 l 1,24,-1
EndSplineSet
EndChar
StartChar: dcroat
Encoding: 273 273 255
Width: 410
Flags: W
Fore
278 346 m 1,0,-1
 186 346 l 1,1,-1
 197 402 l 1,2,-1
 289 402 l 1,3,-1
 295 435 l 1,4,-1
 395 435 l 1,5,-1
 389 402 l 1,6,-1
 432 402 l 1,7,-1
 421 346 l 1,8,-1
 378 346 l 1,9,-1
 311 0 l 1,10,-1
 211 0 l 1,11,-1
 219 45 l 1,12,13
 169 -8 169 -8 106 -8 c 0,14,15
 77 -8 77 -8 55 4 c 128,-1,16
 33 16 33 16 20 38 c 128,-1,17
 7 60 7 60 3 90 c 128,-1,18
 -1 120 -1 120 6 156 c 256,19,20
 13 192 13 192 29 222.5 c 128,-1,21
 45 253 45 253 66.5 274.5 c 128,-1,22
 88 296 88 296 114.5 308 c 128,-1,23
 141 320 141 320 170 320 c 0,24,25
 233 320 233 320 262 267 c 1,26,-1
 278 346 l 1,0,-1
157 64 m 0,27,28
 223 64 223 64 241 156 c 0,29,30
 258 248 258 248 193 248 c 0,31,32
 127 248 127 248 110 156 c 0,33,34
 92 64 92 64 157 64 c 0,27,28
EndSplineSet
EndChar
StartChar: sfthyphen
Encoding: 173 173 256
Width: 238
Flags: W
Fore
195 205 m 1,0,-1
 180 124 l 1,1,-1
 6 124 l 1,2,-1
 21 205 l 1,3,-1
 195 205 l 1,0,-1
EndSplineSet
EndChar
StartChar: periodcentered
Encoding: 8729 8729 257
Width: 209
Flags: W
Fore
150 243 m 1,0,-1
 130 139 l 1,1,-1
 33 139 l 1,2,-1
 53 243 l 1,3,-1
 150 243 l 1,0,-1
EndSplineSet
EndChar
StartChar: Euro
Encoding: 8364 8364 258
Width: 398
Flags: W
Fore
313 23 m 1,0,1
 255 -8 255 -8 193 -8 c 0,2,3
 118 -8 118 -8 75.5 28 c 128,-1,4
 33 64 33 64 25 133 c 1,5,-1
 -36 133 l 1,6,-1
 0 188 l 1,7,-1
 28 188 l 1,8,9
 28 192 28 192 31 208 c 0,10,11
 33 216 33 216 33.5 220.5 c 128,-1,12
 34 225 34 225 36 230 c 1,13,-1
 -17 230 l 1,14,-1
 19 284 l 1,15,-1
 55 284 l 1,16,17
 88 353 88 353 145 388.5 c 128,-1,18
 202 424 202 424 277 424 c 0,19,20
 339 424 339 424 385 393 c 1,21,-1
 368 307 l 1,22,23
 334 350 334 350 275 350 c 0,24,25
 241 350 241 350 212 333.5 c 128,-1,26
 183 317 183 317 165 284 c 1,27,-1
 316 284 l 1,28,-1
 280 230 l 1,29,-1
 143 230 l 1,30,-1
 138 205 l 1,31,-1
 135 188 l 1,32,-1
 254 188 l 1,33,-1
 219 133 l 1,34,-1
 135 133 l 1,35,36
 149 65 149 65 219 65 c 0,37,38
 248 65 248 65 275 76 c 128,-1,39
 302 87 302 87 330 109 c 1,40,-1
 313 23 l 1,41,-1
 313 23 l 1,0,1
EndSplineSet
EndChar
StartChar: c6459
Encoding: 65539 -1 259
Width: 286
Flags: W
Fore
154 427 m 1,0,-1
 140 357 l 1,1,-1
 74 357 l 1,2,-1
 88 427 l 1,3,-1
 154 427 l 1,0,-1
264 427 m 1,4,-1
 250 357 l 1,5,-1
 184 357 l 1,6,-1
 198 427 l 1,7,-1
 264 427 l 1,4,-1
EndSplineSet
EndChar
StartChar: c6460
Encoding: 65540 -1 260
Width: 286
Flags: W
Fore
269 427 m 1,0,-1
 175 352 l 1,1,-1
 120 352 l 1,2,-1
 190 427 l 1,3,-1
 269 427 l 1,0,-1
EndSplineSet
EndChar
StartChar: c6461
Encoding: 65541 -1 261
Width: 286
Flags: W
Fore
150 375 m 1,0,1
 148 377 l 1,2,3
 135 385 135 385 129 385 c 0,4,5
 109 385 109 385 103 353 c 1,6,-1
 103 352 l 1,7,-1
 64 352 l 1,8,-1
 65 360 l 2,9,10
 71 390 71 390 90 408.5 c 128,-1,11
 109 427 109 427 134 427 c 0,12,13
 151 427 151 427 173 413 c 2,14,-1
 187 402 l 2,15,16
 198 394 198 394 206 394 c 0,17,18
 227 394 227 394 235 427 c 1,19,-1
 274 427 l 1,20,21
 273 425 273 425 272 422 c 128,-1,22
 271 419 271 419 271 418 c 0,23,24
 265 389 265 389 246.5 370.5 c 128,-1,25
 228 352 228 352 203 352 c 0,26,27
 192 352 192 352 182.5 355 c 128,-1,28
 173 358 173 358 165 366 c 1,29,-1
 150 375 l 1,0,1
EndSplineSet
EndChar
StartChar: c6462
Encoding: 65542 -1 262
Width: 286
Flags: W
Fore
202 352 m 1,0,-1
 148 352 l 1,1,-1
 83 427 l 1,2,-1
 162 427 l 1,3,-1
 202 352 l 1,0,-1
EndSplineSet
EndChar
StartChar: c6463
Encoding: 65543 -1 263
Width: 286
Flags: W
Fore
219 427 m 1,0,-1
 266 352 l 1,1,-1
 217 352 l 1,2,-1
 171 397 l 1,3,-1
 105 352 l 1,4,-1
 56 352 l 1,5,-1
 133 427 l 1,6,-1
 219 427 l 1,0,-1
EndSplineSet
EndChar
StartChar: c6466
Encoding: 65544 -1 264
Width: 286
Flags: W
Fore
71 427 m 1,0,-1
 120 427 l 1,1,-1
 167 380 l 1,2,-1
 232 427 l 1,3,-1
 281 427 l 1,4,-1
 204 352 l 1,5,-1
 118 352 l 1,6,-1
 71 427 l 1,0,-1
EndSplineSet
EndChar
StartChar: c6467
Encoding: 65545 -1 265
Width: 286
Flags: W
Fore
121 427 m 1,0,1
 127 392 127 392 170 392 c 0,2,3
 211 392 211 392 229 427 c 1,4,-1
 270 427 l 1,5,6
 259 390 259 390 230.5 371 c 128,-1,7
 202 352 202 352 162 352 c 0,8,9
 77 352 77 352 82 427 c 1,10,-1
 121 427 l 1,0,1
EndSplineSet
EndChar
StartChar: c6468
Encoding: 65546 -1 266
Width: 286
Flags: W
Fore
214 427 m 1,0,-1
 200 357 l 1,1,-1
 124 357 l 1,2,-1
 138 427 l 1,3,-1
 214 427 l 1,0,-1
EndSplineSet
EndChar
StartChar: uni0E99
Encoding: 3737 3737 267
Width: 209
Flags: W
Fore
150 243 m 1,0,-1
 130 139 l 1,1,-1
 33 139 l 1,2,-1
 53 243 l 1,3,-1
 150 243 l 1,0,-1
EndSplineSet
EndChar
StartChar: uni0E01
Encoding: 3585 3585 268
Width: 429
Flags: W
Fore
239 0 m 1,0,-1
 287 251 l 2,1,2
 291 272 291 272 286 287.5 c 128,-1,3
 281 303 281 303 269.5 313.5 c 128,-1,4
 258 324 258 324 241 329 c 128,-1,5
 224 334 224 334 205 334 c 0,6,7
 168 334 168 334 138 325 c 128,-1,8
 108 316 108 316 77 287 c 1,9,-1
 159 287 l 1,10,-1
 150 241 l 1,11,12
 133 236 133 236 120.5 226 c 128,-1,13
 108 216 108 216 104 197 c 2,14,-1
 66 0 l 1,15,-1
 -15 0 l 1,16,-1
 18 172 l 2,17,18
 22 193 22 193 32.5 208 c 128,-1,19
 43 223 43 223 60 238 c 1,20,-1
 -4 238 l 1,21,-1
 8 302 l 1,22,23
 21 306 21 306 31 315 c 0,24,25
 59 336 59 336 79.5 350 c 128,-1,26
 100 364 100 364 120 372.5 c 128,-1,27
 140 381 140 381 162.5 384.5 c 128,-1,28
 185 388 185 388 218 388 c 0,29,30
 250 388 250 388 279.5 378 c 128,-1,31
 309 368 309 368 330 349 c 128,-1,32
 351 330 351 330 361 302 c 128,-1,33
 371 274 371 274 364 239 c 2,34,-1
 318 0 l 1,35,-1
 239 0 l 1,0,-1
EndSplineSet
EndChar
StartChar: uni0E02
Encoding: 3586 3586 269
Width: 391
Flags: W
Fore
32 0 m 1,0,-1
 55 122 l 2,1,2
 60 148 60 148 77.5 170 c 128,-1,3
 95 192 95 192 114.5 212 c 128,-1,4
 134 232 134 232 151 250 c 128,-1,5
 168 268 168 268 171 285 c 0,6,7
 175 305 175 305 162.5 320 c 128,-1,8
 150 335 150 335 131 335 c 0,9,10
 120 335 120 335 108 330 c 1,11,12
 126 323 126 323 131.5 303.5 c 128,-1,13
 137 284 137 284 133 265 c 0,14,15
 127 236 127 236 105 219.5 c 128,-1,16
 83 203 83 203 55 203 c 0,17,18
 20 203 20 203 4 222.5 c 128,-1,19
 -12 242 -12 242 -5 277 c 0,20,21
 0 302 0 302 13.5 322.5 c 128,-1,22
 27 343 27 343 45.5 357.5 c 128,-1,23
 64 372 64 372 87 380 c 128,-1,24
 110 388 110 388 134 388 c 256,25,26
 158 388 158 388 178.5 381.5 c 128,-1,27
 199 375 199 375 213 361.5 c 128,-1,28
 227 348 227 348 233.5 328.5 c 128,-1,29
 240 309 240 309 235 283 c 0,30,31
 231 262 231 262 216.5 242 c 128,-1,32
 202 222 202 222 186 204.5 c 128,-1,33
 170 187 170 187 156.5 172.5 c 128,-1,34
 143 158 143 158 141 146 c 2,35,-1
 125 65 l 1,36,-1
 214 65 l 1,37,-1
 276 384 l 1,38,-1
 355 384 l 1,39,-1
 281 0 l 1,40,-1
 32 0 l 1,0,-1
90 269 m 0,41,42
 95 291 95 291 73 291 c 0,43,44
 53 291 53 291 48 270 c 0,45,46
 46 260 46 260 50 253.5 c 128,-1,47
 54 247 54 247 65 247 c 0,48,49
 75 247 75 247 81.5 253.5 c 128,-1,50
 88 260 88 260 90 269 c 0,41,42
EndSplineSet
EndChar
StartChar: uni0E03
Encoding: 3587 3587 270
Width: 399
Flags: W
Fore
43 0 m 1,0,-1
 65 115 l 2,1,2
 70 139 70 139 90 163 c 128,-1,3
 110 187 110 187 133.5 210.5 c 128,-1,4
 157 234 157 234 177.5 257.5 c 128,-1,5
 198 281 198 281 202 305 c 0,6,7
 204 313 204 313 203.5 323 c 128,-1,8
 203 333 203 333 192 333 c 0,9,10
 186 333 186 333 181.5 329.5 c 128,-1,11
 177 326 177 326 172 321.5 c 128,-1,12
 167 317 167 317 161 313.5 c 128,-1,13
 155 310 155 310 147 310 c 0,14,15
 136 310 136 310 126 318 c 0,16,17
 112 332 112 332 93 343 c 1,18,-1
 83 322 l 1,19,-1
 76 303 l 1,20,21
 81 304 81 304 84 304.5 c 128,-1,22
 87 305 87 305 91 305 c 0,23,24
 115 305 115 305 129.5 289 c 128,-1,25
 144 273 144 273 139 248 c 0,26,27
 133 219 133 219 111 204 c 128,-1,28
 89 189 89 189 62 189 c 0,29,30
 41 189 41 189 28 198.5 c 128,-1,31
 15 208 15 208 8.5 223 c 128,-1,32
 2 238 2 238 1.5 256 c 128,-1,33
 1 274 1 274 4 292 c 0,34,35
 7 307 7 307 15 324 c 128,-1,36
 23 341 23 341 34.5 355 c 128,-1,37
 46 369 46 369 61 378 c 128,-1,38
 76 387 76 387 94 387 c 0,39,40
 104 387 104 387 110.5 384.5 c 128,-1,41
 117 382 117 382 122.5 378.5 c 128,-1,42
 128 375 128 375 133.5 370.5 c 128,-1,43
 139 366 139 366 146 362 c 1,44,45
 163 368 163 368 175 378.5 c 128,-1,46
 187 389 187 389 206 389 c 0,47,48
 241 389 241 389 255 368 c 128,-1,49
 269 347 269 347 263 314 c 0,50,51
 259 296 259 296 248 273 c 0,52,53
 241 260 241 260 225.5 241 c 128,-1,54
 210 222 210 222 194 203 c 128,-1,55
 178 184 178 184 165 166.5 c 128,-1,56
 152 149 152 149 150 138 c 2,57,-1
 137 70 l 1,58,-1
 223 70 l 1,59,-1
 284 384 l 1,60,-1
 364 384 l 1,61,-1
 290 0 l 1,62,-1
 43 0 l 1,0,-1
100 247 m 0,63,64
 103 269 103 269 83 269 c 0,65,66
 61 269 61 269 58 248 c 0,67,68
 56 238 56 238 59.5 231.5 c 128,-1,69
 63 225 63 225 74 225 c 0,70,71
 84 225 84 225 91 231.5 c 128,-1,72
 98 238 98 238 100 247 c 0,63,64
EndSplineSet
EndChar
StartChar: uni0E04
Encoding: 3588 3588 271
Width: 434
Flags: W
Fore
245 0 m 1,0,-1
 294 256 l 2,1,2
 298 277 298 277 292.5 292 c 128,-1,3
 287 307 287 307 275 316 c 128,-1,4
 263 325 263 325 246 329.5 c 128,-1,5
 229 334 229 334 211 334 c 0,6,7
 160 334 160 334 123.5 309.5 c 128,-1,8
 87 285 87 285 76 230 c 0,9,10
 71 204 71 204 72.5 179 c 128,-1,11
 74 154 74 154 78 129 c 1,12,13
 86 148 86 148 91 169.5 c 128,-1,14
 96 191 96 191 103.5 211.5 c 128,-1,15
 111 232 111 232 123 250 c 128,-1,16
 135 268 135 268 156 279 c 0,17,18
 180 292 180 292 205 292 c 0,19,20
 240 292 240 292 259.5 272.5 c 128,-1,21
 279 253 279 253 272 217 c 0,22,23
 269 202 269 202 259.5 189 c 128,-1,24
 250 176 250 176 237.5 165.5 c 128,-1,25
 225 155 225 155 210 149 c 128,-1,26
 195 143 195 143 180 143 c 0,27,28
 160 143 160 143 147 153 c 1,29,-1
 115 75 l 2,30,31
 111 65 111 65 105 54.5 c 128,-1,32
 99 44 99 44 97 34 c 2,33,-1
 91 0 l 1,34,-1
 6 0 l 1,35,36
 7 27 7 27 8 54.5 c 128,-1,37
 9 82 9 82 6 108 c 0,38,39
 4 137 4 137 -0.5 166 c 128,-1,40
 -5 195 -5 195 1 226 c 0,41,42
 5 243 5 243 10 260 c 128,-1,43
 15 277 15 277 25 293 c 0,44,45
 41 319 41 319 64 336.5 c 128,-1,46
 87 354 87 354 113.5 365.5 c 128,-1,47
 140 377 140 377 168 382 c 128,-1,48
 196 387 196 387 221 387 c 0,49,50
 251 387 251 387 281.5 381 c 128,-1,51
 312 375 312 375 335 360 c 128,-1,52
 358 345 358 345 370 321 c 128,-1,53
 382 297 382 297 375 261 c 2,54,-1
 325 0 l 1,55,-1
 245 0 l 1,0,-1
223 218 m 0,56,57
 225 230 225 230 218.5 237.5 c 128,-1,58
 212 245 212 245 200 245 c 256,59,60
 188 245 188 245 178 238 c 128,-1,61
 168 231 168 231 166 218 c 0,62,63
 164 206 164 206 170.5 198.5 c 128,-1,64
 177 191 177 191 189 191 c 256,65,66
 201 191 201 191 211 198 c 128,-1,67
 221 205 221 205 223 218 c 0,56,57
EndSplineSet
EndChar
StartChar: uni0E05
Encoding: 3589 3589 272
Width: 455
Flags: W
Fore
264 0 m 1,0,-1
 317 276 l 2,1,2
 319 289 319 289 318 298.5 c 128,-1,3
 317 308 317 308 306 318 c 0,4,5
 302 322 302 322 295 322 c 0,6,7
 292 322 292 322 284.5 318.5 c 128,-1,8
 277 315 277 315 267 311.5 c 128,-1,9
 257 308 257 308 246.5 304.5 c 128,-1,10
 236 301 236 301 227 301 c 0,11,12
 215 301 215 301 205 305 c 128,-1,13
 195 309 195 309 186 313.5 c 128,-1,14
 177 318 177 318 168.5 322 c 128,-1,15
 160 326 160 326 151 326 c 0,16,17
 137 326 137 326 125.5 318.5 c 128,-1,18
 114 311 114 311 105 299.5 c 128,-1,19
 96 288 96 288 90 275 c 128,-1,20
 84 262 84 262 82 250 c 0,21,22
 81 241 81 241 81.5 227 c 128,-1,23
 82 213 82 213 83.5 197 c 128,-1,24
 85 181 85 181 87 166 c 128,-1,25
 89 151 89 151 90 142 c 1,26,27
 99 161 99 161 108 182.5 c 128,-1,28
 117 204 117 204 129.5 222.5 c 128,-1,29
 142 241 142 241 160 253 c 128,-1,30
 178 265 178 265 203 265 c 0,31,32
 241 265 241 265 257.5 249.5 c 128,-1,33
 274 234 274 234 266 195 c 0,34,35
 264 182 264 182 256 169 c 128,-1,36
 248 156 248 156 236.5 146 c 128,-1,37
 225 136 225 136 211.5 130 c 128,-1,38
 198 124 198 124 185 124 c 0,39,40
 177 124 177 124 165 126.5 c 128,-1,41
 153 129 153 129 148 136 c 1,42,43
 133 102 133 102 118.5 68.5 c 128,-1,44
 104 35 104 35 93 0 c 1,45,-1
 23 0 l 1,46,47
 23 22 23 22 26 43.5 c 128,-1,48
 29 65 29 65 25 86 c 0,49,50
 22 106 22 106 17.5 125.5 c 128,-1,51
 13 145 13 145 9.5 165 c 128,-1,52
 6 185 6 185 5.5 205.5 c 128,-1,53
 5 226 5 226 9 248 c 0,54,55
 14 275 14 275 29 300 c 128,-1,56
 44 325 44 325 65.5 345 c 128,-1,57
 87 365 87 365 113.5 377 c 128,-1,58
 140 389 140 389 167 389 c 0,59,60
 179 389 179 389 188 384.5 c 128,-1,61
 197 380 197 380 205 375 c 128,-1,62
 213 370 213 370 220.5 365.5 c 128,-1,63
 228 361 228 361 237 361 c 0,64,65
 249 361 249 361 260.5 365.5 c 128,-1,66
 272 370 272 370 282.5 375.5 c 128,-1,67
 293 381 293 381 302.5 385.5 c 128,-1,68
 312 390 312 390 319 390 c 0,69,70
 333 390 333 390 347 382 c 128,-1,71
 361 374 361 374 372 362 c 128,-1,72
 383 350 383 350 390.5 336 c 128,-1,73
 398 322 398 322 399 309 c 0,74,75
 401 285 401 285 396 260 c 2,76,-1
 346 0 l 1,77,-1
 264 0 l 1,0,-1
221 196 m 256,78,79
 223 207 223 207 216.5 214 c 128,-1,80
 210 221 210 221 199 221 c 256,81,82
 188 221 188 221 179 214 c 128,-1,83
 170 207 170 207 168 196 c 256,84,85
 166 185 166 185 172.5 178 c 128,-1,86
 179 171 179 171 190 171 c 256,87,88
 201 171 201 171 210 178 c 128,-1,89
 219 185 219 185 221 196 c 256,78,79
EndSplineSet
EndChar
StartChar: uni0E06
Encoding: 3590 3590 273
Width: 456
Flags: W
Fore
273 0 m 1,0,1
 247 28 247 28 218 53 c 128,-1,2
 189 78 189 78 158 101 c 1,3,-1
 146 38 l 2,4,5
 145 34 145 34 143.5 31.5 c 128,-1,6
 142 29 142 29 140 27 c 2,7,-1
 139 26 l 2,8,9
 123 7 123 7 101 1.5 c 128,-1,10
 79 -4 79 -4 59 -4 c 0,11,12
 20 -4 20 -4 1 23 c 128,-1,13
 -18 50 -18 50 -10 88 c 0,14,15
 -7 106 -7 106 4 121 c 128,-1,16
 15 136 15 136 30 146.5 c 128,-1,17
 45 157 45 157 62.5 163.5 c 128,-1,18
 80 170 80 170 97 172 c 1,19,-1
 98 180 l 2,20,21
 100 188 100 188 103 192 c 0,22,23
 108 200 108 200 115 206 c 128,-1,24
 122 212 122 212 130 217 c 0,25,26
 155 236 155 236 179.5 261 c 128,-1,27
 204 286 204 286 210 316 c 0,28,29
 212 324 212 324 209.5 331 c 128,-1,30
 207 338 207 338 197 338 c 0,31,32
 183 338 183 338 170 331.5 c 128,-1,33
 157 325 157 325 143 325 c 0,34,35
 134 325 134 325 128 328 c 128,-1,36
 122 331 122 331 117.5 334 c 128,-1,37
 113 337 113 337 107.5 340 c 128,-1,38
 102 343 102 343 93 343 c 0,39,40
 88 343 88 343 86 337 c 128,-1,41
 84 331 84 331 82 327 c 1,42,-1
 79 314 l 1,43,44
 87 318 87 318 100 318 c 0,45,46
 123 318 123 318 135.5 302.5 c 128,-1,47
 148 287 148 287 143 264 c 0,48,49
 137 232 137 232 111 217.5 c 128,-1,50
 85 203 85 203 57 203 c 0,51,52
 20 203 20 203 9 227.5 c 128,-1,53
 -2 252 -2 252 5 285 c 0,54,55
 8 299 8 299 15 317.5 c 128,-1,56
 22 336 22 336 33 352.5 c 128,-1,57
 44 369 44 369 59 380 c 128,-1,58
 74 391 74 391 92 391 c 0,59,60
 101 391 101 391 108.5 387.5 c 128,-1,61
 116 384 116 384 122.5 379.5 c 128,-1,62
 129 375 129 375 135.5 371.5 c 128,-1,63
 142 368 142 368 149 368 c 0,64,65
 157 368 157 368 165 372 c 128,-1,66
 173 376 173 376 181.5 380.5 c 128,-1,67
 190 385 190 385 199 388.5 c 128,-1,68
 208 392 208 392 218 392 c 0,69,70
 253 392 253 392 267 370 c 128,-1,71
 281 348 281 348 275 315 c 0,72,73
 272 302 272 302 264 287 c 128,-1,74
 256 272 256 272 245.5 257.5 c 128,-1,75
 235 243 235 243 223 230 c 128,-1,76
 211 217 211 217 200 207 c 0,77,78
 195 203 195 203 190.5 199 c 128,-1,79
 186 195 186 195 181 190 c 256,80,81
 176 185 176 185 174.5 180 c 128,-1,82
 173 175 173 175 171 168 c 1,83,84
 182 160 182 160 192 154 c 128,-1,85
 202 148 202 148 212 141 c 2,86,-1
 284 89 l 1,87,-1
 341 384 l 1,88,-1
 420 384 l 1,89,-1
 346 0 l 1,90,-1
 273 0 l 1,0,1
99 261 m 256,91,92
 101 270 101 270 96 276 c 128,-1,93
 91 282 91 282 82 282 c 0,94,95
 74 282 74 282 66.5 276.5 c 128,-1,96
 59 271 59 271 57 262 c 256,97,98
 55 253 55 253 60 247 c 128,-1,99
 65 241 65 241 74 241 c 0,100,101
 82 241 82 241 89.5 246.5 c 128,-1,102
 97 252 97 252 99 261 c 256,91,92
86 122 m 1,103,104
 71 120 71 120 60.5 110 c 128,-1,105
 50 100 50 100 47 85 c 0,106,107
 45 74 45 74 50.5 63.5 c 128,-1,108
 56 53 56 53 69 53 c 0,109,110
 71 53 71 53 72.5 57 c 128,-1,111
 74 61 74 61 75 63 c 1,112,-1
 86 122 l 1,103,104
EndSplineSet
EndChar
StartChar: uni0E07
Encoding: 3591 3591 274
Width: 318
Flags: W
Fore
214 18 m 1,0,1
 212 11 212 11 205.5 5.5 c 128,-1,2
 199 0 199 0 194 0 c 2,3,-1
 110 0 l 1,4,5
 100 15 100 15 91 30 c 128,-1,6
 82 45 82 45 74 61 c 0,7,8
 57 95 57 95 40.5 129 c 128,-1,9
 24 163 24 163 7 197 c 1,10,-1
 77 197 l 1,11,-1
 149 68 l 1,12,-1
 182 238 l 1,13,-1
 171 237 l 2,14,15
 139 237 139 237 121 257.5 c 128,-1,16
 103 278 103 278 110 311 c 0,17,18
 117 346 117 346 145 366.5 c 128,-1,19
 173 387 173 387 206 387 c 256,20,21
 239 387 239 387 258.5 367 c 128,-1,22
 278 347 278 347 271 312 c 2,23,-1
 214 18 l 1,24,-1
 214 18 l 1,0,1
215 314 m 256,25,26
 217 325 217 325 210.5 333 c 128,-1,27
 204 341 204 341 193 341 c 256,28,29
 182 341 182 341 172.5 333 c 128,-1,30
 163 325 163 325 161 314 c 256,31,32
 159 303 159 303 165 295 c 128,-1,33
 171 287 171 287 182 287 c 256,34,35
 193 287 193 287 203 295 c 128,-1,36
 213 303 213 303 215 314 c 256,25,26
EndSplineSet
EndChar
StartChar: uni0E08
Encoding: 3592 3592 275
Width: 363
Flags: W
Fore
313 242 m 1,0,-1
 252 0 l 1,1,-1
 115 0 l 1,2,-1
 111 126 l 1,3,4
 95 120 95 120 79 120 c 0,5,6
 46 120 46 120 25 141 c 128,-1,7
 4 162 4 162 11 197 c 0,8,9
 19 236 19 236 50.5 254 c 128,-1,10
 82 272 82 272 117 272 c 0,11,12
 139 272 139 272 151.5 265 c 128,-1,13
 164 258 164 258 170.5 246 c 128,-1,14
 177 234 177 234 179 218 c 128,-1,15
 181 202 181 202 181 184 c 2,16,-1
 183 66 l 1,17,-1
 197 66 l 1,18,19
 198 71 198 71 204 96 c 128,-1,20
 210 121 210 121 217.5 151.5 c 128,-1,21
 225 182 225 182 231.5 211.5 c 128,-1,22
 238 241 238 241 241 255 c 2,23,-1
 243 264 l 2,24,25
 245 282 245 282 239.5 293.5 c 128,-1,26
 234 305 234 305 224 312.5 c 128,-1,27
 214 320 214 320 200.5 323 c 128,-1,28
 187 326 187 326 172 326 c 0,29,30
 140 326 140 326 116 318 c 128,-1,31
 92 310 92 310 71.5 296.5 c 128,-1,32
 51 283 51 283 32.5 265.5 c 128,-1,33
 14 248 14 248 -7 230 c 1,34,-1
 11 323 l 1,35,36
 25 342 25 342 46.5 354.5 c 128,-1,37
 68 367 68 367 92.5 374.5 c 128,-1,38
 117 382 117 382 141.5 385 c 128,-1,39
 166 388 166 388 185 388 c 0,40,41
 218 388 218 388 244.5 380.5 c 128,-1,42
 271 373 271 373 289 356.5 c 128,-1,43
 307 340 307 340 314.5 314.5 c 128,-1,44
 322 289 322 289 315 253 c 2,45,-1
 313 242 l 1,0,-1
123 197 m 0,46,47
 125 209 125 209 118.5 217 c 128,-1,48
 112 225 112 225 100 225 c 0,49,50
 87 225 87 225 77.5 217.5 c 128,-1,51
 68 210 68 210 66 197 c 0,52,53
 64 185 64 185 70 177 c 128,-1,54
 76 169 76 169 88 169 c 0,55,56
 116 169 116 169 123 197 c 0,46,47
EndSplineSet
EndChar
StartChar: uni0E09
Encoding: 3593 3593 276
Width: 417
Flags: W
Fore
357 69 m 0,0,1
 354 52 354 52 344 38 c 128,-1,2
 334 24 334 24 320.5 14.5 c 128,-1,3
 307 5 307 5 290.5 -0.5 c 128,-1,4
 274 -6 274 -6 258 -6 c 0,5,6
 226 -6 226 -6 205 10.5 c 128,-1,7
 184 27 184 27 192 62 c 1,8,9
 169 51 169 51 152 35.5 c 128,-1,10
 135 20 135 20 118 0 c 1,11,-1
 44 0 l 1,12,-1
 64 107 l 1,13,14
 59 106 59 106 53.5 105.5 c 128,-1,15
 48 105 48 105 43 105 c 0,16,17
 14 105 14 105 0.5 123 c 128,-1,18
 -13 141 -13 141 -7 170 c 0,19,20
 -1 202 -1 202 24.5 226 c 128,-1,21
 50 250 50 250 89 250 c 2,22,-1
 91 250 l 2,23,24
 120 250 120 250 135 240.5 c 128,-1,25
 150 231 150 231 156 218.5 c 128,-1,26
 162 206 162 206 162 193 c 128,-1,27
 162 180 162 180 160 174 c 2,28,-1
 147 106 l 1,29,30
 156 113 156 113 166 118 c 0,31,32
 174 123 174 123 184 127.5 c 128,-1,33
 194 132 194 132 203 135 c 0,34,35
 217 140 217 140 229.5 142.5 c 128,-1,36
 242 145 242 145 250 149 c 1,37,38
 255 150 255 150 257 156 c 2,39,-1
 275 247 l 2,40,41
 284 294 284 294 263 309.5 c 128,-1,42
 242 325 242 325 199 325 c 0,43,44
 172 325 172 325 145.5 316.5 c 128,-1,45
 119 308 119 308 93 295 c 128,-1,46
 67 282 67 282 42 266 c 128,-1,47
 17 250 17 250 -7 235 c 1,48,-1
 11 327 l 1,49,50
 56 356 56 356 108.5 372.5 c 128,-1,51
 161 389 161 389 209 389 c 0,52,53
 230 389 230 389 252 387 c 128,-1,54
 274 385 274 385 293.5 378.5 c 128,-1,55
 313 372 313 372 328.5 360.5 c 128,-1,56
 344 349 344 349 352 329 c 0,57,58
 367 297 367 297 359 262 c 2,59,-1
 338 152 l 2,60,61
 336 141 336 141 328 131 c 1,62,63
 365 112 365 112 357 69 c 0,0,1
303 69 m 0,64,65
 305 82 305 82 298.5 90 c 128,-1,66
 292 98 292 98 279 98 c 256,67,68
 266 98 266 98 256 90 c 128,-1,69
 246 82 246 82 244 69 c 1,70,-1
 244 70 l 1,71,72
 242 57 242 57 248.5 49.5 c 128,-1,73
 255 42 255 42 268 42 c 0,74,75
 279 42 279 42 290 49.5 c 128,-1,76
 301 57 301 57 303 69 c 0,64,65
101 176 m 256,77,78
 103 187 103 187 96.5 195 c 128,-1,79
 90 203 90 203 79 203 c 256,80,81
 68 203 68 203 58.5 195 c 128,-1,82
 49 187 49 187 47 176 c 256,83,84
 45 165 45 165 51 157 c 128,-1,85
 57 149 57 149 68 149 c 256,86,87
 79 149 79 149 89 157 c 128,-1,88
 99 165 99 165 101 176 c 256,77,78
EndSplineSet
EndChar
StartChar: uni0E0A
Encoding: 3594 3594 277
Width: 399
Flags: W
Fore
430 400 m 1,0,1
 425 388 425 388 416 376 c 0,2,3
 408 365 408 365 397.5 352 c 128,-1,4
 387 339 387 339 373 326 c 0,5,6
 363 317 363 317 349.5 309.5 c 128,-1,7
 336 302 336 302 325 294 c 1,8,9
 342 278 342 278 349.5 259 c 128,-1,10
 357 240 357 240 352 214 c 2,11,-1
 311 0 l 1,12,-1
 40 0 l 1,13,-1
 67 139 l 2,14,15
 71 162 71 162 88 182 c 128,-1,16
 105 202 105 202 124.5 220 c 128,-1,17
 144 238 144 238 160.5 254 c 128,-1,18
 177 270 177 270 180 285 c 0,19,20
 185 311 185 311 170.5 326.5 c 128,-1,21
 156 342 156 342 132 342 c 0,22,23
 119 342 119 342 113 339.5 c 128,-1,24
 107 337 107 337 99 333 c 2,25,-1
 97 332 l 1,26,27
 120 329 120 329 131.5 312.5 c 128,-1,28
 143 296 143 296 138 273 c 0,29,30
 133 246 133 246 112 226.5 c 128,-1,31
 91 207 91 207 63 207 c 0,32,33
 28 207 28 207 10 225.5 c 128,-1,34
 -8 244 -8 244 -1 281 c 0,35,36
 4 307 4 307 17.5 327 c 128,-1,37
 31 347 31 347 50.5 361 c 128,-1,38
 70 375 70 375 93.5 382.5 c 128,-1,39
 117 390 117 390 141 390 c 0,40,41
 167 390 167 390 188 384.5 c 128,-1,42
 209 379 209 379 223.5 367 c 128,-1,43
 238 355 238 355 244 335.5 c 128,-1,44
 250 316 250 316 244 287 c 0,45,46
 240 263 240 263 225.5 242.5 c 128,-1,47
 211 222 211 222 194.5 203.5 c 128,-1,48
 178 185 178 185 164.5 168 c 128,-1,49
 151 151 151 151 148 135 c 2,50,-1
 134 65 l 1,51,-1
 242 65 l 1,52,-1
 275 232 l 2,53,54
 277 246 277 246 272 253 c 128,-1,55
 267 260 267 260 255 265 c 1,56,-1
 266 320 l 1,57,58
 274 325 274 325 282 328.5 c 128,-1,59
 290 332 290 332 298 339 c 0,60,61
 304 344 304 344 312.5 351 c 128,-1,62
 321 358 321 358 328.5 366.5 c 128,-1,63
 336 375 336 375 342 384 c 128,-1,64
 348 393 348 393 351 400 c 1,65,-1
 430 400 l 1,66,-1
 430 400 l 1,0,1
92 269 m 0,67,68
 97 290 97 290 75 290 c 0,69,70
 54 290 54 290 50 270 c 0,71,72
 48 260 48 260 52 253.5 c 128,-1,73
 56 247 56 247 67 247 c 0,74,75
 77 247 77 247 83.5 253.5 c 128,-1,76
 90 260 90 260 92 269 c 0,67,68
EndSplineSet
EndChar
StartChar: uni0E0B
Encoding: 3595 3595 278
Width: 417
Flags: W
Fore
445 400 m 1,0,1
 443 388 443 388 430 372.5 c 128,-1,2
 417 357 417 357 400 341.5 c 128,-1,3
 383 326 383 326 365.5 313 c 128,-1,4
 348 300 348 300 337 293 c 1,5,6
 354 279 354 279 362.5 259 c 128,-1,7
 371 239 371 239 366 215 c 2,8,-1
 325 0 l 1,9,-1
 52 0 l 1,10,-1
 76 125 l 2,11,12
 81 151 81 151 100.5 175.5 c 128,-1,13
 120 200 120 200 142 223.5 c 128,-1,14
 164 247 164 247 183 269 c 128,-1,15
 202 291 202 291 206 312 c 0,16,17
 208 320 208 320 205 328 c 128,-1,18
 202 336 202 336 193 336 c 0,19,20
 178 336 178 336 167 328 c 128,-1,21
 156 320 156 320 139 320 c 0,22,23
 131 320 131 320 123.5 324 c 128,-1,24
 116 328 116 328 110 332.5 c 128,-1,25
 104 337 104 337 98.5 340.5 c 128,-1,26
 93 344 93 344 88 344 c 0,27,28
 80 344 80 344 73.5 331 c 128,-1,29
 67 318 67 318 65 311 c 1,30,31
 73 314 73 314 80 314.5 c 128,-1,32
 87 315 87 315 95 315 c 0,33,34
 121 315 121 315 133 299 c 128,-1,35
 145 283 145 283 140 257 c 0,36,37
 134 226 134 226 111 208.5 c 128,-1,38
 88 191 88 191 58 191 c 0,39,40
 37 191 37 191 23 199.5 c 128,-1,41
 9 208 9 208 2 222.5 c 128,-1,42
 -5 237 -5 237 -6.5 255 c 128,-1,43
 -8 273 -8 273 -4 292 c 0,44,45
 -1 309 -1 309 7 326 c 128,-1,46
 15 343 15 343 27 357.5 c 128,-1,47
 39 372 39 372 54.5 381 c 128,-1,48
 70 390 70 390 89 390 c 0,49,50
 100 390 100 390 108 386.5 c 128,-1,51
 116 383 116 383 122 379 c 128,-1,52
 128 375 128 375 134 371.5 c 128,-1,53
 140 368 140 368 146 368 c 0,54,55
 154 368 154 368 161 371.5 c 128,-1,56
 168 375 168 375 175.5 379 c 128,-1,57
 183 383 183 383 191 386.5 c 128,-1,58
 199 390 199 390 208 390 c 0,59,60
 246 390 246 390 257 365 c 128,-1,61
 268 340 268 340 261 306 c 0,62,63
 256 279 256 279 241 256.5 c 128,-1,64
 226 234 226 234 209.5 214 c 128,-1,65
 193 194 193 194 179 175.5 c 128,-1,66
 165 157 165 157 161 136 c 2,67,-1
 147 65 l 1,68,-1
 254 65 l 1,69,-1
 284 220 l 2,70,71
 288 239 288 239 285 247 c 128,-1,72
 282 255 282 255 267 263 c 1,73,-1
 278 322 l 1,74,75
 304 336 304 336 326 356.5 c 128,-1,76
 348 377 348 377 366 400 c 1,77,-1
 445 400 l 1,78,-1
 445 400 l 1,0,1
92 255 m 0,79,80
 97 276 97 276 75 276 c 0,81,82
 54 276 54 276 50 256 c 0,83,84
 48 246 48 246 52 239.5 c 128,-1,85
 56 233 56 233 67 233 c 0,86,87
 77 233 77 233 83.5 239.5 c 128,-1,88
 90 246 90 246 92 255 c 0,79,80
EndSplineSet
EndChar
StartChar: uni0E0C
Encoding: 3596 3596 279
Width: 568
Flags: W
Fore
404 0 m 1,0,1
 385 30 385 30 364.5 48.5 c 128,-1,2
 344 67 344 67 314 86 c 1,3,-1
 309 61 l 2,4,5
 303 29 303 29 279 12.5 c 128,-1,6
 255 -4 255 -4 226 -4 c 0,7,8
 191 -4 191 -4 177 15.5 c 128,-1,9
 163 35 163 35 170 69 c 0,10,11
 176 102 176 102 198 124.5 c 128,-1,12
 220 147 220 147 254 156 c 1,13,-1
 272 252 l 2,14,15
 274 262 274 262 275.5 274.5 c 128,-1,16
 277 287 277 287 275 296 c 0,17,18
 270 317 270 317 246.5 326.5 c 128,-1,19
 223 336 223 336 193 336 c 0,20,21
 164 336 164 336 134 323.5 c 128,-1,22
 104 311 104 311 78 294 c 1,23,-1
 158 294 l 1,24,-1
 149 251 l 1,25,26
 137 249 137 249 124 241 c 128,-1,27
 111 233 111 233 108 219 c 2,28,-1
 93 141 l 1,29,30
 102 144 102 144 113 144 c 0,31,32
 128 144 128 144 138.5 137.5 c 128,-1,33
 149 131 149 131 155 120.5 c 128,-1,34
 161 110 161 110 163 97 c 128,-1,35
 165 84 165 84 162 71 c 0,36,37
 159 56 159 56 151.5 43 c 128,-1,38
 144 30 144 30 132.5 19.5 c 128,-1,39
 121 9 121 9 107 3 c 128,-1,40
 93 -3 93 -3 77 -3 c 256,41,42
 61 -3 61 -3 46.5 2.5 c 128,-1,43
 32 8 32 8 22 19 c 128,-1,44
 12 30 12 30 7.5 47.5 c 128,-1,45
 3 65 3 65 8 89 c 2,46,-1
 28 195 l 2,47,48
 31 207 31 207 33.5 214 c 128,-1,49
 36 221 36 221 40 226 c 128,-1,50
 44 231 44 231 49.5 236.5 c 128,-1,51
 55 242 55 242 63 251 c 1,52,-1
 -2 251 l 1,53,-1
 7 297 l 1,54,55
 24 304 24 304 38 316 c 128,-1,56
 52 328 52 328 66 339 c 0,57,58
 101 362 101 362 139.5 374.5 c 128,-1,59
 178 387 178 387 215 387 c 0,60,61
 238 387 238 387 264 380.5 c 128,-1,62
 290 374 290 374 311 360.5 c 128,-1,63
 332 347 332 347 344 326.5 c 128,-1,64
 356 306 356 306 351 278 c 2,65,-1
 326 152 l 1,66,67
 346 141 346 141 365.5 130.5 c 128,-1,68
 385 120 385 120 402 106 c 1,69,-1
 456 384 l 1,70,-1
 530 384 l 1,71,-1
 456 0 l 1,72,-1
 404 0 l 1,0,1
248 107 m 1,73,74
 236 105 236 105 228.5 95.5 c 128,-1,75
 221 86 221 86 219 75 c 0,76,77
 217 67 217 67 216.5 54 c 128,-1,78
 216 41 216 41 227 41 c 0,79,80
 233 41 233 41 235 44.5 c 128,-1,81
 237 48 237 48 238 53 c 2,82,-1
 248 107 l 1,83,-1
 248 107 l 1,73,74
120 68 m 256,84,85
 122 79 122 79 115.5 87 c 128,-1,86
 109 95 109 95 98 95 c 256,87,88
 87 95 87 95 77.5 87 c 128,-1,89
 68 79 68 79 66 68 c 256,90,91
 64 57 64 57 70 49 c 128,-1,92
 76 41 76 41 87 41 c 256,93,94
 98 41 98 41 108 49 c 128,-1,95
 118 57 118 57 120 68 c 256,84,85
EndSplineSet
EndChar
StartChar: uni0E0D
Encoding: 3597 3597 280
Width: 590
Flags: W
Fore
214 0 m 1,0,-1
 262 247 l 2,1,2
 270 289 270 289 255 312 c 128,-1,3
 240 335 240 335 196 335 c 0,4,5
 164 335 164 335 136 325 c 128,-1,6
 108 315 108 315 79 299 c 1,7,-1
 164 299 l 1,8,-1
 153 246 l 1,9,10
 139 240 139 240 122.5 230 c 128,-1,11
 106 220 106 220 103 203 c 2,12,-1
 91 143 l 1,13,14
 105 150 105 150 122 150 c 0,15,16
 152 150 152 150 168.5 127.5 c 128,-1,17
 185 105 185 105 179 76 c 0,18,19
 171 33 171 33 139.5 14 c 128,-1,20
 108 -5 108 -5 69 -5 c 0,21,22
 52 -5 52 -5 37 1.5 c 128,-1,23
 22 8 22 8 11.5 19.5 c 128,-1,24
 1 31 1 31 -3.5 46.5 c 128,-1,25
 -8 62 -8 62 -5 80 c 2,26,-1
 13 174 l 2,27,28
 18 194 18 194 30 213.5 c 128,-1,29
 42 233 42 233 59 243 c 1,30,-1
 -6 243 l 1,31,-1
 9 319 l 1,32,33
 24 324 24 324 38 332.5 c 128,-1,34
 52 341 52 341 66 350 c 2,35,-1
 71 353 l 2,36,37
 106 374 106 374 140.5 383 c 128,-1,38
 175 392 175 392 211 392 c 0,39,40
 246 392 246 392 274 384 c 128,-1,41
 302 376 302 376 320 358.5 c 128,-1,42
 338 341 338 341 345.5 314.5 c 128,-1,43
 353 288 353 288 345 251 c 2,44,-1
 310 67 l 1,45,-1
 409 67 l 1,46,-1
 470 384 l 1,47,-1
 553 384 l 1,48,-1
 479 0 l 1,49,-1
 214 0 l 1,0,-1
473 -41 m 1,50,51
 466 -70 466 -70 457 -92 c 128,-1,52
 448 -114 448 -114 433.5 -130.5 c 128,-1,53
 419 -147 419 -147 398 -158.5 c 128,-1,54
 377 -170 377 -170 347 -178 c 0,55,56
 330 -183 330 -183 311.5 -184.5 c 128,-1,57
 293 -186 293 -186 276 -186 c 0,58,59
 262 -186 262 -186 248.5 -184.5 c 128,-1,60
 235 -183 235 -183 223 -178 c 0,61,62
 202 -169 202 -169 189 -150.5 c 128,-1,63
 176 -132 176 -132 181 -106 c 0,64,65
 188 -70 188 -70 215 -50 c 128,-1,66
 242 -30 242 -30 277 -30 c 0,67,68
 292 -30 292 -30 305 -34.5 c 128,-1,69
 318 -39 318 -39 328 -47.5 c 128,-1,70
 338 -56 338 -56 342.5 -68.5 c 128,-1,71
 347 -81 347 -81 344 -97 c 1,72,73
 342 -102 342 -102 340.5 -107.5 c 128,-1,74
 339 -113 339 -113 337 -118 c 1,75,76
 360 -112 360 -112 371 -92.5 c 128,-1,77
 382 -73 382 -73 386 -55 c 2,78,-1
 387 -51 l 1,79,80
 387 -49 387 -49 387.5 -46 c 128,-1,81
 388 -43 388 -43 388 -41 c 1,82,-1
 473 -41 l 1,83,-1
 473 -41 l 1,50,51
291 -103 m 256,84,85
 293 -92 293 -92 286.5 -85 c 128,-1,86
 280 -78 280 -78 269 -78 c 256,87,88
 258 -78 258 -78 248.5 -85 c 128,-1,89
 239 -92 239 -92 237 -103 c 256,90,91
 235 -114 235 -114 241.5 -121.5 c 128,-1,92
 248 -129 248 -129 259 -129 c 256,93,94
 270 -129 270 -129 279.5 -121.5 c 128,-1,95
 289 -114 289 -114 291 -103 c 256,84,85
121 70 m 0,96,97
 123 82 123 82 117 90 c 128,-1,98
 111 98 111 98 99 98 c 0,99,100
 86 98 86 98 76 90.5 c 128,-1,101
 66 83 66 83 64 70 c 0,102,103
 62 58 62 58 68.5 50.5 c 128,-1,104
 75 43 75 43 87 43 c 256,105,106
 99 43 99 43 109 50 c 128,-1,107
 119 57 119 57 121 70 c 0,96,97
EndSplineSet
Substitution: 0 65534 'L019' uni0E0D.alt1
Substitution: 0 65534 'L019' uni0E0D.alt1
EndChar
StartChar: uni0E0E
Encoding: 3598 3598 281
Width: 479
Flags: W
Fore
270 -162 m 1,0,1
 252 -150 252 -150 233.5 -139.5 c 128,-1,2
 215 -129 215 -129 196 -118 c 1,3,4
 178 -145 178 -145 149.5 -156.5 c 128,-1,5
 121 -168 121 -168 92 -168 c 0,6,7
 76 -168 76 -168 60.5 -164 c 128,-1,8
 45 -160 45 -160 33.5 -151.5 c 128,-1,9
 22 -143 22 -143 16.5 -129.5 c 128,-1,10
 11 -116 11 -116 15 -97 c 0,11,12
 22 -60 22 -60 50 -43 c 128,-1,13
 78 -26 78 -26 112 -26 c 0,14,15
 121 -26 121 -26 130 -26.5 c 128,-1,16
 139 -27 139 -27 148 -30 c 1,17,-1
 155 9 l 1,18,-1
 233 9 l 1,19,-1
 222 -51 l 1,20,-1
 273 -81 l 1,21,-1
 343 282 l 2,22,23
 344 298 344 298 334.5 307.5 c 128,-1,24
 325 317 325 317 311.5 322.5 c 128,-1,25
 298 328 298 328 282 330 c 128,-1,26
 266 332 266 332 254 332 c 0,27,28
 226 332 226 332 196.5 323.5 c 128,-1,29
 167 315 167 315 141 297 c 1,30,-1
 218 297 l 1,31,-1
 209 250 l 1,32,33
 200 246 200 246 191 241 c 128,-1,34
 182 236 182 236 177 227 c 0,35,36
 172 219 172 219 170 208 c 2,37,-1
 151 113 l 2,38,39
 148 100 148 100 145 85.5 c 128,-1,40
 142 71 142 71 136.5 58 c 128,-1,41
 131 45 131 45 122 33.5 c 128,-1,42
 113 22 113 22 99 13 c 0,43,44
 70 -4 70 -4 38 -4 c 0,45,46
 4 -4 4 -4 -18 16.5 c 128,-1,47
 -40 37 -40 37 -32 73 c 0,48,49
 -26 106 -26 106 0.5 128 c 128,-1,50
 27 150 27 150 60 150 c 0,51,52
 69 150 69 150 76 146 c 1,53,-1
 82 175 l 2,54,55
 86 196 86 196 93 213 c 128,-1,56
 100 230 100 230 119 246 c 1,57,-1
 57 246 l 1,58,-1
 69 307 l 1,59,60
 84 313 84 313 96 323.5 c 128,-1,61
 108 334 108 334 121 344 c 0,62,63
 153 367 153 367 190.5 377.5 c 128,-1,64
 228 388 228 388 263 388 c 0,65,66
 291 388 291 388 322 383 c 128,-1,67
 353 378 353 378 377.5 365 c 128,-1,68
 402 352 402 352 415.5 329.5 c 128,-1,69
 429 307 429 307 422 272 c 2,70,-1
 338 -162 l 1,71,-1
 270 -162 l 1,0,1
80 74 m 256,72,73
 82 85 82 85 75.5 92.5 c 128,-1,74
 69 100 69 100 58 100 c 256,75,76
 47 100 47 100 37.5 93 c 128,-1,77
 28 86 28 86 26 75 c 256,78,79
 24 64 24 64 30.5 56 c 128,-1,80
 37 48 37 48 48 48 c 256,81,82
 59 48 59 48 68.5 55.5 c 128,-1,83
 78 63 78 63 80 74 c 256,72,73
136 -89 m 1,84,85
 129 -86 129 -86 118 -81 c 128,-1,86
 107 -76 107 -76 99 -76 c 256,87,88
 91 -76 91 -76 82.5 -80.5 c 128,-1,89
 74 -85 74 -85 72 -94 c 0,90,91
 70 -106 70 -106 78.5 -111.5 c 128,-1,92
 87 -117 87 -117 98 -117 c 0,93,94
 114 -117 114 -117 121.5 -110 c 128,-1,95
 129 -103 129 -103 136 -89 c 1,84,85
EndSplineSet
Substitution: 0 65534 'L019' uni0E0E.alt1
Substitution: 0 65534 'L019' uni0E0E.alt1
EndChar
StartChar: uni0E0F
Encoding: 3599 3599 282
Width: 486
Flags: W
Fore
264 -165 m 1,0,-1
 229 -124 l 1,1,-1
 179 -165 l 1,2,-1
 145 -165 l 1,3,4
 141 -157 141 -157 136 -150.5 c 128,-1,5
 131 -144 131 -144 126 -137 c 1,6,7
 108 -156 108 -156 85.5 -162.5 c 128,-1,8
 63 -169 63 -169 40 -169 c 0,9,10
 24 -169 24 -169 8.5 -164 c 128,-1,11
 -7 -159 -7 -159 -18.5 -149.5 c 128,-1,12
 -30 -140 -30 -140 -36 -126.5 c 128,-1,13
 -42 -113 -42 -113 -39 -95 c 0,14,15
 -36 -79 -36 -79 -26.5 -66.5 c 128,-1,16
 -17 -54 -17 -54 -3.5 -45 c 128,-1,17
 10 -36 10 -36 25.5 -31.5 c 128,-1,18
 41 -27 41 -27 55 -27 c 0,19,20
 89 -27 89 -27 114 -43 c 1,21,-1
 123 0 l 1,22,-1
 204 0 l 1,23,24
 197 -20 197 -20 188 -39 c 128,-1,25
 179 -58 179 -58 170 -78 c 1,26,-1
 190 -92 l 1,27,-1
 246 -34 l 1,28,-1
 277 -78 l 1,29,-1
 342 256 l 2,30,31
 344 264 344 264 345.5 273 c 128,-1,32
 347 282 347 282 345 290 c 0,33,34
 343 304 343 304 333.5 312.5 c 128,-1,35
 324 321 324 321 311 326 c 128,-1,36
 298 331 298 331 283.5 333 c 128,-1,37
 269 335 269 335 256 335 c 0,38,39
 229 335 229 335 199.5 327.5 c 128,-1,40
 170 320 170 320 145 302 c 1,41,-1
 225 302 l 1,42,-1
 215 251 l 1,43,44
 199 243 199 243 188 231.5 c 128,-1,45
 177 220 177 220 174 203 c 2,46,-1
 154 99 l 2,47,48
 145 53 145 53 121.5 24 c 128,-1,49
 98 -5 98 -5 47 -5 c 0,50,51
 30 -5 30 -5 15 0 c 128,-1,52
 0 5 0 5 -10.5 14.5 c 128,-1,53
 -21 24 -21 24 -25.5 38 c 128,-1,54
 -30 52 -30 52 -27 71 c 0,55,56
 -20 106 -20 106 6 127.5 c 128,-1,57
 32 149 32 149 67 149 c 0,58,59
 75 149 75 149 81 146 c 1,60,-1
 92 203 l 2,61,62
 95 217 95 217 104.5 229 c 128,-1,63
 114 241 114 241 127 249 c 1,64,-1
 63 249 l 1,65,-1
 76 314 l 1,66,67
 91 319 91 319 103 329.5 c 128,-1,68
 115 340 115 340 129 349 c 0,69,70
 164 372 164 372 200 380.5 c 128,-1,71
 236 389 236 389 273 389 c 0,72,73
 293 389 293 389 316 385.5 c 128,-1,74
 339 382 339 382 360 374.5 c 128,-1,75
 381 367 381 367 397.5 354.5 c 128,-1,76
 414 342 414 342 421 324 c 0,77,78
 429 305 429 305 428 284 c 128,-1,79
 427 263 427 263 423 242 c 2,80,-1
 343 -165 l 1,81,-1
 264 -165 l 1,0,-1
85 74 m 256,82,83
 87 85 87 85 80.5 92.5 c 128,-1,84
 74 100 74 100 63 100 c 256,85,86
 52 100 52 100 42.5 93 c 128,-1,87
 33 86 33 86 31 75 c 256,88,89
 29 64 29 64 35.5 56 c 128,-1,90
 42 48 42 48 53 48 c 256,91,92
 64 48 64 48 73.5 55.5 c 128,-1,93
 83 63 83 63 85 74 c 256,82,83
89 -98 m 1,94,95
 80 -90 80 -90 70.5 -83.5 c 128,-1,96
 61 -77 61 -77 49 -77 c 0,97,98
 41 -77 41 -77 33.5 -82 c 128,-1,99
 26 -87 26 -87 24 -95 c 0,100,101
 22 -107 22 -107 31 -111.5 c 128,-1,102
 40 -116 40 -116 50 -116 c 0,103,104
 62 -116 62 -116 70.5 -111.5 c 128,-1,105
 79 -107 79 -107 89 -98 c 1,94,95
EndSplineSet
Substitution: 0 65534 'L019' uni0E0F.alt1
Substitution: 0 65534 'L019' uni0E0F.alt1
EndChar
StartChar: uni0E10
Encoding: 3600 3600 283
Width: 374
Flags: W
Fore
358 300 m 1,0,1
 341 295 341 295 325 294 c 128,-1,2
 309 293 309 293 293 293 c 0,3,4
 266 293 266 293 242.5 300 c 128,-1,5
 219 307 219 307 196 315 c 0,6,7
 188 318 188 318 177.5 321 c 128,-1,8
 167 324 167 324 159 324 c 0,9,10
 137 324 137 324 128 316 c 128,-1,11
 119 308 119 308 106 294 c 1,12,13
 129 294 129 294 151.5 293 c 128,-1,14
 174 292 174 292 197 289 c 2,15,-1
 207 288 l 2,16,17
 228 285 228 285 251 280.5 c 128,-1,18
 274 276 274 276 291.5 266.5 c 128,-1,19
 309 257 309 257 318 240.5 c 128,-1,20
 327 224 327 224 322 196 c 0,21,22
 316 171 316 171 307 149 c 2,23,-1
 247 -1 l 1,24,-1
 146 -1 l 1,25,-1
 120 92 l 1,26,27
 96 80 96 80 69 80 c 0,28,29
 38 80 38 80 22 97.5 c 128,-1,30
 6 115 6 115 12 147 c 0,31,32
 20 186 20 186 50.5 202.5 c 128,-1,33
 81 219 81 219 116 219 c 0,34,35
 149 219 149 219 162.5 197.5 c 128,-1,36
 176 176 176 176 183 149 c 2,37,-1
 201 76 l 1,38,-1
 224 136 l 1,39,40
 224 138 224 138 226.5 145 c 128,-1,41
 229 152 229 152 232 160.5 c 128,-1,42
 235 169 235 169 237.5 177.5 c 128,-1,43
 240 186 240 186 241 191 c 1,44,-1
 241 195 l 2,45,46
 240 212 240 212 225 220.5 c 128,-1,47
 210 229 210 229 189.5 232 c 128,-1,48
 169 235 169 235 148.5 235.5 c 128,-1,49
 128 236 128 236 116 236 c 2,50,-1
 -16 231 l 1,51,52
 -3 261 -3 261 15 289.5 c 128,-1,53
 33 318 33 318 56 340 c 128,-1,54
 79 362 79 362 108 375.5 c 128,-1,55
 137 389 137 389 171 389 c 0,56,57
 191 389 191 389 209 384.5 c 128,-1,58
 227 380 227 380 244 372 c 0,59,60
 264 361 264 361 289 361 c 0,61,62
 312 361 312 361 332 369 c 128,-1,63
 352 377 352 377 375 387 c 1,64,-1
 358 300 l 1,65,-1
 358 300 l 1,0,1
235 -143 m 1,66,67
 229 -173 229 -173 204.5 -184.5 c 128,-1,68
 180 -196 180 -196 154 -196 c 2,69,-1
 117 -196 l 1,70,-1
 80 -161 l 1,71,-1
 44 -189 l 1,72,73
 39 -183 39 -183 36.5 -175.5 c 128,-1,74
 34 -168 34 -168 29 -163 c 1,75,76
 14 -175 14 -175 -3.5 -186.5 c 128,-1,77
 -21 -198 -21 -198 -40 -198 c 0,78,79
 -75 -198 -75 -198 -93.5 -180 c 128,-1,80
 -112 -162 -112 -162 -105 -124 c 0,81,82
 -98 -91 -98 -91 -69.5 -76.5 c 128,-1,83
 -41 -62 -41 -62 -13 -62 c 0,84,85
 -2 -62 -2 -62 6 -66 c 128,-1,86
 14 -70 14 -70 22 -75 c 1,87,-1
 30 -32 l 1,88,-1
 98 -32 l 1,89,-1
 97 -41 l 2,90,91
 93 -57 93 -57 85.5 -72.5 c 128,-1,92
 78 -88 78 -88 70 -103 c 1,93,-1
 100 -86 l 1,94,-1
 135 -134 l 2,95,96
 138 -138 138 -138 151.5 -138.5 c 128,-1,97
 165 -139 165 -139 170 -139 c 1,98,-1
 174 -120 l 1,99,-1
 160 -120 l 2,100,101
 142 -120 142 -120 133 -106.5 c 128,-1,102
 124 -93 124 -93 128 -76 c 0,103,104
 133 -50 133 -50 155 -38.5 c 128,-1,105
 177 -27 177 -27 200 -27 c 0,106,107
 232 -27 232 -27 240.5 -47.5 c 128,-1,108
 249 -68 249 -68 244 -97 c 2,109,-1
 235 -143 l 1,110,-1
 235 -143 l 1,66,67
115 150 m 0,111,112
 120 175 120 175 95 175 c 256,113,114
 70 175 70 175 65 151 c 0,115,116
 60 126 60 126 85 126 c 0,117,118
 111 126 111 126 115 150 c 0,111,112
203 -78 m 0,119,120
 206 -60 206 -60 190 -60 c 0,121,122
 173 -60 173 -60 170 -76 c 0,123,124
 167 -91 167 -91 184 -91 c 0,125,126
 191 -91 191 -91 196 -88.5 c 128,-1,127
 201 -86 201 -86 203 -78 c 0,119,120
-7 -128 m 0,128,129
 -5 -118 -5 -118 -13 -112.5 c 128,-1,130
 -21 -107 -21 -107 -30 -107 c 256,131,132
 -39 -107 -39 -107 -46 -113 c 128,-1,133
 -53 -119 -53 -119 -55 -128 c 0,134,135
 -57 -138 -57 -138 -52 -144.5 c 128,-1,136
 -47 -151 -47 -151 -37 -151 c 0,137,138
 -26 -151 -26 -151 -17.5 -145 c 128,-1,139
 -9 -139 -9 -139 -7 -128 c 0,128,129
EndSplineSet
Substitution: 0 65534 'L019' uni0E10.alt1
Substitution: 0 65534 'L019' uni0E10.alt1
EndChar
StartChar: uni0E11
Encoding: 3601 3601 284
Width: 521
Flags: W
Fore
330 0 m 1,0,-1
 388 299 l 2,1,2
 390 307 390 307 388 316.5 c 128,-1,3
 386 326 386 326 376 326 c 0,4,5
 370 326 370 326 361 317 c 128,-1,6
 352 308 352 308 343 296.5 c 128,-1,7
 334 285 334 285 327 274 c 128,-1,8
 320 263 320 263 317 258 c 2,9,-1
 175 25 l 2,10,11
 172 19 172 19 168.5 14 c 128,-1,12
 165 9 165 9 160 0 c 1,13,-1
 77 0 l 1,14,-1
 104 139 l 2,15,16
 109 165 109 165 124 188.5 c 128,-1,17
 139 212 139 212 155.5 233 c 128,-1,18
 172 254 172 254 186.5 274 c 128,-1,19
 201 294 201 294 205 313 c 0,20,21
 207 324 207 324 206.5 329.5 c 128,-1,22
 206 335 206 335 195 335 c 1,23,-1
 136 316 l 1,24,25
 126 316 126 316 119.5 319.5 c 128,-1,26
 113 323 113 323 108 327 c 128,-1,27
 103 331 103 331 98.5 334.5 c 128,-1,28
 94 338 94 338 89 338 c 256,29,30
 84 338 84 338 80.5 333.5 c 128,-1,31
 77 329 77 329 74.5 322.5 c 128,-1,32
 72 316 72 316 70.5 310 c 128,-1,33
 69 304 69 304 68 301 c 1,34,35
 76 303 76 303 83.5 306 c 128,-1,36
 91 309 91 309 98 309 c 0,37,38
 124 309 124 309 137.5 294 c 128,-1,39
 151 279 151 279 146 253 c 0,40,41
 140 223 140 223 116 205 c 128,-1,42
 92 187 92 187 63 187 c 0,43,44
 39 187 39 187 25 196 c 128,-1,45
 11 205 11 205 4 219.5 c 128,-1,46
 -3 234 -3 234 -3.5 253 c 128,-1,47
 -4 272 -4 272 0 293 c 0,48,49
 3 309 3 309 10 326 c 128,-1,50
 17 343 17 343 27.5 357 c 128,-1,51
 38 371 38 371 53 380 c 128,-1,52
 68 389 68 389 87 389 c 0,53,54
 98 389 98 389 106 385.5 c 128,-1,55
 114 382 114 382 120.5 378 c 128,-1,56
 127 374 127 374 133 370.5 c 128,-1,57
 139 367 139 367 145 367 c 256,58,59
 151 367 151 367 158.5 370.5 c 128,-1,60
 166 374 166 374 174.5 378.5 c 128,-1,61
 183 383 183 383 193 386.5 c 128,-1,62
 203 390 203 390 213 390 c 0,63,64
 246 390 246 390 260.5 371.5 c 128,-1,65
 275 353 275 353 269 321 c 256,66,67
 263 289 263 289 244.5 265 c 128,-1,68
 226 241 226 241 208 214 c 0,69,70
 203 205 203 205 198.5 188.5 c 128,-1,71
 194 172 194 172 191 156 c 2,72,-1
 182 111 l 1,73,74
 184 116 184 116 187 120.5 c 128,-1,75
 190 125 190 125 194 131 c 0,76,77
 211 161 211 161 236 204 c 128,-1,78
 261 247 261 247 288.5 287.5 c 128,-1,79
 316 328 316 328 342.5 356.5 c 128,-1,80
 369 385 369 385 388 385 c 0,81,82
 408 385 408 385 425 381 c 128,-1,83
 442 377 442 377 454 368 c 128,-1,84
 466 359 466 359 471 344 c 128,-1,85
 476 329 476 329 471 306 c 2,86,-1
 412 0 l 1,87,-1
 330 0 l 1,0,-1
98 249 m 256,88,89
 100 258 100 258 94.5 263 c 128,-1,90
 89 268 89 268 81 268 c 256,91,92
 73 268 73 268 65.5 263 c 128,-1,93
 58 258 58 258 56 249 c 256,94,95
 54 240 54 240 59.5 235 c 128,-1,96
 65 230 65 230 73 230 c 256,97,98
 81 230 81 230 88.5 235 c 128,-1,99
 96 240 96 240 98 249 c 256,88,89
EndSplineSet
EndChar
StartChar: uni0E12
Encoding: 3602 3602 285
Width: 594
Flags: W
Fore
418 0 m 1,0,-1
 351 66 l 1,1,2
 338 -7 338 -7 266 -7 c 0,3,4
 229 -7 229 -7 207 12.5 c 128,-1,5
 185 32 185 32 192 72 c 0,6,7
 199 106 199 106 226.5 127 c 128,-1,8
 254 148 254 148 286 153 c 1,9,-1
 311 282 l 2,10,11
 312 287 312 287 311 294 c 128,-1,12
 310 301 310 301 307 307 c 128,-1,13
 304 313 304 313 299.5 317.5 c 128,-1,14
 295 322 295 322 289 322 c 0,15,16
 279 322 279 322 261 311.5 c 128,-1,17
 243 301 243 301 219 301 c 0,18,19
 209 301 209 301 197.5 304.5 c 128,-1,20
 186 308 186 308 176 312.5 c 128,-1,21
 166 317 166 317 157.5 320.5 c 128,-1,22
 149 324 149 324 144 324 c 0,23,24
 131 324 131 324 120 315 c 128,-1,25
 109 306 109 306 100.5 292.5 c 128,-1,26
 92 279 92 279 86 265 c 128,-1,27
 80 251 80 251 78 240 c 0,28,29
 73 217 73 217 78 196 c 128,-1,30
 83 175 83 175 88 155 c 0,31,32
 92 136 92 136 93 117 c 128,-1,33
 94 98 94 98 93 78 c 1,34,-1
 150 146 l 1,35,36
 131 153 131 153 117 171.5 c 128,-1,37
 103 190 103 190 107 213 c 0,38,39
 111 232 111 232 121.5 245.5 c 128,-1,40
 132 259 132 259 146.5 267.5 c 128,-1,41
 161 276 161 276 178 280 c 128,-1,42
 195 284 195 284 211 284 c 0,43,44
 226 284 226 284 239 281 c 128,-1,45
 252 278 252 278 261.5 270.5 c 128,-1,46
 271 263 271 263 275 251.5 c 128,-1,47
 279 240 279 240 276 223 c 0,48,49
 270 194 270 194 250 170 c 128,-1,50
 230 146 230 146 210 123 c 2,51,-1
 105 0 l 1,52,-1
 14 0 l 1,53,54
 16 30 16 30 12 61.5 c 128,-1,55
 8 93 8 93 3.5 124.5 c 128,-1,56
 -1 156 -1 156 -2.5 186.5 c 128,-1,57
 -4 217 -4 217 2 247 c 0,58,59
 7 271 7 271 22.5 295.5 c 128,-1,60
 38 320 38 320 60 340.5 c 128,-1,61
 82 361 82 361 108 374 c 128,-1,62
 134 387 134 387 158 387 c 0,63,64
 171 387 171 387 180 382.5 c 128,-1,65
 189 378 189 378 196.5 373 c 128,-1,66
 204 368 204 368 211 363.5 c 128,-1,67
 218 359 218 359 226 359 c 0,68,69
 237 359 237 359 256.5 370 c 128,-1,70
 276 381 276 381 287 388 c 1,71,72
 336 388 336 388 369 358 c 0,73,74
 389 341 389 341 392 315 c 128,-1,75
 395 289 395 289 390 261 c 2,76,-1
 367 142 l 1,77,78
 381 132 381 132 394 121.5 c 128,-1,79
 407 111 407 111 421 100 c 1,80,-1
 476 383 l 1,81,-1
 560 383 l 1,82,-1
 486 0 l 1,83,-1
 418 0 l 1,0,-1
219 215 m 256,84,85
 221 226 221 226 215 233 c 128,-1,86
 209 240 209 240 198 240 c 256,87,88
 187 240 187 240 177.5 233 c 128,-1,89
 168 226 168 226 166 215 c 256,90,91
 164 204 164 204 170 197 c 128,-1,92
 176 190 176 190 187 190 c 256,93,94
 198 190 198 190 207.5 197 c 128,-1,95
 217 204 217 204 219 215 c 256,84,85
279 103 m 1,96,97
 254 95 254 95 249 71 c 0,98,99
 246 49 246 49 267 42 c 1,100,-1
 279 103 l 1,96,97
EndSplineSet
EndChar
StartChar: uni0E13
Encoding: 3603 3603 286
Width: 581
Flags: W
Fore
520 69 m 0,0,1
 513 35 513 35 485 15.5 c 128,-1,2
 457 -4 457 -4 425 -4 c 0,3,4
 412 -4 412 -4 399.5 0 c 128,-1,5
 387 4 387 4 377.5 11.5 c 128,-1,6
 368 19 368 19 363 30.5 c 128,-1,7
 358 42 358 42 361 57 c 1,8,-1
 333 46 l 2,9,10
 312 35 312 35 305.5 26 c 128,-1,11
 299 17 299 17 288 0 c 1,12,-1
 217 0 l 1,13,-1
 265 250 l 2,14,15
 270 277 270 277 267 293.5 c 128,-1,16
 264 310 264 310 253 319 c 128,-1,17
 242 328 242 328 223.5 331 c 128,-1,18
 205 334 205 334 181 334 c 0,19,20
 153 334 153 334 129 326.5 c 128,-1,21
 105 319 105 319 79 303 c 1,22,-1
 151 303 l 1,23,-1
 142 255 l 1,24,25
 128 247 128 247 116.5 235.5 c 128,-1,26
 105 224 105 224 102 208 c 2,27,-1
 89 143 l 1,28,29
 97 146 97 146 104 146.5 c 128,-1,30
 111 147 111 147 119 147 c 0,31,32
 151 147 151 147 168 125.5 c 128,-1,33
 185 104 185 104 178 72 c 0,34,35
 175 56 175 56 164.5 42 c 128,-1,36
 154 28 154 28 140 18 c 128,-1,37
 126 8 126 8 110.5 2.5 c 128,-1,38
 95 -3 95 -3 83 -3 c 256,39,40
 71 -3 71 -3 53.5 0.5 c 128,-1,41
 36 4 36 4 20.5 12.5 c 128,-1,42
 5 21 5 21 -4 35.5 c 128,-1,43
 -13 50 -13 50 -9 71 c 2,44,-1
 16 197 l 2,45,46
 19 213 19 213 29 227 c 128,-1,47
 39 241 39 241 52 252 c 1,48,-1
 -7 252 l 1,49,-1
 6 318 l 1,50,51
 22 323 22 323 36 332 c 128,-1,52
 64 350 l 0,53,54
 99 373 99 373 139 381 c 128,-1,55
 179 389 179 389 216 389 c 0,56,57
 242 389 242 389 268.5 383.5 c 128,-1,58
 295 378 295 378 317 366 c 0,59,60
 339 352 339 352 350 331.5 c 128,-1,61
 361 311 361 311 355 282 c 2,62,-1
 322 109 l 1,63,64
 329 112 329 112 341.5 116 c 128,-1,65
 354 120 354 120 367.5 124.5 c 128,-1,66
 381 129 381 129 392.5 133 c 128,-1,67
 404 137 404 137 409 141 c 0,68,69
 416 146 416 146 417.5 150 c 128,-1,70
 419 154 419 154 421 162 c 2,71,-1
 464 384 l 1,72,-1
 548 384 l 1,73,-1
 504 156 l 2,74,75
 502 148 502 148 499.5 141 c 128,-1,76
 497 134 497 134 492 127 c 1,77,78
 508 118 508 118 516 103.5 c 128,-1,79
 524 89 524 89 520 69 c 0,0,1
467 63 m 0,80,81
 469 73 469 73 461.5 79 c 128,-1,82
 454 85 454 85 445 85 c 256,83,84
 436 85 436 85 426.5 79 c 128,-1,85
 417 73 417 73 415 63 c 0,86,87
 413 52 413 52 419.5 46 c 128,-1,88
 426 40 426 40 436 40 c 0,89,90
 447 40 447 40 456 46 c 128,-1,91
 465 52 465 52 467 63 c 0,80,81
122 70 m 256,92,93
 124 81 124 81 117.5 88 c 128,-1,94
 111 95 111 95 100 95 c 256,95,96
 89 95 89 95 79.5 88 c 128,-1,97
 70 81 70 81 68 70 c 256,98,99
 66 59 66 59 72.5 52 c 128,-1,100
 79 45 79 45 90 45 c 256,101,102
 101 45 101 45 110.5 52 c 128,-1,103
 120 59 120 59 122 70 c 256,92,93
EndSplineSet
EndChar
StartChar: uni0E14
Encoding: 3604 3604 287
Width: 443
Flags: W
Fore
253 0 m 1,0,-1
 302 256 l 2,1,2
 307 279 307 279 299.5 293.5 c 128,-1,3
 292 308 292 308 278 316 c 128,-1,4
 264 324 264 324 245.5 327.5 c 128,-1,5
 227 331 227 331 209 331 c 0,6,7
 187 331 187 331 165.5 326 c 128,-1,8
 144 321 144 321 126.5 309.5 c 128,-1,9
 109 298 109 298 96.5 280.5 c 128,-1,10
 84 263 84 263 79 237 c 0,11,12
 75 218 75 218 75.5 197.5 c 128,-1,13
 76 177 76 177 79 156.5 c 128,-1,14
 82 136 82 136 85.5 116 c 128,-1,15
 89 96 89 96 92 78 c 1,16,-1
 152 144 l 1,17,18
 127 150 127 150 114 166.5 c 128,-1,19
 101 183 101 183 107 211 c 0,20,21
 110 228 110 228 119.5 242 c 128,-1,22
 129 256 129 256 142.5 266 c 128,-1,23
 156 276 156 276 172.5 281.5 c 128,-1,24
 189 287 189 287 205 287 c 256,25,26
 221 287 221 287 235 283 c 128,-1,27
 249 279 249 279 259 270.5 c 128,-1,28
 269 262 269 262 273.5 249 c 128,-1,29
 278 236 278 236 275 218 c 0,30,31
 271 195 271 195 253 172 c 0,32,33
 220 126 220 126 180.5 84 c 128,-1,34
 141 42 141 42 103 0 c 1,35,-1
 12 0 l 1,36,37
 10 21 10 21 12 42.5 c 128,-1,38
 14 64 14 64 10 84 c 0,39,40
 7 99 7 99 4 119 c 128,-1,41
 1 139 1 139 -1 160 c 128,-1,42
 -3 181 -3 181 -3.5 201 c 128,-1,43
 -4 221 -4 221 -1 236 c 0,44,45
 7 277 7 277 29.5 305.5 c 128,-1,46
 52 334 52 334 82.5 352 c 128,-1,47
 113 370 113 370 149 378.5 c 128,-1,48
 185 387 185 387 220 387 c 0,49,50
 253 387 253 387 285.5 381.5 c 128,-1,51
 318 376 318 376 342 361 c 128,-1,52
 366 346 366 346 378.5 320.5 c 128,-1,53
 391 295 391 295 383 255 c 2,54,-1
 334 0 l 1,55,-1
 253 0 l 1,0,-1
220 215 m 256,56,57
 222 226 222 226 215.5 233 c 128,-1,58
 209 240 209 240 198 240 c 256,59,60
 187 240 187 240 177.5 233 c 128,-1,61
 168 226 168 226 166 215 c 256,62,63
 164 204 164 204 170.5 197 c 128,-1,64
 177 190 177 190 188 190 c 256,65,66
 199 190 199 190 208.5 197 c 128,-1,67
 218 204 218 204 220 215 c 256,56,57
EndSplineSet
EndChar
